<?xml version="1.0"?>
<svg xmlns="http://www.w3.org/2000/svg" xmlns:xlink="http://www.w3.org/1999/xlink" xmlns:svgjs="http://svgjs.com/svgjs" version="1.1" width="512" height="512" x="0" y="0" viewBox="0 0 512 512" style="enable-background:new 0 0 512 512" xml:space="preserve" class=""><g transform="matrix(0.9999999999999999,0,0,0.9999999999999999,2.842170943040401e-14,2.842170943040401e-14)"><g xmlns="http://www.w3.org/2000/svg"><path d="m194.862 220.51h-173.042c-3.467 0-6.278-2.811-6.278-6.278v-166.763c0-3.467 2.811-6.278 6.278-6.278h166.764c3.467 0 6.278 2.811 6.278 6.278z" fill="#6700ee" data-original="#fef056" class=""/><path d="m188.584 41.191h-47.864c3.467 0 6.278 2.811 6.278 6.278v173.041h47.864v-173.041c0-3.467-2.811-6.278-6.278-6.278z" fill="#6700ee" data-original="#f9dc08" class=""/><path d="m386.783 220.51h-76.232v-76.232c0-3.467 2.811-6.278 6.278-6.278h69.954c3.467 0 6.278 2.811 6.278 6.278v69.954c0 3.468-2.811 6.278-6.278 6.278z" fill="#00f7ff" data-original="#75cdd5" class=""/><path d="m386.783 138.001h-37.42c3.467 0 6.278 2.811 6.278 6.278v69.954c0 3.467-2.811 6.277-6.278 6.277h37.42c3.467 0 6.278-2.811 6.278-6.277v-69.954c0-3.467-2.811-6.278-6.278-6.278z" fill="#00f7ff" data-original="#2abcc8" class=""/><path d="m194.862 220.51h115.69v115.69h-115.69z" fill="#ff64cb" data-original="#ffface" class=""/><path d="m281.812 220.51h28.739v115.69h-28.739z" fill="#ff64cb" data-original="#fef6ad" class=""/><path d="m188.584 451.89h-103.134c-3.467 0-6.278-2.811-6.278-6.278v-103.134c0-3.467 2.811-6.278 6.278-6.278h109.412v109.412c0 3.467-2.811 6.278-6.278 6.278z" fill="#a48aff" data-original="#c2fae3" class=""/><path d="m157.442 336.2v109.412c0 3.467-2.811 6.278-6.278 6.278h37.42c3.467 0 6.278-2.81 6.278-6.278v-109.412z" fill="#a48aff" data-original="#9cf8d2" class=""/><path d="m490.18 451.89h-173.351c-3.467 0-6.278-2.811-6.278-6.278v-109.412h179.629c3.467 0 6.278 2.811 6.278 6.278v103.134c0 3.467-2.811 6.278-6.278 6.278z" fill="#6700ee" data-original="#6e61b6" class=""/><path d="m490.18 336.2h-47.864c3.467 0 6.278 2.81 6.278 6.277v103.134c0 3.467-2.811 6.278-6.278 6.278h47.864c3.467 0 6.278-2.81 6.278-6.278v-103.133c0-3.467-2.811-6.278-6.278-6.278z" fill="#6700ee" data-original="#6354b1" class=""/><path d="m442.316 55.533h-42.978c-3.467 0-6.278-2.811-6.278-6.278v-42.977c0-3.467 2.811-6.278 6.278-6.278h42.978c3.467 0 6.278 2.811 6.278 6.278v42.978c0 3.467-2.811 6.277-6.278 6.277z" fill="#d2c5ff" data-original="#fe7ab6" class=""/><path d="m442.316 0h-28.739c3.467 0 6.278 2.811 6.278 6.278v42.978c0 3.467-2.811 6.278-6.278 6.278h28.739c3.467 0 6.278-2.811 6.278-6.278v-42.978c0-3.467-2.811-6.278-6.278-6.278z" fill="#d2c5ff" data-original="#fe5ca7" class=""/><g><path d="m86.783 512h-63.629c-4.204 0-7.611-3.407-7.611-7.612s3.408-7.611 7.611-7.611h63.629c4.204 0 7.611 3.407 7.611 7.611s-3.407 7.612-7.611 7.612z" fill="#ff64cb" data-original="#ffface" class=""/></g><g><path d="m488.846 227.845h-38.591c-4.204 0-7.612-3.407-7.612-7.611s3.408-7.611 7.612-7.611h38.591c4.204 0 7.611 3.407 7.611 7.611s-3.407 7.611-7.611 7.611z" fill="#00f7ff" data-original="#75cdd5" class=""/></g></g></g></svg>
