<svg width="501" height="498" viewBox="0 0 501 498" fill="none" xmlns="http://www.w3.org/2000/svg">
<g filter="url(#filter0_d_11_18)">
<circle cx="245" cy="245" r="245" fill="#38195B"/>
<path d="M306.754 234.635H338.185L333.069 205.458H306.754C302.368 205.458 299.444 202.54 299.444 198.164C299.444 193.787 302.368 190.87 306.754 190.87H330.145L325.028 163.152C324.297 159.505 326.49 155.128 330.876 154.399C330.876 154.399 330.876 154.399 331.607 154.399C335.262 153.67 339.647 155.858 340.378 159.505V160.234L345.495 190.87H374.003L368.886 163.152C368.155 159.505 370.348 155.128 374.734 154.399C374.734 154.399 374.734 154.399 375.465 154.399C379.12 153.67 383.505 155.858 384.236 159.505V160.234L389.353 190.87H423.709C428.094 190.87 431.018 193.787 431.018 198.164C431.018 202.54 428.094 205.458 423.709 205.458H392.277L397.394 234.635H423.709C428.094 234.635 431.018 237.552 431.018 241.929C431.018 246.305 428.094 249.223 423.709 249.223H400.318L405.434 276.941C406.165 280.588 403.973 284.964 399.587 285.694H398.856C395.201 286.423 390.815 284.235 390.084 280.588V279.858L384.967 249.223H356.46L361.576 276.941C362.307 280.588 360.114 284.964 355.729 285.694H354.998C351.343 286.423 346.957 284.235 346.226 280.588V279.858L340.378 249.223H306.754C302.368 249.223 299.444 246.305 299.444 241.929C299.444 237.552 302.368 234.635 306.754 234.635ZM382.044 234.635L376.927 205.458H348.419L353.536 234.635H382.044Z" fill="#D3BDEC"/>
<path d="M234.806 362.963C325.105 362.963 337.94 281.375 339.493 278.833L280.276 260.762C278.218 265.108 276.867 309.794 234.336 309.794C201.504 309.794 184.856 286.011 184.856 239.096C184.856 193.997 201.819 171.132 235.283 171.132C275.017 171.132 277.586 208.064 278.58 209.818L339.065 195.904C337.505 193.523 325.87 117.963 237.638 117.963C166.617 117.963 122.5 165.952 122.5 242.432C122.5 314.238 167.634 362.963 234.806 362.963Z" fill="#CCF381"/>
</g>
<defs>
<filter id="filter0_d_11_18" x="0" y="0" width="501" height="498" filterUnits="userSpaceOnUse" color-interpolation-filters="sRGB">
<feFlood flood-opacity="0" result="BackgroundImageFix"/>
<feColorMatrix in="SourceAlpha" type="matrix" values="0 0 0 0 0 0 0 0 0 0 0 0 0 0 0 0 0 0 127 0" result="hardAlpha"/>
<feOffset dx="7" dy="4"/>
<feGaussianBlur stdDeviation="2"/>
<feComposite in2="hardAlpha" operator="out"/>
<feColorMatrix type="matrix" values="0 0 0 0 0 0 0 0 0 0 0 0 0 0 0 0 0 0 0.25 0"/>
<feBlend mode="normal" in2="BackgroundImageFix" result="effect1_dropShadow_11_18"/>
<feBlend mode="normal" in="SourceGraphic" in2="effect1_dropShadow_11_18" result="shape"/>
</filter>
</defs>
</svg>
