<svg xmlns="http://www.w3.org/2000/svg" xmlns:xlink="http://www.w3.org/1999/xlink" width="512" zoomAndPan="magnify" viewBox="0 0 384 383.999986" height="512" preserveAspectRatio="xMidYMid meet" version="1.0"><defs><clipPath id="7bfe39692b"><path d="M 147 282.472656 L 187 282.472656 L 187 362.949219 L 147 362.949219 Z M 147 282.472656 " clip-rule="nonzero"/></clipPath><clipPath id="a243528ab9"><path d="M 28.433594 167 L 74 167 L 74 223 L 28.433594 223 Z M 28.433594 167 " clip-rule="nonzero"/></clipPath><clipPath id="5010fbd2de"><path d="M 200 20.949219 L 355.3125 20.949219 L 355.3125 147.222656 L 200 147.222656 Z M 200 20.949219 " clip-rule="nonzero"/></clipPath><clipPath id="7ae1f3933c"><path d="M 202 20.949219 L 355.3125 20.949219 L 355.3125 145.539062 L 202 145.539062 Z M 202 20.949219 " clip-rule="nonzero"/></clipPath></defs><path fill="#cc770d" d="M 240.8125 245.765625 C 240.8125 245.765625 221.652344 238.019531 206.164062 249.433594 C 190.675781 260.847656 199.234375 265.742188 185.785156 269.816406 C 172.335938 273.894531 162.550781 270.222656 142.175781 274.707031 C 121.792969 279.191406 110.789062 282.863281 104.269531 275.117188 C 97.746094 267.371094 85.519531 274.300781 79.8125 288.566406 C 74.105469 302.835938 76.550781 228.234375 75.328125 222.9375 C 74.105469 217.640625 114.863281 206.632812 141.359375 199.292969 C 167.851562 191.957031 202.496094 196.441406 202.496094 196.441406 C 202.496094 196.441406 214.726562 219.269531 240.8125 245.765625 " fill-opacity="1" fill-rule="evenodd"/><path fill="#fab60a" d="M 204.714844 196.320312 C 204.714844 196.320312 232.488281 235.417969 250.625 248.234375 C 250.625 248.234375 260.296875 265.460938 252.042969 277.652344 C 236.917969 249.609375 216.039062 228.574219 199.511719 197.421875 L 204.714844 196.320312 " fill-opacity="1" fill-rule="evenodd"/><path fill="#fab60a" d="M 77.859375 226.136719 C 77.859375 226.136719 77.835938 263.261719 69.925781 295.445312 C 69.925781 295.445312 70.894531 305.089844 89.03125 315.761719 C 89.03125 315.761719 82.144531 277.964844 85.195312 229.34375 L 82.636719 221.929688 L 77.859375 226.136719 " fill-opacity="1" fill-rule="evenodd"/><path fill="#fcd2a7" d="M 113.070312 173.128906 C 113.339844 176.472656 113.789062 184.460938 113.855469 187.734375 C 106.550781 190.617188 103.722656 193.386719 100.613281 196.488281 C 100.613281 196.488281 102.984375 198.859375 106.5 200.691406 C 110.011719 202.527344 126.0625 218.476562 138.394531 215.726562 C 150.722656 212.972656 160.199219 199.113281 163.050781 190.859375 C 165.90625 182.601562 165.292969 179.851562 165.292969 179.851562 C 165.292969 179.851562 158.925781 178.933594 155.257812 179.648438 L 151.894531 168.386719 C 139.84375 169.5 125.117188 172.015625 113.070312 173.128906 " fill-opacity="1" fill-rule="evenodd"/><path fill="#d88969" d="M 116.734375 172.71875 C 116.972656 175.621094 116.726562 184.230469 116.699219 188.601562 C 116.699219 189.003906 116.859375 191.621094 116.964844 193.75 C 117.132812 197.183594 117.0625 197.792969 115.539062 194.238281 C 114.667969 192.207031 114.816406 191.039062 114.324219 191.238281 C 108.671875 193.507812 106.632812 194.515625 101.9375 197.203125 C 101.9375 197.203125 102.984375 198.859375 106.5 200.691406 C 110.011719 202.527344 126.0625 218.476562 138.394531 215.726562 C 150.722656 212.972656 160.199219 199.113281 163.050781 190.859375 C 165.90625 182.601562 164.988281 182.398438 164.988281 182.398438 C 164.988281 182.398438 159.519531 182.527344 155.667969 183.140625 C 155.460938 183.175781 155.445312 184.371094 155.398438 185.496094 C 155.3125 187.703125 155.167969 191.664062 154.597656 187.664062 C 154.113281 184.253906 153.410156 180.855469 152.234375 177.605469 L 149.144531 168.386719 C 137.09375 169.5 128.785156 171.605469 116.734375 172.71875 " fill-opacity="1" fill-rule="evenodd"/><path fill="#d88969" d="M 113.070312 173.128906 C 113.242188 175.277344 113.488281 179.347656 113.660156 182.847656 C 114.433594 185.945312 122.714844 192.085938 124.453125 193.351562 C 126.875 195.117188 130.601562 196.417969 133.535156 196.066406 C 141.175781 195.148438 144.132812 194.128906 146.679688 191.273438 C 148.136719 189.640625 150.40625 185.855469 152.191406 181.757812 C 153.777344 178.140625 153.902344 177.015625 153.867188 174.988281 L 151.894531 168.386719 C 139.84375 169.5 125.117188 172.015625 113.070312 173.128906 " fill-opacity="1" fill-rule="evenodd"/><path fill="#a65342" d="M 116.714844 186.964844 C 119.507812 189.707031 123.335938 192.539062 124.453125 193.351562 C 126.875 195.117188 130.601562 196.417969 133.535156 196.066406 C 141.175781 195.148438 144.132812 194.128906 146.679688 191.273438 C 148.136719 189.640625 150.40625 185.855469 152.191406 181.757812 C 152.507812 181.042969 152.765625 180.417969 152.972656 179.871094 C 152.75 179.109375 152.503906 178.351562 152.234375 177.605469 L 149.230469 168.652344 C 141.5625 169.453125 133.019531 170.714844 124.867188 171.773438 C 123.195312 172.003906 121.472656 172.226562 119.671875 172.421875 C 118.683594 172.539062 117.703125 172.652344 116.738281 172.753906 C 116.945312 175.359375 116.777344 182.371094 116.714844 186.964844 " fill-opacity="1" fill-rule="evenodd"/><path fill="#63494a" d="M 148.726562 308.570312 C 148.726562 308.570312 144.394531 307.957031 142.972656 310.8125 C 142.320312 312.113281 142.148438 313.582031 142.152344 315.09375 C 142.195312 322.714844 143.503906 322.273438 140.28125 329.933594 C 139.144531 332.632812 139.140625 336.117188 139.820312 339.894531 C 141.0625 346.8125 144.554688 353.621094 146.589844 354.328125 C 148.929688 355.144531 152.957031 354.839844 155.554688 346.175781 C 158.152344 337.515625 153.671875 308.519531 148.726562 308.570312 " fill-opacity="1" fill-rule="evenodd"/><path fill="#220c09" d="M 148.445312 310.199219 C 145.566406 309.964844 144.183594 312.292969 144.191406 314.507812 C 144.230469 322.125 146.917969 321 143.695312 328.660156 C 142.558594 331.359375 141.335938 334.589844 142.011719 338.367188 C 143.253906 345.285156 145.269531 350.71875 147.300781 351.425781 C 149.644531 352.238281 152.039062 352.238281 154.636719 343.578125 C 157.238281 334.914062 153.390625 310.152344 148.445312 310.199219 " fill-opacity="1" fill-rule="evenodd"/><path fill="#fcd29b" d="M 150.230469 157.433594 C 150.230469 157.433594 152.089844 155.25 153.800781 156.992188 C 155.519531 158.734375 156.042969 170.058594 151.25 168.378906 C 148.816406 163.152344 149.421875 158.410156 150.230469 157.433594 " fill-opacity="1" fill-rule="evenodd"/><path fill="#fcd29b" d="M 111.601562 164.332031 C 111.601562 164.332031 109.09375 162.921875 108.082031 165.15625 C 107.066406 167.382812 110.5 178.191406 114.4375 174.949219 C 114.917969 169.203125 112.707031 164.964844 111.601562 164.332031 " fill-opacity="1" fill-rule="evenodd"/><path fill="#fcd2a7" d="M 135.878906 190.835938 C 138.398438 190.386719 141.507812 189.632812 143.820312 188.539062 C 144.875 188.027344 145.726562 187.1875 146.496094 186.316406 C 147.761719 184.863281 149.035156 182.960938 150.542969 180.992188 C 153.386719 177.285156 153.332031 175.367188 153.09375 174.488281 C 148.605469 158.039062 148.148438 143.65625 148.148438 143.65625 C 148.148438 143.65625 148.300781 136.210938 139.785156 135.777344 C 131.265625 135.347656 126.210938 136.152344 126.210938 136.152344 C 126.210938 136.152344 121.125 137.15625 113.273438 140.511719 C 105.421875 143.867188 108.144531 150.796875 108.144531 150.796875 C 108.144531 150.796875 112.695312 164.449219 114.171875 181.4375 C 114.253906 182.34375 114.863281 184.160156 118.820312 186.660156 C 122.351562 188.886719 125.195312 191.179688 127.746094 191.410156 C 130.292969 191.636719 133.359375 191.285156 135.878906 190.835938 " fill-opacity="1" fill-rule="evenodd"/><path fill="#ffffff" d="M 143.632812 150.140625 L 115.152344 155.226562 L 117.171875 166.535156 L 145.652344 161.449219 L 143.632812 150.140625 " fill-opacity="1" fill-rule="evenodd"/><path fill="#220c09" d="M 138.414062 154.496094 C 137.113281 154.726562 136.246094 155.96875 136.480469 157.269531 C 136.710938 158.570312 137.953125 159.4375 139.253906 159.207031 C 140.554688 158.972656 141.421875 157.730469 141.191406 156.429688 C 140.957031 155.128906 139.714844 154.265625 138.414062 154.496094 " fill-opacity="1" fill-rule="evenodd"/><path fill="#220c09" d="M 121.253906 157.558594 C 119.953125 157.792969 119.089844 159.035156 119.320312 160.335938 C 119.554688 161.632812 120.796875 162.5 122.09375 162.269531 C 123.394531 162.035156 124.261719 160.792969 124.027344 159.492188 C 123.796875 158.191406 122.554688 157.328125 121.253906 157.558594 " fill-opacity="1" fill-rule="evenodd"/><path fill="#d88969" d="M 135.523438 155.535156 C 137.664062 154.808594 140.746094 154.644531 141.664062 154.972656 C 142.441406 155.25 143.511719 156.363281 144.214844 157.53125 C 140.890625 158.507812 137.703125 159.0625 134.601562 159.394531 C 134.566406 158.527344 134.945312 155.726562 135.523438 155.535156 Z M 124.324219 157.53125 C 124.933594 157.515625 126.257812 160.011719 126.527344 160.835938 C 123.5 161.597656 120.316406 162.179688 116.855469 162.417969 C 117.117188 161.074219 117.734375 159.660156 118.367188 159.128906 C 119.117188 158.507812 122.066406 157.59375 124.324219 157.53125 Z M 143.820312 188.539062 C 144.757812 188.09375 145.625 187.3125 146.496094 186.316406 C 148.101562 181.367188 148.347656 178.886719 146.734375 173.28125 C 145.210938 168.019531 148.230469 164.066406 147.273438 159.886719 C 146.671875 157.257812 145.859375 157.101562 144.992188 156.027344 C 143.820312 154.585938 146.996094 153.253906 146.109375 150.417969 C 145.734375 149.21875 145.5625 147.949219 144.5625 146.664062 C 143.257812 144.988281 145.5 140.710938 141.039062 138.4375 C 128.921875 134.214844 129.167969 137.671875 120.035156 139.550781 C 112.875 141.023438 109.699219 146.894531 111.632812 150.90625 C 112.300781 152.289062 111.261719 154.140625 112.324219 155.933594 C 113.265625 157.515625 116.164062 157.746094 115.878906 159.859375 C 115.820312 160.296875 115.695312 160.84375 115.542969 161.46875 C 115 163.699219 114.214844 166.835938 115.792969 168.683594 C 116.847656 169.917969 117.535156 172.210938 117.832031 174.050781 C 118.417969 177.710938 119.953125 177.765625 120.808594 182.496094 C 121.53125 186.492188 125.195312 191.179688 127.746094 191.410156 C 132.070312 191.792969 139.796875 190.449219 143.820312 188.539062 " fill-opacity="1" fill-rule="evenodd"/><path fill="#a65342" d="M 127.339844 168.914062 C 126.78125 168.523438 125.113281 166.320312 127.914062 164.742188 C 128.070312 163.835938 128.425781 163.085938 129.242188 162.742188 C 129.566406 160.308594 128.339844 153.703125 127.167969 152.886719 L 125.296875 155.5625 C 125.296875 155.5625 117.980469 153.734375 116.132812 154.066406 C 114.671875 154.324219 113.007812 155.042969 112.425781 155.792969 C 112.15625 156.136719 112.238281 157.28125 112.375 157.875 C 112.640625 159.042969 113.378906 160.519531 115.542969 161.46875 C 116.539062 157.820312 121.128906 156.6875 124.21875 157.320312 C 124.800781 157.402344 125.128906 158.222656 125.371094 158.597656 C 125.789062 158.789062 126.714844 159.253906 127.09375 160.285156 C 127.472656 161.320312 127.535156 163.710938 126.894531 164.511719 C 125.535156 165.535156 125.023438 168.8125 127.339844 168.914062 " fill-opacity="1" fill-rule="evenodd"/><path fill="#a65342" d="M 136.621094 167.253906 C 137.007812 166.695312 137.808594 164.054688 134.640625 163.542969 C 134.183594 162.742188 133.589844 162.164062 132.703125 162.125 C 131.558594 159.953125 130.425781 153.332031 131.242188 152.15625 L 133.917969 154.023438 C 133.917969 154.023438 140.140625 149.777344 141.988281 149.449219 C 143.441406 149.1875 145.25 149.285156 146.054688 149.789062 C 146.429688 150.019531 146.742188 151.121094 146.824219 151.722656 C 146.972656 152.914062 146.796875 154.554688 145.097656 156.191406 C 142.902344 153.113281 138.214844 153.636719 135.535156 155.304688 C 135.019531 155.578125 135 156.460938 134.898438 156.894531 C 134.574219 157.222656 133.867188 157.976562 133.867188 159.078125 C 133.867188 160.179688 134.640625 162.441406 135.515625 162.972656 C 137.140625 163.464844 138.757812 166.359375 136.621094 167.253906 " fill-opacity="1" fill-rule="evenodd"/><path fill="#583c3e" d="M 124.957031 129.644531 C 139.308594 127.179688 145.296875 132.101562 149.746094 137.417969 C 150.671875 138.523438 149.734375 145.246094 151.398438 162.398438 L 149.402344 162.753906 C 149.402344 162.753906 149.8125 157.703125 148.632812 152.15625 C 147.457031 146.609375 146.523438 147.164062 147.074219 145.507812 C 147.617188 143.847656 148.871094 140.890625 144.585938 138.921875 C 140.304688 136.953125 134.980469 142.785156 127.773438 144.363281 C 120.457031 145.375 113.230469 141.789062 109.886719 145.117188 C 106.546875 148.445312 108.746094 150.789062 109.832031 152.152344 C 110.917969 153.519531 109.851562 153.320312 110.667969 158.933594 C 111.480469 164.546875 113.613281 169.144531 113.613281 169.144531 L 111.617188 169.5 C 107.242188 152.832031 104.035156 146.851562 104.519531 145.492188 C 106.863281 138.960938 110.628906 132.296875 124.957031 129.644531 " fill-opacity="1" fill-rule="evenodd"/><path fill="#220c09" d="M 134.171875 154.910156 C 132.863281 153.949219 132.503906 153.542969 131.1875 152.113281 C 132.757812 152.945312 137.179688 151.238281 141.714844 147.929688 C 143.332031 148.230469 144.625 148.636719 146.6875 150.078125 C 143.34375 148.644531 137.84375 152.964844 134.171875 154.910156 " fill-opacity="1" fill-rule="evenodd"/><path fill="#220c09" d="M 134.898438 156.910156 C 134.898438 156.910156 135.347656 155.847656 135.566406 155.738281 C 135.785156 155.625 139.207031 154.671875 141.550781 155.085938 C 141.550781 155.085938 142.839844 155.644531 144.214844 157.53125 C 143.695312 156.597656 143.085938 155.472656 141.894531 154.679688 C 141.894531 154.679688 140.464844 153.910156 135.394531 155.179688 C 135.0625 155.277344 134.882812 156.394531 134.898438 156.910156 " fill-opacity="1" fill-rule="evenodd"/><path fill="#220c09" d="M 125.375 156.480469 C 126.269531 155.128906 126.464844 154.621094 127.210938 152.820312 C 126.023438 154.148438 121.28125 154.074219 115.882812 152.542969 C 114.46875 153.382812 113.394531 154.210938 111.957031 156.28125 C 114.601562 153.777344 121.257812 155.929688 125.375 156.480469 " fill-opacity="1" fill-rule="evenodd"/><path fill="#220c09" d="M 125.386719 158.609375 C 125.386719 158.609375 124.597656 157.769531 124.355469 157.738281 C 124.109375 157.710938 120.566406 158 118.507812 159.199219 C 118.507812 159.199219 117.496094 160.167969 116.859375 162.414062 C 117.019531 161.359375 117.207031 160.09375 118.050781 158.941406 C 118.050781 158.941406 119.125 157.71875 124.324219 157.15625 C 124.667969 157.132812 125.222656 158.117188 125.386719 158.609375 " fill-opacity="1" fill-rule="evenodd"/><path fill="#a65342" d="M 133.535156 171.207031 C 132.902344 171.222656 132.488281 171.742188 131.820312 171.804688 C 131.496094 171.835938 130.742188 171.554688 130.410156 171.589844 C 127.925781 171.859375 124.476562 172.953125 121.339844 172.546875 L 121.246094 172.800781 C 124.457031 173.652344 128.511719 173.964844 131.355469 173.699219 C 135.699219 173.285156 139.261719 172.007812 140.910156 171.234375 C 136.917969 171.683594 135.574219 171.160156 133.535156 171.207031 " fill-opacity="1" fill-rule="evenodd"/><path fill="#220c09" d="M 122.09375 171.945312 C 121.398438 172.304688 121.195312 172.453125 121.195312 174.308594 C 121.195312 174.308594 120.917969 172.988281 121.167969 172.464844 C 121.421875 171.933594 122.09375 171.945312 122.09375 171.945312 " fill-opacity="1" fill-rule="evenodd"/><path fill="#a65342" d="M 136.347656 175.285156 C 136.347656 175.285156 132.378906 176.582031 127.367188 176.398438 C 127.367188 176.398438 126.191406 177.195312 128.984375 178.070312 C 131.773438 178.941406 131.71875 178.070312 134.246094 178.011719 C 136.773438 177.953125 139.101562 174.304688 136.347656 175.285156 " fill-opacity="1" fill-rule="evenodd"/><path fill="#220c09" d="M 121.25 172.550781 L 121.246094 172.800781 C 124.457031 173.652344 128.511719 173.964844 131.355469 173.699219 C 135.699219 173.285156 139.261719 172.007812 140.910156 171.234375 C 138.171875 172.042969 134.652344 173.066406 131.324219 173.378906 C 127.773438 173.714844 123.453125 173.140625 121.25 172.550781 " fill-opacity="1" fill-rule="evenodd"/><path fill="#ffffff" d="M 137.84375 155.941406 C 137.484375 156.003906 137.246094 156.347656 137.308594 156.707031 C 137.375 157.066406 137.71875 157.304688 138.078125 157.242188 C 138.433594 157.175781 138.671875 156.832031 138.609375 156.476562 C 138.546875 156.117188 138.203125 155.878906 137.84375 155.941406 " fill-opacity="1" fill-rule="evenodd"/><path fill="#ffffff" d="M 120.621094 159.015625 C 120.261719 159.082031 120.023438 159.421875 120.085938 159.78125 C 120.152344 160.140625 120.492188 160.378906 120.851562 160.316406 C 121.210938 160.25 121.449219 159.910156 121.386719 159.550781 C 121.320312 159.191406 120.976562 158.953125 120.621094 159.015625 " fill-opacity="1" fill-rule="evenodd"/><path fill="#220c09" d="M 125.734375 131.902344 C 137.621094 129.808594 142.589844 133.980469 142.695312 136.371094 C 142.726562 137.054688 142.449219 138.355469 142.0625 138.558594 C 138.242188 138.992188 133.628906 143.082031 127.773438 144.363281 C 121.601562 145.21875 115.488281 142.796875 111.726562 144.019531 C 111.28125 143.621094 110.722656 142.625 110.527344 141.949219 C 109.820312 139.460938 114.527344 133.878906 125.734375 131.902344 " fill-opacity="1" fill-rule="evenodd"/><path fill="#a65342" d="M 133.746094 166.351562 C 134.53125 166.019531 135.96875 165.660156 136.28125 166.660156 C 136.398438 167.050781 136.210938 167.3125 136.015625 167.46875 C 135.71875 167.71875 135.210938 167.8125 134.703125 168.011719 C 133.839844 168.359375 133.078125 169.347656 132.15625 169.523438 C 131.234375 169.703125 130.4375 169.171875 129.613281 169.054688 C 128.78125 168.9375 127.574219 169.152344 127.355469 168.414062 C 127.136719 167.675781 127.898438 167.101562 129.375 167.160156 C 130.851562 167.21875 131.015625 167.5625 131.835938 167.382812 C 132.632812 167.203125 132.960938 166.679688 133.746094 166.351562 " fill-opacity="1" fill-rule="evenodd"/><path fill="#612726" d="M 132.761719 167.316406 C 133.71875 166.609375 135.804688 165.929688 136.027344 166.847656 C 136.253906 167.769531 133.253906 167.859375 132.761719 167.316406 " fill-opacity="1" fill-rule="evenodd"/><path fill="#612726" d="M 130.890625 167.648438 C 129.753906 167.316406 127.558594 167.402344 127.664062 168.34375 C 127.773438 169.28125 130.621094 168.332031 130.890625 167.648438 " fill-opacity="1" fill-rule="evenodd"/><path fill="#a65342" d="M 109.953125 189.460938 C 112.304688 190.730469 114.152344 195.140625 115.539062 200.128906 C 116.359375 202.929688 116.472656 202.964844 118.996094 204.164062 C 121.851562 205.523438 124.125 206.226562 127.714844 206.144531 C 130.925781 206.066406 131.992188 206.652344 134.082031 207.722656 C 136.171875 208.792969 136.628906 208.488281 139.636719 207.773438 C 141.113281 207.421875 142.664062 206.386719 143.691406 205.332031 C 144.75 204.246094 146.035156 203.171875 146.613281 202.832031 C 147.996094 202.011719 148.617188 202.113281 150.273438 200.195312 C 152.925781 197.125 155.503906 193.300781 155.351562 190.933594 C 155.21875 188.824219 154.71875 183.105469 156.21875 179.503906 C 159.9375 179.078125 165.292969 179.851562 165.292969 179.851562 C 165.292969 179.851562 165.90625 182.601562 163.050781 190.859375 C 160.199219 199.113281 150.722656 212.972656 138.394531 215.726562 C 126.0625 218.476562 110.011719 202.527344 106.5 200.691406 C 102.984375 198.859375 100.613281 196.488281 100.613281 196.488281 C 103.097656 194.007812 105.402344 191.746094 109.953125 189.460938 " fill-opacity="1" fill-rule="evenodd"/><path fill="#63494a" d="M 153.652344 354.246094 C 153.652344 354.246094 153.347656 349.949219 151.96875 348.128906 C 149.179688 345.34375 145.65625 339.011719 146.144531 335.128906 C 146.824219 329.738281 148.871094 330.144531 148.25 323.519531 C 146.136719 320.574219 145.347656 319.152344 146.359375 316 C 146.777344 314.699219 147.589844 313.558594 148.507812 313.53125 C 150.289062 313.480469 154.363281 319.289062 156.605469 323.671875 C 158.847656 328.054688 158.492188 354.09375 153.652344 354.246094 " fill-opacity="1" fill-rule="evenodd"/><path fill="#220c09" d="M 153.652344 354.246094 C 153.652344 354.246094 154.945312 349.617188 154.042969 347.691406 C 150.921875 343.574219 147.65625 338.746094 148.148438 334.867188 C 148.828125 329.472656 149.632812 328.71875 148.25 323.519531 C 145.910156 320.574219 145.144531 319.125 146.15625 315.976562 C 146.574219 314.671875 147.539062 313.277344 148.453125 313.253906 C 150.238281 313.203125 154.363281 319.289062 156.605469 323.671875 C 158.847656 328.054688 158.492188 354.09375 153.652344 354.246094 " fill-opacity="1" fill-rule="evenodd"/><path fill="#d80f46" d="M 151.96875 348.128906 C 151.96875 348.128906 152.691406 345.730469 154.679688 343.949219 L 153.082031 351.632812 C 153.082031 351.632812 152.914062 349.449219 151.96875 348.128906 " fill-opacity="1" fill-rule="evenodd"/><path fill="#d80f46" d="M 116.875 274.132812 C 116.429688 274.863281 110.027344 284.753906 110.941406 292.910156 C 111.859375 301.0625 120.21875 314.257812 124.394531 315.480469 C 128.574219 316.707031 131.730469 316.296875 136.316406 312.019531 C 140.902344 307.738281 141.921875 304.375 141.71875 301.519531 C 141.515625 298.667969 127.167969 284.53125 116.875 274.132812 " fill-opacity="1" fill-rule="evenodd"/><path fill="#780826" d="M 117.945312 278.007812 C 116.480469 284.289062 113.320312 290.554688 114.765625 296.882812 C 116.210938 303.210938 122.097656 312.984375 125.101562 313.796875 C 128.109375 314.613281 131.324219 315.480469 135.65625 311.050781 C 139.984375 306.617188 140.527344 303.941406 140.851562 301.519531 C 141.175781 299.097656 128.238281 288.402344 117.945312 278.007812 " fill-opacity="1" fill-rule="evenodd"/><g clip-path="url(#7bfe39692b)"><path fill="#d80f46" d="M 176.746094 282.792969 C 176.746094 282.792969 185.597656 302.910156 186.511719 312.589844 C 187.429688 322.269531 183.507812 339.851562 178.820312 350.753906 C 176.914062 355.1875 174.21875 358.085938 171.746094 360.296875 C 169.730469 362.101562 162.535156 363.453125 161.089844 362.78125 C 156.644531 360.71875 154.25 356.902344 153.535156 355.167969 C 152.824219 353.4375 152.90625 346.410156 153.234375 342.085938 C 153.5625 337.757812 153.203125 335.316406 153.445312 330.679688 C 153.445312 330.679688 149.472656 323.648438 148.65625 319.367188 C 147.84375 315.085938 146.417969 308.15625 147.332031 301.226562 C 148.253906 294.296875 171.382812 283.085938 176.746094 282.792969 " fill-opacity="1" fill-rule="evenodd"/></g><path fill="#780826" d="M 174.25 283.457031 C 174.25 283.457031 182.335938 304.945312 183.253906 314.628906 C 184.167969 324.308594 182.285156 337.507812 177.597656 348.410156 C 175.691406 352.84375 172.996094 355.742188 170.523438 357.953125 C 168.507812 359.757812 163.554688 360.804688 162.109375 360.128906 C 157.664062 358.070312 156.390625 355.472656 155.675781 353.742188 C 154.964844 352.011719 155.761719 345.695312 156.089844 341.371094 C 156.378906 337.535156 161.332031 316.203125 161.917969 303.636719 C 162.105469 299.5625 161.617188 299.222656 160.835938 302.738281 C 157.910156 315.871094 154.5625 326.679688 153.28125 323.707031 C 152.414062 321.695312 151.617188 319.566406 151.308594 317.9375 C 150.492188 313.660156 149.066406 306.21875 149.984375 299.289062 C 150.542969 295.042969 156.527344 292.597656 163.84375 288.828125 C 168.46875 286.445312 172.171875 283.570312 174.25 283.457031 " fill-opacity="1" fill-rule="evenodd"/><path fill="#d80f46" d="M 77.574219 223.355469 C 69.523438 205.339844 90.800781 191.296875 103.964844 196.65625 C 110.328125 199.246094 112.320312 200.425781 115.476562 203.890625 C 130.875 210.679688 144.6875 214.355469 156.644531 192.167969 C 156.039062 183.835938 160.179688 177.371094 166.378906 172.996094 C 170.988281 169.742188 179.402344 166.023438 188.03125 171.789062 C 196.921875 177.730469 200.359375 188.808594 195.671875 215.101562 C 191.390625 246.082031 185.433594 247.457031 175.242188 260.398438 C 174.734375 268.425781 173.730469 273.613281 176.183594 281.828125 C 171.164062 283.003906 166.484375 289.472656 155.953125 291.4375 C 144.765625 293.523438 128.523438 291.101562 115.910156 275.761719 C 117.648438 272.554688 116.867188 267.386719 116.699219 264.273438 C 116.699219 264.273438 101.058594 254.84375 96.167969 243.023438 C 91.277344 231.203125 87.097656 228.65625 77.574219 223.355469 " fill-opacity="1" fill-rule="evenodd"/><path fill="#780826" d="M 83.480469 228.859375 C 76.625 218.621094 78.75 202.757812 88.023438 198.417969 C 91.3125 196.878906 100.515625 195.25 103.964844 196.65625 C 110.328125 199.246094 112.320312 200.425781 115.476562 203.890625 C 130.875 210.679688 144.6875 214.355469 156.644531 192.167969 C 156.039062 183.835938 160.257812 181.066406 165.464844 175.542969 C 169.96875 170.761719 179.507812 169.691406 188.128906 175.457031 C 197.023438 181.398438 195.671875 186.972656 190.984375 213.265625 C 188.742188 241.191406 182.375 245.417969 172.183594 258.363281 C 171.671875 266.96875 170.90625 272.46875 173.761719 281.933594 C 174.128906 283.152344 163.597656 289.109375 162.835938 290.179688 C 159.984375 294.207031 156.976562 296.960938 149.539062 300.167969 C 149.539062 300.167969 145.683594 300.667969 142.015625 300.3125 C 138.347656 299.957031 136.800781 297.113281 130.074219 290.03125 C 128.488281 288.359375 117.09375 281.484375 118.25 278.871094 C 120.675781 273.375 120.207031 268.054688 119.402344 262.386719 C 119.402344 262.386719 101.976562 251.785156 97.085938 239.964844 C 92.195312 228.144531 93.011719 234.15625 83.480469 228.859375 " fill-opacity="1" fill-rule="evenodd"/><path fill="#3f0210" d="M 106.726562 256.734375 C 106.515625 256.542969 106.058594 256.121094 105.996094 256.066406 C 102.828125 253.125 99.628906 249.5625 97.453125 245.660156 C 99.179688 242.539062 101.527344 238.535156 104.089844 234.824219 C 111.476562 245.363281 106.605469 251.046875 106.726562 256.734375 " fill-opacity="1" fill-rule="evenodd"/><path fill="#fab60a" d="M 156.644531 192.167969 C 160.3125 185.191406 161.132812 181.71875 165.109375 177.183594 C 169.082031 172.648438 173.796875 167.945312 181.3125 169.023438 C 181.3125 169.023438 183.824219 169.476562 186.542969 170.882812 C 184.875 168.847656 179 165.871094 174.484375 166.417969 C 172.246094 166.691406 171.09375 167.273438 170.152344 169.898438 C 166.558594 170.050781 164.398438 170.566406 162.84375 171.609375 C 161.289062 172.65625 161.664062 173.59375 161.179688 175.835938 C 160.261719 175.835938 158.253906 175.855469 157.238281 177.4375 C 156.941406 177.890625 156.507812 179.484375 156.292969 180.640625 C 155.757812 183.496094 155.613281 188.050781 156.644531 192.167969 " fill-opacity="1" fill-rule="evenodd"/><path fill="#cc770d" d="M 156.644531 192.167969 C 160.3125 185.191406 161.132812 181.71875 165.109375 177.183594 C 169.082031 172.648438 173.796875 167.945312 181.3125 169.023438 C 181.640625 168.988281 181.15625 168.882812 180.949219 168.777344 C 179.457031 168.289062 176.855469 167.632812 175.09375 167.84375 C 173.359375 168.054688 172.398438 168.179688 171.617188 169.449219 C 171.386719 169.816406 170.882812 170.761719 168.878906 172.636719 C 169.601562 171.371094 169.898438 170.925781 169.601562 170.945312 C 167.046875 171.109375 166.015625 171.574219 164.679688 172.476562 C 163.851562 173.03125 163.214844 173.707031 163 174.441406 C 162.003906 177.804688 162.019531 179.074219 160.464844 182.105469 C 160.765625 178.179688 161.175781 176.980469 161.019531 177.011719 C 159.75 177.246094 158.675781 177.769531 158 178.8125 C 156.699219 180.828125 156.558594 186.070312 156.644531 192.167969 " fill-opacity="1" fill-rule="evenodd"/><path fill="#fab60a" d="M 115.476562 203.890625 C 113.148438 195.445312 111.523438 188.242188 104.980469 188.601562 C 101.90625 188.773438 99.699219 191.351562 98.324219 193.859375 C 98.324219 193.859375 89.710938 192.386719 86.785156 194.292969 C 84.84375 195.554688 83.578125 198.699219 83.578125 198.699219 C 83.578125 198.699219 77.285156 200.789062 76.675781 203.128906 C 76.0625 205.476562 76.507812 207.246094 76.898438 209.46875 C 76.898438 209.46875 79.054688 204.496094 83.792969 201.257812 C 94.058594 194.246094 105.71875 198.757812 115.476562 203.890625 " fill-opacity="1" fill-rule="evenodd"/><path fill="#cc770d" d="M 115.476562 203.890625 C 111.917969 195.65625 108.183594 190.789062 104.664062 191.464844 C 103.863281 191.617188 101.921875 191.914062 100.566406 194.0625 C 100.269531 194.535156 105.984375 194.847656 109.664062 198.542969 C 101.96875 195.488281 90.167969 193.941406 87.601562 195.515625 C 86.667969 196.085938 86.105469 196.878906 85.769531 197.550781 C 85.398438 198.300781 90.359375 195.316406 95.957031 196.992188 C 91.0625 196.429688 80.316406 199.628906 78.457031 203.183594 C 77.589844 204.839844 77.222656 206.179688 76.898438 209.46875 C 76.898438 209.46875 79.054688 204.496094 83.792969 201.257812 C 94.058594 194.246094 105.71875 198.757812 115.476562 203.890625 " fill-opacity="1" fill-rule="evenodd"/><g clip-path="url(#a243528ab9)"><path fill="#fcd2a7" d="M 54.980469 211.753906 C 54.980469 211.753906 59.207031 207.898438 62.507812 201.4375 C 64.695312 197.15625 65.410156 196.132812 66.734375 193.851562 C 67.4375 192.640625 73.519531 181.488281 73.519531 181.460938 C 73.519531 180.71875 73.519531 176.898438 72.320312 175.359375 C 71.125 173.816406 66.445312 172.21875 65.304688 172.277344 C 64.164062 172.335938 62.054688 173.757812 62.054688 173.757812 C 62.054688 173.757812 62.28125 170.453125 61.710938 169.824219 C 59.730469 167.644531 48.609375 167.191406 45.910156 167.140625 C 45.511719 167.132812 42.089844 166.96875 40.664062 167.140625 C 39.238281 167.3125 39.664062 169.371094 38.15625 170.964844 C 37.042969 172.136719 35.574219 172.179688 33.988281 173.417969 C 33.226562 174.015625 33.933594 175.414062 33.875 177.46875 C 33.820312 179.523438 30.625 181.519531 29.882812 182.832031 C 29.882812 182.832031 29.238281 183.441406 30.011719 185.296875 C 30.78125 187.152344 31.082031 189.105469 30.28125 190.988281 C 29.484375 192.871094 28.570312 194.238281 28.914062 195.835938 C 29.253906 197.433594 29.652344 198.6875 30.738281 200.800781 C 31.820312 202.910156 35.257812 210.828125 36.957031 216.488281 C 40.140625 227.113281 51.152344 221.027344 54.980469 211.753906 " fill-opacity="1" fill-rule="evenodd"/></g><path fill="#d88969" d="M 52.550781 213.519531 C 52.550781 213.519531 58.523438 205.433594 61.207031 198.835938 C 62.652344 195.285156 72.421875 184.539062 72.421875 181.734375 C 72.421875 180.34375 71.425781 178.675781 70.472656 177.925781 C 69.914062 177.480469 69 177.101562 68.980469 179.773438 C 68.96875 181.976562 66.644531 184.324219 65.472656 184.484375 C 62.957031 184.835938 60.324219 183.371094 58.769531 182.359375 C 57.566406 181.578125 57.011719 180.527344 57.011719 180.527344 C 57.398438 178.339844 61.078125 175.042969 61.125 174.601562 C 61.246094 173.464844 61.230469 171.574219 60.855469 171.089844 C 59.851562 169.785156 58.742188 172.898438 57.871094 172.765625 C 53.628906 172.121094 50.03125 171.140625 42.769531 170.855469 C 41.335938 170.800781 40.683594 171.535156 42.558594 172.21875 C 44.769531 173.03125 54.960938 172.804688 55.605469 174.875 C 56.066406 176.347656 52.597656 178.480469 52.273438 178.683594 C 51.394531 179.238281 42.316406 176.589844 40.046875 176.328125 C 39.085938 176.214844 34.652344 175.894531 34.59375 177.945312 C 34.5625 179.121094 35.617188 179.242188 38.28125 179.949219 C 38.628906 180.042969 48.511719 181.910156 52.925781 182.796875 C 54.914062 183.199219 53.359375 187.972656 51.277344 188.335938 C 48.800781 188.773438 43.257812 185.183594 36.371094 185.179688 C 33.710938 185.179688 31.898438 185.675781 32.070312 186.789062 C 32.261719 188.003906 31.660156 189.667969 32.421875 189.386719 C 34.03125 188.796875 33.898438 188.324219 36.527344 188.664062 C 41.6875 189.335938 49.855469 191.726562 50.03125 192.21875 C 50.386719 193.234375 49.082031 198.460938 47.484375 198.945312 C 45.988281 199.402344 38.695312 198.40625 35.542969 198.671875 C 33.558594 198.839844 32.546875 199.292969 33.304688 200.835938 C 34.351562 202.964844 38.324219 212.566406 40.019531 218.230469 C 43.203125 228.851562 48.722656 222.789062 52.550781 213.519531 " fill-opacity="1" fill-rule="evenodd"/><path fill="#d80f46" d="M 83.929688 215.492188 C 74.351562 214.066406 62.847656 221.050781 64.191406 231.152344 C 62.253906 229.097656 54.410156 221.964844 54.980469 211.753906 C 54.980469 211.753906 52.871094 213.867188 49.734375 214.664062 C 49.734375 214.664062 47.964844 218.085938 43.972656 218.65625 C 39.976562 219.226562 36.957031 216.488281 36.957031 216.488281 C 39.851562 231.859375 38.785156 252.886719 45.199219 262.667969 C 51.140625 271.742188 57.335938 275.800781 62.855469 279.640625 C 64.148438 280.542969 66.730469 282.78125 67.703125 284.433594 C 69.90625 284.636719 75.230469 284.226562 78.042969 283.460938 C 81.441406 281.261719 82.308594 279.644531 84.96875 274.488281 C 89.496094 265.714844 93.777344 267.679688 101.066406 257.582031 C 109.347656 246.109375 106.15625 218.792969 83.929688 215.492188 " fill-opacity="1" fill-rule="evenodd"/><path fill="#780826" d="M 70.507812 236.015625 C 77.292969 241.511719 81.539062 246.5 81.050781 254.996094 C 74.089844 235.316406 60.230469 243.128906 52.550781 213.519531 C 51.761719 213.960938 50.808594 214.390625 49.734375 214.664062 C 49.734375 214.664062 47.964844 218.085938 43.972656 218.65625 C 42.484375 218.867188 41.132812 218.625 40.019531 218.230469 C 43.628906 235.289062 42.988281 246.726562 47.824219 256.90625 C 52.777344 267.34375 60.972656 271.699219 65.875 275.992188 C 65.875 275.992188 68.273438 280.328125 69.410156 280.554688 C 70.554688 280.785156 75.105469 280.683594 77.511719 279.871094 C 79.652344 278.425781 80.714844 274.46875 81.617188 271.597656 C 84.074219 263.816406 88.640625 263.449219 91.945312 260.84375 C 94.125 259.125 97.191406 257.890625 100.378906 253.476562 C 101.980469 251.257812 103.203125 248.730469 103.964844 246.035156 C 104.890625 242.738281 105.039062 239.207031 104.53125 235.644531 C 103.214844 226.4375 98.132812 220.160156 92.210938 217.773438 C 85.738281 215.765625 62.414062 219.027344 70.507812 236.015625 " fill-opacity="1" fill-rule="evenodd"/><path fill="#d80f46" d="M 83.015625 241.636719 C 83.015625 241.636719 89.535156 240.601562 94.34375 236.140625 C 95.96875 234.636719 96.511719 234.226562 95.101562 236.730469 C 92.78125 240.839844 89.566406 245.445312 88.265625 248.136719 C 86.554688 251.675781 88.148438 245.511719 87.464844 243.917969 C 86.78125 242.320312 85.753906 243.34375 83.015625 241.636719 " fill-opacity="1" fill-rule="evenodd"/><path fill="#a65342" d="M 62.054688 173.757812 C 60.5 175.828125 60.957031 176.273438 58.746094 178.453125 C 56.535156 180.632812 56.636719 182.730469 58.632812 185.128906 C 60.625 187.523438 63.878906 188.09375 66.21875 187.183594 C 68.558594 186.269531 70.152344 183.472656 71.410156 182.902344 C 71.410156 182.902344 69.925781 186.070312 67.242188 187.78125 C 65.976562 188.589844 64.578125 188.890625 63.328125 188.800781 C 60.4375 188.582031 58.871094 187.191406 58.246094 186.511719 C 58.246094 186.511719 57.832031 188.605469 56.066406 190.433594 C 56.066406 190.433594 54.753906 195.851562 52.015625 197.222656 C 52.300781 200.84375 52.8125 201.816406 50.617188 203.46875 C 48.421875 205.125 44.96875 205.863281 43.257812 205.351562 C 41.546875 204.839844 40.691406 202.300781 38.066406 201.785156 C 38.066406 201.785156 36.585938 201.640625 35.785156 201.1875 C 35.785156 201.1875 37.769531 200.6875 39.910156 201.601562 C 42.046875 202.511719 42.332031 202.714844 43.558594 202.542969 C 44.785156 202.371094 45.328125 201.855469 45.328125 201.855469 C 45.328125 201.855469 45.355469 202.511719 45.042969 202.683594 C 45.042969 202.683594 45.613281 203.199219 46.4375 203.3125 C 46.4375 203.3125 45.660156 203.464844 44.691406 203.035156 C 44.691406 203.035156 43.460938 203.738281 42.429688 203.511719 C 42.429688 203.511719 42.476562 204.425781 43.871094 204.738281 C 45.269531 205.054688 48.378906 203.738281 49.289062 203.140625 C 50.203125 202.542969 51.429688 201.714844 51.285156 199.660156 C 51.144531 197.605469 51 196.4375 51.03125 195.550781 C 51.058594 194.667969 50.417969 192.855469 49.703125 192.34375 C 48.898438 191.769531 39.890625 190.484375 36.527344 188.664062 C 40.167969 188.882812 43.15625 189.699219 45.210938 190.136719 C 46.960938 190.503906 47.828125 190.4375 50.046875 191.261719 C 51.203125 191.691406 51.929688 193.714844 51.898438 195.824219 C 51.898438 195.824219 54.980469 192.402344 55.007812 190.148438 C 55.035156 187.894531 54.71875 184.074219 53.726562 183.53125 C 51.144531 182.117188 42.59375 182.511719 38.28125 179.949219 C 43.03125 180.335938 45.195312 180.683594 53.339844 182.148438 C 54.90625 182.425781 55.707031 183.886719 55.851562 185.226562 C 55.992188 186.570312 56.019531 188.765625 56.019531 188.765625 C 56.019531 188.765625 57.277344 186.054688 57.132812 184.628906 C 57.132812 184.628906 55.9375 182.175781 56.191406 181.007812 C 56.449219 179.835938 56.988281 178.839844 57.734375 177.894531 C 57.734375 177.894531 56.941406 175.230469 56.019531 174.84375 C 52.570312 173.398438 47.753906 174.847656 42.558594 172.21875 C 46.941406 172.769531 49.375 172.558594 56.105469 173.675781 C 57.570312 173.917969 57.933594 174.21875 58.1875 175.15625 C 58.445312 176.097656 58.417969 176.3125 58.546875 177.183594 C 60.242188 175.648438 61.230469 173.863281 62.085938 173.054688 L 62.054688 173.757812 " fill-opacity="1" fill-rule="evenodd"/><path fill="#a65342" d="M 46.964844 204.765625 C 46.964844 204.765625 49.046875 205.480469 50.046875 207.707031 C 51.046875 209.929688 51.1875 211.894531 49.734375 214.664062 C 49.734375 214.664062 49.855469 214.632812 49.933594 214.613281 C 49.933594 214.613281 52.074219 211.777344 51.589844 209.410156 C 51.105469 207.042969 49.351562 205.246094 47.855469 204.417969 L 46.964844 204.765625 " fill-opacity="1" fill-rule="evenodd"/><path fill="#3f0210" d="M 64.191406 231.152344 C 64.191406 231.152344 67.449219 233.398438 70.507812 236.015625 C 73.566406 238.636719 81.859375 244.660156 81.050781 254.996094 C 81.050781 254.996094 84.175781 245.421875 76.988281 238.917969 C 69.800781 232.417969 64.105469 230.25 64.105469 230.25 C 64.105469 230.25 64.140625 230.699219 64.191406 231.152344 " fill-opacity="1" fill-rule="evenodd"/><path fill="#d80f46" d="M 173.558594 199.6875 C 170.765625 187.609375 173.570312 162.609375 196.078125 163.835938 C 196.996094 158.878906 197.863281 149.902344 202.652344 146.03125 C 207.441406 142.160156 215.46875 137.367188 217.714844 135.230469 C 219.957031 133.085938 222.929688 126.363281 223.238281 123.8125 C 223.238281 123.8125 253.296875 126.261719 260.9375 134.308594 C 252.65625 143.816406 250.535156 146.640625 249.417969 159.089844 C 248.625 167.890625 246.734375 176.15625 243.695312 181.558594 C 242.78125 183.1875 236.867188 192.625 220.871094 199.351562 C 220.871094 199.351562 217.636719 209.160156 212.847656 212.625 C 208.058594 216.089844 197.460938 220.472656 189.613281 221.589844 C 181.765625 222.714844 167.625 218.617188 173.558594 199.6875 " fill-opacity="1" fill-rule="evenodd"/><path fill="#780826" d="M 204.558594 170.632812 C 202.574219 166.835938 200.1875 166.097656 200.367188 165.015625 C 201.253906 159.730469 202.652344 152.242188 206.625 149.027344 C 211.414062 145.152344 219.015625 140.179688 221.257812 138.042969 C 223.5 135.898438 227.027344 128.320312 227.332031 125.769531 C 227.332031 125.769531 250.847656 122.835938 258.492188 130.886719 C 250.207031 140.390625 246.988281 145.417969 245.871094 157.867188 C 245.078125 166.667969 243.3125 173.34375 240.273438 178.746094 C 239.355469 180.375 233.933594 188.34375 217.9375 195.070312 C 214.488281 204.074219 213.035156 208.601562 205.984375 213.257812 C 202.050781 215.851562 193.8125 219.832031 188.699219 221.410156 C 180.847656 223.828125 172.027344 221.308594 170.101562 212.457031 C 168.175781 203.625 168.148438 193.160156 172.375 184.199219 C 176.589844 175.261719 186.625 166.476562 197.828125 167.613281 C 198.503906 167.683594 202.394531 168.601562 204.558594 170.632812 " fill-opacity="1" fill-rule="evenodd"/><path fill="#fcd2a7" d="M 245.578125 130.363281 C 245.578125 130.363281 240.480469 133.316406 238.035156 133.519531 C 235.589844 133.726562 228.027344 133.105469 225.09375 130.566406 C 222.164062 128.023438 219.1875 118.742188 219.796875 115.175781 C 220.40625 111.609375 222.242188 105.800781 225.605469 104.070312 C 228.964844 102.335938 229.894531 101.34375 232.695312 98.628906 C 238.824219 92.679688 242.015625 90.160156 246.460938 85.550781 C 247.996094 83.964844 253.039062 83.382812 262.394531 77.085938 C 265.683594 74.878906 270.882812 75.292969 272.25 77.957031 C 278.375 75.199219 283.511719 69.445312 288.425781 71.761719 C 290.652344 72.8125 293.773438 75.277344 291.890625 80.578125 C 291.890625 80.578125 295.710938 81.136719 297.492188 84.605469 C 299.277344 88.066406 297.542969 91.074219 297.542969 91.074219 C 297.542969 91.074219 302.488281 92.296875 302.15625 96.960938 C 301.554688 105.398438 290.292969 108.210938 281.625 114.082031 C 281.476562 115.902344 279.664062 118.140625 277.917969 119.785156 C 276.5 126.015625 273.574219 129.792969 271.941406 130.734375 C 269.023438 132.417969 261.589844 135.070312 258.480469 135.019531 C 255.371094 134.96875 247.839844 132.074219 245.578125 130.363281 " fill-opacity="1" fill-rule="evenodd"/><path fill="#d88969" d="M 245.578125 130.363281 C 245.578125 130.363281 240.480469 133.316406 238.035156 133.519531 C 235.589844 133.726562 228.027344 133.105469 225.09375 130.566406 C 223.800781 129.445312 222.191406 122.859375 223.621094 124.035156 C 230.605469 129.777344 236.878906 124.878906 237.222656 122.882812 C 237.832031 119.316406 223.527344 112.222656 226.886719 110.488281 C 230.25 108.757812 222.996094 111.042969 225.664062 108.195312 C 227.640625 106.089844 230.097656 104.4375 231.476562 103.625 C 233.664062 102.339844 235.429688 102.132812 237.445312 101.28125 C 238.753906 100.726562 240.171875 99.71875 241.875 98.570312 C 244.292969 96.933594 246.234375 95.847656 247.6875 94.601562 C 249.359375 93.167969 257.378906 92.25 266.734375 85.953125 C 268.871094 84.519531 271.449219 79.238281 269.648438 76 C 270.820312 76.367188 271.769531 77.019531 272.25 77.957031 C 275.175781 81.316406 270.6875 88.058594 271.199219 87.925781 C 280.40625 85.535156 291.300781 78.953125 288.425781 71.761719 C 290.652344 72.8125 293.773438 75.277344 291.890625 80.578125 C 291.890625 80.578125 291.753906 81.960938 291.097656 83.546875 C 292.363281 84.054688 293.703125 84.964844 294.742188 86.988281 C 296.03125 89.496094 295.335938 93.589844 293.550781 96.339844 C 293.636719 96.296875 294.824219 95.902344 296.105469 94.769531 C 297.21875 94.695312 299.660156 95.460938 299.3125 98.917969 C 298.652344 105.523438 287.234375 108.210938 278.566406 114.082031 C 279.03125 116.390625 276.667969 119.117188 274.003906 120.457031 C 272.179688 128.464844 268.195312 130.324219 257.441406 132.878906 C 254.417969 133.597656 247.839844 132.074219 245.578125 130.363281 " fill-opacity="1" fill-rule="evenodd"/><path fill="#a65342" d="M 272.632812 112.449219 C 272.632812 112.449219 270.476562 110.734375 268.140625 110.519531 C 268.140625 110.519531 269.761719 110.214844 270.617188 110.308594 C 270.675781 110.308594 276.179688 107.035156 277.707031 104.863281 C 277.707031 104.863281 284.554688 102.449219 287.214844 100.21875 C 287.214844 100.21875 294.410156 96.835938 297.542969 91.074219 L 298.230469 91.347656 C 298.230469 91.347656 297.378906 97.296875 287.871094 101.121094 C 285.582031 102.984375 282.300781 104.582031 278.496094 105.714844 C 276.660156 107.703125 274.75 109.6875 271.875 110.925781 C 271.875 110.925781 272.304688 111.964844 272.632812 112.449219 " fill-opacity="1" fill-rule="evenodd"/><path fill="#a65342" d="M 272.25 77.957031 C 272.25 77.957031 274.328125 80.96875 271.574219 85.496094 C 268.824219 90.015625 264.300781 93.441406 260.507812 94.847656 C 260.507812 94.847656 256.839844 97.355469 252.929688 97.722656 C 252.929688 97.722656 251.09375 102.429688 246.261719 102.921875 C 246.261719 102.921875 248.894531 103.285156 250.847656 103.105469 C 250.847656 103.105469 252.621094 101.390625 253.96875 98.824219 C 253.96875 98.824219 258.675781 97.539062 261.609375 95.519531 C 261.609375 95.519531 267.0625 93.609375 270.550781 89.277344 C 272.433594 86.933594 275.460938 82.371094 273.320312 77.441406 C 273.320312 77.441406 273.015625 77.585938 272.25 77.957031 " fill-opacity="1" fill-rule="evenodd"/><path fill="#a65342" d="M 224.941406 108.246094 C 224.941406 108.246094 227.058594 107.375 228.535156 106.253906 C 230.011719 105.132812 232.34375 103.761719 233.769531 103.476562 C 239.570312 103.703125 243.808594 103.058594 249.683594 104.710938 C 254.289062 106.003906 254.847656 106.75 255.308594 111.078125 C 255.765625 115.410156 254.308594 118.886719 252.199219 120.203125 C 250.089844 121.515625 245.515625 123.429688 239.644531 123.695312 C 239.644531 123.695312 236.34375 125.9375 231.820312 126.03125 C 223.882812 123.65625 222.023438 114.574219 224.941406 108.246094 " fill-opacity="1" fill-rule="evenodd"/><path fill="#a65342" d="M 291.890625 80.578125 C 291.890625 80.578125 290.109375 87.871094 278.675781 92.578125 C 278.675781 92.578125 275.066406 95.941406 266.753906 98.9375 C 266.753906 98.9375 262.410156 103.644531 258.925781 105.113281 C 258.925781 105.113281 256.726562 105.359375 254.523438 104.683594 C 254.523438 104.683594 256.238281 105.601562 258.4375 106.152344 C 260.636719 106.703125 261.617188 108.292969 263.085938 108.78125 C 263.085938 108.78125 260.820312 106.703125 260.699219 105.96875 C 260.578125 105.234375 264.507812 104.027344 267.53125 99.625 C 267.53125 99.625 274.703125 97.746094 279.257812 93.28125 C 279.257812 93.28125 289.160156 90.179688 292.710938 80.777344 C 292.484375 80.6875 292.136719 80.617188 291.890625 80.578125 " fill-opacity="1" fill-rule="evenodd"/><g clip-path="url(#5010fbd2de)"><path fill="#f3e6c8" d="M 200.121094 85.199219 L 295.855469 147.214844 L 355.3125 100.316406 L 245.734375 20.949219 L 200.121094 85.199219 " fill-opacity="1" fill-rule="evenodd"/></g><path fill="#c6b189" d="M 230.546875 104.910156 C 231.691406 104.230469 232.902344 103.652344 233.769531 103.476562 C 239.570312 103.703125 243.808594 103.058594 249.683594 104.710938 C 254.289062 106.003906 254.847656 106.75 255.308594 111.078125 C 255.699219 114.785156 254.6875 117.863281 253.070312 119.5 L 230.546875 104.910156 " fill-opacity="1" fill-rule="evenodd"/><path fill="#fcd2a7" d="M 224.941406 108.246094 C 224.941406 108.246094 227.59375 107.480469 229.070312 106.363281 C 230.546875 105.242188 232.328125 104.253906 233.757812 103.96875 C 234.53125 104.105469 235.308594 104.179688 236.054688 104.214844 C 241.007812 104.441406 243.363281 104.058594 248.488281 105.351562 C 253.023438 106.496094 253.472656 107.148438 253.933594 111.480469 C 254.390625 115.808594 252.503906 118.644531 250.519531 119.558594 C 248.53125 120.476562 243.742188 122.667969 239.15625 122.414062 C 239.15625 122.414062 234.878906 125.574219 231.820312 126.03125 C 228.761719 126.488281 223.871094 122.464844 222.292969 118.996094 C 220.714844 115.535156 223.105469 108.757812 224.941406 108.246094 " fill-opacity="1" fill-rule="evenodd"/><path fill="#d88969" d="M 229.808594 118.777344 C 228.890625 117.691406 228.164062 116.542969 227.851562 115.304688 C 227.269531 112.996094 228.984375 116.085938 232.585938 117.859375 C 234.25 118.675781 239.574219 120.453125 244.148438 119.253906 C 246.851562 118.546875 249.328125 117.664062 250.089844 116.542969 C 251.8125 114.007812 252.207031 109.617188 250.078125 105.789062 C 253.140625 106.730469 253.535156 107.714844 253.933594 111.480469 C 254.390625 115.808594 252.503906 118.644531 250.519531 119.558594 C 248.53125 120.476562 243.742188 122.667969 239.15625 122.414062 C 239.15625 122.414062 234.878906 125.574219 231.820312 126.03125 C 228.761719 126.488281 223.871094 122.464844 222.292969 118.996094 C 221.34375 116.921875 222.75 118.136719 225.394531 119.386719 C 226.769531 120.035156 230.863281 120.027344 229.808594 118.777344 " fill-opacity="1" fill-rule="evenodd"/><path fill="#a65342" d="M 248.816406 121.171875 C 248.816406 121.171875 248.726562 128.082031 245.914062 130.1875 C 249.347656 129.644531 250.679688 123.242188 250.652344 120.316406 L 248.816406 121.171875 " fill-opacity="1" fill-rule="evenodd"/><path fill="#d80f46" d="M 177.175781 199.574219 C 177.175781 199.574219 192.273438 195.84375 196.675781 192.359375 C 201.082031 188.871094 203.160156 183.796875 203.648438 179.210938 C 203.648438 179.210938 198.816406 186.242188 192.949219 189.667969 C 187.078125 193.09375 177.175781 199.574219 177.175781 199.574219 " fill-opacity="1" fill-rule="evenodd"/><path fill="#d80f46" d="M 208.269531 176.542969 C 208.269531 176.542969 209.136719 168.324219 214.28125 161.761719 C 219.480469 155.140625 221.617188 146.476562 222.433594 142.300781 C 222.636719 147.496094 221.210938 158.707031 218.15625 161.863281 C 215.097656 165.027344 215.300781 164.820312 208.269531 176.542969 " fill-opacity="1" fill-rule="evenodd"/><path fill="#d88969" d="M 249.597656 106.671875 C 249.597656 106.671875 248.335938 106.628906 246.988281 106.8125 C 245.65625 106.992188 244.242188 107.398438 243.839844 108.28125 C 243.023438 110.0625 243.152344 114.597656 243.765625 115.796875 C 244.375 116.992188 247.152344 117.757812 247.152344 117.757812 C 247.152344 117.757812 243.429688 117.628906 242.589844 115.921875 C 241.75 114.214844 241.878906 109.449219 242.894531 107.871094 C 243.558594 106.847656 245.394531 106.46875 247.113281 106.441406 C 248.046875 106.429688 248.941406 106.523438 249.597656 106.671875 " fill-opacity="1" fill-rule="evenodd"/><path fill="#d88969" d="M 65.375 180.265625 C 64.800781 179.832031 63.921875 179.398438 63.011719 179.066406 C 60.816406 178.269531 60.367188 178.402344 59.539062 178.871094 C 58.707031 179.335938 57.84375 180.484375 58.65625 181.285156 C 59.472656 182.085938 60.746094 182.660156 62.632812 183.21875 C 62.632812 183.21875 60.09375 181.773438 59.546875 181.160156 C 59.003906 180.546875 58.785156 180.144531 59.597656 179.5625 C 60.410156 178.984375 61.140625 179.125 62.042969 179.441406 C 62.953125 179.753906 65.585938 180.890625 65.886719 181.429688 C 66.183594 181.964844 65.925781 183.214844 65.671875 183.609375 C 65.671875 183.609375 66.136719 183.1875 66.316406 182.535156 C 66.632812 181.40625 66.246094 180.925781 65.375 180.265625 " fill-opacity="1" fill-rule="evenodd"/><path fill="#d80f46" d="M 105.101562 235.433594 C 108.195312 240.800781 113.070312 247.226562 121.390625 250.972656 C 126.445312 253.25 129.671875 253.164062 133.113281 252.46875 C 137.367188 251.609375 143.261719 249.355469 145.746094 248.835938 C 151.222656 247.683594 157.195312 245.742188 162.550781 243.753906 C 171.21875 240.539062 177.191406 224.457031 178.425781 216.089844 C 179.0625 211.777344 179.042969 209.011719 176.75 215.894531 C 174.808594 221.726562 170.410156 232.148438 166.308594 236.691406 C 162.628906 240.769531 155.941406 242.289062 146.347656 244.972656 C 138.386719 247.203125 132.035156 250.800781 123.347656 247.457031 C 118.570312 245.617188 110.378906 239.492188 105.453125 234.441406 C 104.769531 233.738281 104.6875 234.714844 105.101562 235.433594 " fill-opacity="1" fill-rule="evenodd"/><path fill="#63494a" d="M 176.746094 282.792969 C 170.578125 285.765625 165.265625 294.140625 157.820312 298.203125 C 153.800781 300.402344 149.933594 301.757812 147.054688 307.117188 C 145.246094 307.539062 142.371094 307.988281 140.0625 307.761719 C 137.105469 300.578125 131.296875 297.417969 124.574219 290.335938 C 117.988281 283.402344 116.332031 279.722656 115.5 276.460938 C 116.476562 274.597656 116.710938 273.46875 116.941406 271.859375 C 119.65625 276.890625 128.3125 287.589844 145.566406 288.449219 C 160.757812 289.207031 171.71875 281.027344 174.792969 275.03125 C 175.199219 277.203125 175.351562 279.230469 176.746094 282.792969 " fill-opacity="1" fill-rule="evenodd"/><path fill="#220c09" d="M 174.496094 284.121094 C 169.234375 287.769531 164.347656 294.644531 157.820312 298.203125 C 154.96875 299.765625 152.191406 300.898438 149.792969 303.339844 C 146.558594 305.875 143.542969 306.011719 139.390625 306.292969 C 136.28125 300.109375 130.820312 296.917969 124.574219 290.335938 C 120.660156 286.214844 118.488281 283.246094 117.195312 280.828125 C 118.125 278.476562 118.746094 277.902344 119.214844 276.601562 C 119.214844 276.601562 117.71875 274.746094 116.789062 272.808594 C 116.847656 272.503906 116.894531 272.191406 116.941406 271.859375 C 119.65625 276.890625 128.3125 287.589844 145.566406 288.449219 C 160.757812 289.207031 171.71875 281.027344 174.792969 275.03125 C 174.847656 275.3125 174.875 275.472656 174.921875 275.757812 C 174.160156 277.335938 172.910156 278.769531 172.910156 278.769531 C 173.25 280.890625 174.496094 284.121094 174.496094 284.121094 " fill-opacity="1" fill-rule="evenodd"/><path fill="#9f480d" d="M 116.851562 271.585938 C 116.851562 271.585938 116.847656 272.097656 117.996094 273.8125 C 120.53125 277.597656 126.277344 284.117188 137.09375 287.042969 C 152.816406 291.292969 169.320312 285.179688 174.71875 274.53125 L 174.6875 270.703125 C 174.84375 270.0625 175.164062 269.1875 175.152344 268.777344 C 175.140625 268.367188 174.917969 268.1875 174.699219 268.007812 L 174.667969 268.570312 C 174.667969 268.570312 171.535156 278.277344 155.945312 281.742188 C 142.601562 284.707031 129.152344 280.320312 120.472656 271.078125 C 119.007812 269.519531 118.011719 268.125 116.847656 266.300781 C 116.835938 266.195312 116.824219 266.019531 116.816406 265.914062 C 116.707031 266.0625 116.507812 266.25 116.511719 266.589844 L 116.851562 271.585938 " fill-opacity="1" fill-rule="evenodd"/><path fill="#fab60a" d="M 116.515625 271.871094 C 116.515625 271.871094 116.847656 272.683594 117.996094 274.402344 C 120.53125 278.191406 126.277344 284.710938 137.09375 287.632812 C 152.816406 291.882812 169.804688 285.390625 175.203125 274.742188 L 175.152344 268.777344 C 175.152344 268.777344 171.535156 278.867188 155.945312 282.332031 C 140.355469 285.800781 124.613281 279.226562 116.511719 266.589844 L 116.515625 271.871094 " fill-opacity="1" fill-rule="evenodd"/><path fill="#cc770d" d="M 119.746094 270.871094 L 119.253906 276.132812 C 122.234375 279.941406 127.789062 285.117188 137.09375 287.632812 C 150.929688 291.375 165.738281 286.792969 172.777344 278.386719 L 172.195312 273.378906 C 169.476562 276.515625 164.523438 280.425781 155.945312 282.332031 C 142.226562 285.382812 128.390625 280.660156 119.746094 270.871094 " fill-opacity="1" fill-rule="evenodd"/><path fill="#9f480d" d="M 145.03125 280.71875 C 149.023438 280.863281 152.1875 283.011719 152.097656 285.511719 C 152.09375 285.628906 151.929688 286.480469 151.914062 286.59375 C 149.65625 287.667969 148.507812 289.921875 144.703125 289.785156 C 140.710938 289.640625 137.519531 287.464844 137.609375 284.960938 C 137.941406 283.863281 137.910156 284.039062 138.050781 283.582031 C 139.066406 281.808594 141.828125 280.605469 145.03125 280.71875 " fill-opacity="1" fill-rule="evenodd"/><path fill="#cc770d" d="M 144.890625 281.394531 C 148.882812 281.539062 152.046875 283.6875 151.957031 286.1875 C 151.863281 288.691406 148.554688 290.601562 144.5625 290.460938 C 140.570312 290.316406 137.40625 288.167969 137.496094 285.664062 C 137.585938 283.164062 140.894531 281.25 144.890625 281.394531 " fill-opacity="1" fill-rule="evenodd"/><path fill="#220c09" d="M 119.609375 277.390625 L 120.164062 271.332031 L 120.628906 271.242188 L 123.515625 273.957031 L 122.984375 274.09375 L 122.40625 279.996094 L 119.609375 277.390625 " fill-opacity="1" fill-rule="evenodd"/><path fill="#220c09" d="M 172.441406 279.804688 L 171.746094 273.886719 L 171.214844 273.789062 L 168.183594 276.457031 L 168.753906 276.613281 L 169.515625 282.738281 L 172.441406 279.804688 " fill-opacity="1" fill-rule="evenodd"/><path fill="#220c09" d="M 131.882812 286.265625 L 132.460938 280.09375 L 133.425781 279.910156 L 129.21875 277.894531 L 128.492188 278.070312 L 127.984375 284.199219 C 127.984375 284.199219 130.046875 285.515625 131.882812 286.265625 " fill-opacity="1" fill-rule="evenodd"/><path fill="#220c09" d="M 158.746094 288.191406 L 158.292969 281.738281 L 157.539062 281.347656 L 161.824219 279.945312 L 162.53125 280.234375 L 162.769531 286.277344 C 162.769531 286.277344 160.578125 287.4375 158.746094 288.191406 " fill-opacity="1" fill-rule="evenodd"/><path fill="#a65342" d="M 145.761719 190.5625 C 145.761719 190.5625 144.742188 200.601562 143.46875 203.761719 C 142.195312 206.917969 143.316406 198.308594 142.601562 192.550781 C 141.890625 186.792969 145.761719 190.5625 145.761719 190.5625 " fill-opacity="1" fill-rule="evenodd"/><path fill="#a65342" d="M 126.515625 193.023438 C 126.515625 193.023438 130.28125 202.382812 132.378906 205.0625 C 134.480469 207.746094 130.808594 197.488281 130.101562 194.054688 C 128.828125 192.757812 126.515625 193.023438 126.515625 193.023438 " fill-opacity="1" fill-rule="evenodd"/><path fill="#e28e0d" d="M 191.820312 267.050781 C 191.015625 263.816406 189.636719 257.765625 189.351562 253.207031 C 188.96875 247.074219 191.105469 244.367188 197.460938 258.121094 C 194.9375 262.015625 194.824219 264.773438 191.820312 267.050781 " fill-opacity="1" fill-rule="evenodd"/><path fill="#e28e0d" d="M 109.304688 278.695312 C 109.886719 274.59375 110.636719 267.171875 109.054688 264.007812 C 107.230469 260.359375 104.464844 266.5625 102.394531 273.394531 C 103.0625 273.855469 103.6875 274.425781 104.269531 275.117188 C 105.707031 276.828125 107.371094 277.980469 109.304688 278.695312 " fill-opacity="1" fill-rule="evenodd"/><g clip-path="url(#7ae1f3933c)"><path fill="#c6b189" d="M 285.464844 98.007812 L 295.375 145.175781 L 287.882812 98.347656 L 347.21875 106.699219 L 355.3125 100.316406 L 346.933594 105.277344 L 275.605469 93.25 L 242.335938 28.382812 L 245.734375 20.949219 L 240.433594 28.417969 L 266.546875 82.835938 L 202.035156 85.148438 L 267.609375 85.050781 L 272.980469 96.25 L 285.464844 98.007812 " fill-opacity="1" fill-rule="evenodd"/></g><path fill="#63494a" d="M 280.480469 94.195312 C 281.820312 92.070312 281.609375 90.378906 279.820312 89.140625 C 278.78125 88.425781 277.492188 88.101562 275.953125 88.175781 C 274.433594 88.242188 272.882812 88.679688 271.308594 89.484375 C 269.753906 90.28125 268.402344 91.335938 267.257812 92.644531 C 265.550781 94.585938 265.636719 96.179688 267.488281 97.441406 C 268.878906 98.390625 270.472656 98.746094 272.269531 98.46875 C 273.972656 98.203125 276.253906 97.054688 279.152344 95.066406 C 279.757812 94.652344 280.101562 94.449219 280.179688 94.425781 C 280.277344 94.351562 280.375 94.273438 280.480469 94.195312 Z M 272.355469 101.945312 C 270.511719 102.140625 269.046875 102.125 267.945312 101.949219 C 266.253906 101.675781 264.636719 101.050781 263.105469 100.015625 C 260.449219 98.222656 258.886719 96.3125 258.429688 94.261719 C 257.960938 92.183594 258.617188 90.054688 260.4375 87.863281 C 262.113281 85.839844 264.238281 84.324219 266.847656 83.304688 C 269.46875 82.28125 272.203125 81.882812 275.023438 82.117188 C 277.859375 82.355469 280.386719 83.246094 282.582031 84.773438 C 285.097656 86.523438 286.324219 88.613281 286.265625 91.003906 C 287.1875 90.742188 288.109375 90.480469 289.042969 90.21875 C 291.039062 91.609375 293.03125 92.996094 295.019531 94.378906 C 292.347656 95.953125 289.707031 97.5 287.132812 99.023438 C 284.597656 100.523438 282.109375 102 279.652344 103.433594 C 279.421875 103.566406 279.230469 103.683594 279.085938 103.832031 C 278.507812 104.429688 278.566406 104.964844 279.265625 105.441406 C 280.246094 106.109375 281.429688 106.539062 282.84375 106.738281 C 284.257812 106.941406 285.75 106.902344 287.308594 106.636719 C 288.875 106.367188 290.421875 105.882812 291.929688 105.171875 C 293.453125 104.460938 294.785156 103.570312 295.921875 102.496094 C 297.414062 101.085938 298.429688 99.507812 298.960938 97.761719 C 299.5 96 299.550781 94.171875 299.097656 92.269531 C 298.636719 90.34375 297.660156 88.425781 296.203125 86.527344 C 294.71875 84.601562 292.78125 82.792969 290.40625 81.121094 C 287.445312 79.039062 284.308594 77.507812 281.035156 76.539062 C 277.765625 75.570312 274.546875 75.171875 271.394531 75.347656 C 268.269531 75.515625 265.398438 76.238281 262.804688 77.484375 C 260.234375 78.722656 258.09375 80.433594 256.359375 82.621094 C 254.824219 84.558594 253.871094 86.582031 253.472656 88.667969 C 253.082031 90.730469 253.21875 92.796875 253.890625 94.851562 C 254.558594 96.898438 255.703125 98.871094 257.339844 100.800781 C 258.957031 102.707031 261.019531 104.496094 263.519531 106.171875 C 264.851562 107.066406 266.214844 107.878906 267.625 108.605469 C 268.875 109.246094 270.066406 109.78125 271.195312 110.199219 C 272.316406 110.617188 273.5625 110.992188 274.9375 111.3125 C 276.316406 111.632812 278.117188 111.988281 280.351562 112.363281 C 280.324219 113.820312 280.304688 115.269531 280.28125 116.703125 C 277.808594 116.375 275.949219 116.082031 274.6875 115.824219 C 273.421875 115.566406 272.078125 115.214844 270.65625 114.746094 C 268.992188 114.199219 267.253906 113.472656 265.402344 112.550781 C 263.554688 111.632812 261.8125 110.617188 260.160156 109.515625 C 257.015625 107.417969 254.390625 105.136719 252.285156 102.667969 C 250.152344 100.15625 248.648438 97.570312 247.742188 94.894531 C 246.820312 92.175781 246.5625 89.460938 246.988281 86.746094 C 247.417969 83.980469 248.578125 81.347656 250.46875 78.839844 C 252.632812 75.964844 255.367188 73.667969 258.679688 71.984375 C 262.0625 70.269531 265.789062 69.273438 269.867188 69.011719 C 273.988281 68.742188 278.238281 69.25 282.570312 70.535156 C 286.929688 71.828125 291.058594 73.863281 294.953125 76.625 C 298.167969 78.902344 300.734375 81.382812 302.679688 84.054688 C 304.601562 86.695312 305.816406 89.363281 306.324219 92.042969 C 306.824219 94.679688 306.640625 97.214844 305.777344 99.644531 C 304.929688 102.035156 303.445312 104.191406 301.34375 106.097656 C 299.523438 107.75 297.472656 109.03125 295.1875 109.949219 C 292.933594 110.859375 290.609375 111.386719 288.199219 111.546875 C 285.820312 111.703125 283.472656 111.488281 281.164062 110.898438 C 278.878906 110.316406 276.753906 109.359375 274.796875 108.042969 C 273.394531 107.09375 272.484375 106.066406 272 104.992188 C 271.621094 104.15625 271.71875 103.152344 272.355469 101.945312 " fill-opacity="1" fill-rule="evenodd"/><path fill="#220c09" d="M 255.90625 83.21875 C 255.460938 83.828125 255.078125 84.445312 254.75 85.070312 L 247.339844 85.078125 C 247.480469 84.550781 247.652344 84.027344 247.847656 83.507812 Z M 266.78125 76.042969 C 265.742188 76.308594 264.738281 76.644531 263.769531 77.050781 L 260.867188 70.996094 C 261.785156 70.628906 262.730469 70.308594 263.699219 70.039062 Z M 298.085938 99.78125 C 298.457031 99.136719 298.75 98.464844 298.960938 97.761719 C 299.019531 97.582031 299.070312 97.398438 299.113281 97.214844 L 306.160156 98.402344 C 306.050781 98.820312 305.921875 99.234375 305.777344 99.644531 C 305.640625 100.035156 305.484375 100.421875 305.308594 100.800781 Z M 287.277344 106.640625 L 287.308594 106.636719 C 287.921875 106.53125 288.535156 106.390625 289.140625 106.21875 L 289.964844 111.363281 C 289.417969 111.441406 288.867188 111.5 288.308594 111.539062 Z M 292.183594 96.046875 C 290.84375 96.835938 289.515625 97.617188 288.203125 98.390625 L 287.882812 98.347656 L 287.917969 98.558594 L 287.132812 99.023438 L 285.839844 99.789062 L 285.464844 98.007812 L 276.503906 96.746094 C 277.324219 96.277344 278.203125 95.714844 279.152344 95.066406 C 279.757812 94.652344 280.101562 94.449219 280.179688 94.425781 C 280.277344 94.351562 280.375 94.273438 280.480469 94.195312 L 280.546875 94.085938 Z M 263.507812 85.054688 C 264.519531 84.363281 265.632812 83.78125 266.847656 83.304688 C 267.890625 82.894531 268.953125 82.585938 270.03125 82.378906 L 273.257812 88.671875 C 272.613281 88.878906 271.964844 89.152344 271.308594 89.484375 C 270.882812 89.703125 270.472656 89.941406 270.078125 90.195312 L 267.609375 85.050781 L 263.507812 85.054688 " fill-opacity="1" fill-rule="evenodd"/></svg>