<svg xmlns="http://www.w3.org/2000/svg" xmlns:xlink="http://www.w3.org/1999/xlink" width="512" zoomAndPan="magnify" viewBox="0 0 384 383.999986" height="512" preserveAspectRatio="xMidYMid meet" version="1.0"><defs><clipPath id="56ba2d935a"><path d="M 41.804688 53.304688 L 342.554688 53.304688 L 342.554688 357.332031 L 41.804688 357.332031 Z M 41.804688 53.304688 " clip-rule="nonzero"/></clipPath><clipPath id="e8ce611d73"><path d="M 242 26.722656 L 297 26.722656 L 297 81 L 242 81 Z M 242 26.722656 " clip-rule="nonzero"/></clipPath></defs><g clip-path="url(#56ba2d935a)"><path fill="#4338cc" d="M 318.746094 53.523438 L 65.613281 53.523438 C 52.464844 53.523438 41.804688 64.175781 41.804688 77.316406 L 41.804688 298.253906 C 41.804688 311.394531 52.464844 322.046875 65.613281 322.046875 L 257.957031 322.046875 L 295.875 357.332031 L 295.875 322.046875 L 318.746094 322.046875 C 331.894531 322.046875 342.554688 311.394531 342.554688 298.253906 L 342.554688 77.316406 C 342.554688 64.175781 331.894531 53.523438 318.746094 53.523438 " fill-opacity="1" fill-rule="nonzero"/></g><path fill="#ea9a26" d="M 192.179688 75.261719 L 88.332031 144.445312 L 88.332031 282.824219 L 296.027344 282.824219 L 296.027344 144.445312 L 192.179688 75.261719 " fill-opacity="1" fill-rule="nonzero"/><path fill="#ffffff" d="M 281.449219 282.824219 L 102.90625 282.824219 L 102.90625 104.386719 L 281.449219 104.386719 L 281.449219 282.824219 " fill-opacity="1" fill-rule="nonzero"/><path fill="#ed1c24" d="M 190.183594 167.707031 C 193.140625 167.707031 195.808594 166.277344 198.1875 163.417969 C 200.570312 160.558594 201.761719 156.839844 201.761719 152.261719 C 201.761719 149.679688 200.847656 147.363281 199.019531 145.316406 C 197.191406 143.269531 194.949219 142.246094 192.289062 142.246094 C 189.410156 142.246094 187.027344 143.507812 185.144531 146.035156 C 183.261719 148.5625 182.320312 151.839844 182.320312 155.863281 C 182.320312 159.292969 183.046875 162.125 184.507812 164.359375 C 185.964844 166.59375 187.859375 167.707031 190.183594 167.707031 Z M 209.644531 136.757812 L 207.007812 159.101562 C 206.8125 160.671875 206.71875 162.171875 206.71875 163.609375 C 206.71875 165.753906 207.484375 166.824219 209.019531 166.824219 C 211.484375 166.824219 213.84375 165.136719 216.097656 161.765625 C 218.355469 158.390625 219.480469 154.308594 219.480469 149.511719 C 219.480469 142.574219 216.980469 136.941406 211.972656 132.609375 C 206.964844 128.277344 200.894531 126.113281 193.761719 126.113281 C 185.925781 126.113281 179.34375 128.796875 174.015625 134.167969 C 168.691406 139.539062 166.027344 146.15625 166.027344 154.019531 C 166.027344 161.375 168.53125 167.757812 173.539062 173.179688 C 178.542969 178.597656 185.574219 181.304688 194.625 181.304688 C 201.664062 181.304688 208.84375 179.421875 216.171875 175.648438 L 219 182.167969 C 211.164062 186.164062 203.039062 188.164062 194.625 188.164062 C 183.460938 188.164062 174.59375 184.796875 168.019531 178.070312 C 161.445312 171.339844 158.160156 163.308594 158.160156 153.972656 C 158.160156 144.222656 161.613281 136.070312 168.523438 129.515625 C 175.433594 122.960938 183.78125 119.683594 193.570312 119.683594 C 202.785156 119.683594 210.523438 122.507812 216.792969 128.148438 C 223.0625 133.792969 226.199219 140.914062 226.199219 149.511719 C 226.199219 155.746094 224.4375 161.300781 220.921875 166.175781 C 217.402344 171.050781 213.117188 173.488281 208.0625 173.488281 C 204.125 173.488281 201.410156 171.828125 199.90625 168.503906 C 197.152344 171.957031 193.792969 173.679688 189.828125 173.679688 C 185.765625 173.679688 182.285156 171.988281 179.390625 168.597656 C 176.496094 165.210938 175.050781 160.75 175.050781 155.21875 C 175.050781 149.527344 176.679688 144.902344 179.945312 141.335938 C 183.207031 137.773438 187.09375 135.988281 191.605469 135.988281 C 195.953125 135.988281 199.089844 137.363281 201.007812 140.113281 L 201.390625 136.757812 L 209.644531 136.757812 " fill-opacity="1" fill-rule="nonzero"/><path fill="#fccc44" d="M 296.027344 282.824219 L 88.332031 282.824219 L 88.332031 144.445312 Z M 296.027344 282.824219 " fill-opacity="1" fill-rule="nonzero"/><path fill="#fccc44" d="M 88.332031 282.824219 L 296.027344 282.824219 L 296.027344 144.445312 Z M 88.332031 282.824219 " fill-opacity="1" fill-rule="nonzero"/><path fill="#ea9a26" d="M 185.390625 209.085938 L 99.003906 271.085938 L 192.125 213.621094 C 189.878906 212.109375 187.628906 210.601562 185.390625 209.085938 " fill-opacity="1" fill-rule="nonzero"/><path fill="#ea9a26" d="M 192.214844 213.582031 L 286.628906 271.070312 L 199.011719 209.085938 Z M 192.214844 213.582031 " fill-opacity="1" fill-rule="nonzero"/><g clip-path="url(#e8ce611d73)"><path fill="#ed1c24" d="M 296.027344 53.75 C 296.027344 68.601562 283.980469 80.636719 269.125 80.636719 C 254.269531 80.636719 242.222656 68.601562 242.222656 53.75 C 242.222656 38.90625 254.269531 26.867188 269.125 26.867188 C 283.980469 26.867188 296.027344 38.90625 296.027344 53.75 " fill-opacity="1" fill-rule="nonzero"/></g><path fill="#ffffff" d="M 270.371094 69.011719 C 268.816406 69.011719 267.554688 67.75 267.554688 66.195312 L 267.554688 46.800781 L 262.617188 50.351562 C 261.355469 51.257812 259.59375 50.972656 258.683594 49.707031 C 257.777344 48.445312 258.0625 46.6875 259.328125 45.777344 L 268.726562 39.023438 C 269.585938 38.40625 270.714844 38.320312 271.65625 38.800781 C 272.597656 39.285156 273.1875 40.25 273.1875 41.304688 L 273.1875 66.195312 C 273.1875 67.75 271.925781 69.011719 270.371094 69.011719 " fill-opacity="1" fill-rule="nonzero"/></svg>