<svg width="501" height="498" viewBox="0 0 501 498" fill="none" xmlns="http://www.w3.org/2000/svg">
<g filter="url(#filter0_d_11_54)">
<circle cx="245" cy="245" r="245" fill="#CCF381"/>
<path d="M374.693 154.152L374.734 154.399V154.295V154.149H374.734H374.734H374.734H374.734H374.734H374.734H374.734H374.734H374.734H374.734H374.734H374.734H374.734H374.734H374.734H374.734H374.734H374.735H374.735H374.735H374.735H374.735H374.735H374.735H374.735H374.735H374.735H374.735H374.735H374.735H374.735H374.735H374.735H374.735H374.735H374.736H374.736H374.736H374.736H374.736H374.736H374.736H374.736H374.736H374.736H374.736H374.737H374.737H374.737H374.737H374.737H374.737H374.737H374.737H374.737H374.738H374.738H374.738H374.738H374.738H374.738H374.738H374.739H374.739H374.739H374.739H374.739H374.739H374.739H374.74H374.74H374.74H374.74H374.74H374.741H374.741H374.741H374.741H374.741H374.741H374.742H374.742H374.742H374.742H374.743H374.743H374.743H374.743H374.743H374.744H374.744H374.744H374.744H374.745H374.745H374.745H374.746H374.746H374.746H374.746H374.747H374.747H374.747H374.748H374.748H374.748H374.748H374.749H374.749H374.749H374.75H374.75H374.75H374.751H374.751H374.751H374.752H374.752H374.753H374.753H374.753H374.754H374.754H374.755H374.755H374.755H374.756H374.756H374.757H374.757H374.757H374.758H374.758H374.759H374.759H374.76H374.76H374.761H374.761H374.762H374.762H374.763H374.763H374.764H374.764H374.765H374.765H374.766H374.766H374.767H374.767H374.768H374.768H374.769H374.769H374.77H374.771H374.771H374.772H374.772H374.773H374.774H374.774H374.775H374.775H374.776H374.777H374.777H374.778H374.779H374.779H374.78H374.781H374.781H374.782H374.783H374.784H374.784H374.785H374.786H374.786H374.787H374.788H374.789H374.789H374.79H374.791H374.792H374.793H374.793H374.794H374.795H374.796H374.797H374.798H374.798H374.799H374.8H374.801H374.802H374.803H374.804H374.805H374.805H374.806H374.807H374.808H374.809H374.81H374.811H374.812H374.813H374.814H374.815H374.816H374.817H374.818H374.819H374.82H374.821H374.822H374.823H374.824H374.825H374.826H374.827H374.828H374.83H374.831H374.832H374.833H374.834H374.835H374.836H374.837H374.839H374.84H374.841H374.842H374.843H374.845H374.846H374.847H374.848H374.85H374.851H374.852H374.853H374.855H374.856H374.857H374.859H374.86H374.861H374.863H374.864H374.865H374.867H374.868H374.869H374.871H374.872H374.874H374.875H374.877H374.878H374.879H374.881H374.882H374.884H374.885H374.887H374.888H374.89H374.891H374.893H374.895H374.896H374.898H374.899H374.901H374.902H374.904H374.906H374.907H374.909H374.911H374.912H374.914H374.916H374.917H374.919H374.921H374.923H374.924H374.926H374.928H374.93H374.931H374.933H374.935H374.937H374.939H374.94H374.942H374.944H374.946H374.948H374.95H374.952H374.954H374.956H374.957H374.959H374.961H374.963H374.965H374.967H374.969H374.971H374.973H374.975H374.977H374.98H374.982H374.984H374.986H374.988H374.99H374.992H374.994H374.996H374.999H375.001H375.003H375.005H375.007H375.01H375.012H375.014H375.016H375.019H375.021H375.023H375.026H375.028H375.03H375.033H375.035H375.037H375.04H375.042H375.045H375.047H375.049H375.052H375.054H375.057H375.059H375.062H375.064H375.067H375.069H375.072H375.075H375.077H375.08H375.082H375.085H375.088H375.09H375.093H375.096H375.098H375.101H375.104H375.106H375.109H375.112H375.115H375.117H375.12H375.123H375.126H375.129H375.132H375.134H375.137H375.14H375.143H375.146H375.149H375.152H375.155H375.158H375.161H375.164H375.167H375.17H375.173H375.176H375.179H375.182H375.185H375.188H375.191H375.195H375.198H375.201H375.204H375.207H375.211H375.214H375.217H375.22H375.224H375.227H375.23H375.233H375.237H375.24H375.243H375.247H375.25H375.254H375.257H375.26H375.264H375.267H375.271H375.274H375.278H375.281H375.285H375.289H375.292H375.296H375.299H375.303H375.307H375.31H375.314H375.318H375.321H375.325H375.329H375.332H375.336H375.34H375.344H375.347H375.351H375.355H375.359H375.363H375.367H375.371H375.375H375.378H375.382H375.386H375.39H375.394H375.398H375.402H375.406H375.411H375.415H375.419H375.423H375.427H375.431H375.435H375.439H375.44C377.324 153.78 379.384 154.158 381.068 155.092C382.761 156.03 384.098 157.544 384.482 159.456L384.486 159.48V159.505V160.213L389.565 190.62H423.709C425.958 190.62 427.852 191.369 429.185 192.699C430.517 194.028 431.268 195.919 431.268 198.164C431.268 200.409 430.517 202.299 429.185 203.629C427.852 204.959 425.958 205.708 423.709 205.708H392.575L397.604 234.385H423.709C425.958 234.385 427.852 235.134 429.185 236.463C430.517 237.793 431.268 239.683 431.268 241.929C431.268 244.174 430.517 246.064 429.185 247.394C427.852 248.723 425.958 249.473 423.709 249.473H400.618L405.68 276.891C405.68 276.892 405.68 276.893 405.68 276.893C406.432 280.652 404.177 285.183 399.628 285.94L399.607 285.944H399.587H398.88C396.997 286.313 394.937 285.934 393.252 285C391.56 284.062 390.222 282.549 389.839 280.637L389.834 280.612V280.588V279.879L384.756 249.473H356.76L361.822 276.891C361.822 276.892 361.822 276.893 361.822 276.893C362.574 280.652 360.319 285.183 355.77 285.94L355.749 285.944H355.729H355.022C353.139 286.313 351.079 285.934 349.394 285C347.702 284.062 346.364 282.549 345.981 280.637L345.976 280.612V280.588V279.882L340.172 249.473H306.754C304.504 249.473 302.61 248.723 301.278 247.394C299.945 246.064 299.194 244.174 299.194 241.929C299.194 239.683 299.945 237.793 301.278 236.463C302.61 235.134 304.504 234.385 306.754 234.385H337.888L332.859 205.708H306.754C304.504 205.708 302.61 204.959 301.278 203.629C299.945 202.299 299.194 200.409 299.194 198.164C299.194 195.919 299.945 194.028 301.278 192.699C302.61 191.369 304.504 190.62 306.754 190.62H329.844L324.783 163.201C324.783 163.2 324.783 163.2 324.783 163.199C324.03 159.44 326.285 154.909 330.835 154.152L330.855 154.149H330.876H330.876H330.876H330.876H330.876H330.876H330.876H330.876H330.876H330.876H330.877H330.877H330.877H330.877H330.877H330.877H330.877H330.877H330.877H330.877H330.877H330.877H330.878H330.878H330.878H330.878H330.878H330.878H330.878H330.878H330.878H330.878H330.878H330.878H330.879H330.879H330.879H330.879H330.879H330.879H330.879H330.879H330.88H330.88H330.88H330.88H330.88H330.88H330.88H330.88H330.881H330.881H330.881H330.881H330.881H330.881H330.882H330.882H330.882H330.882H330.882H330.882H330.883H330.883H330.883H330.883H330.883H330.884H330.884H330.884H330.884H330.885H330.885H330.885H330.885H330.885H330.886H330.886H330.886H330.886H330.887H330.887H330.887H330.887H330.888H330.888H330.888H330.889H330.889H330.889H330.89H330.89H330.89H330.89H330.891H330.891H330.891H330.892H330.892H330.892H330.893H330.893H330.893H330.894H330.894H330.895H330.895H330.895H330.896H330.896H330.896H330.897H330.897H330.898H330.898H330.899H330.899H330.899H330.9H330.9H330.901H330.901H330.902H330.902H330.903H330.903H330.904H330.904H330.904H330.905H330.905H330.906H330.907H330.907H330.908H330.908H330.909H330.909H330.91H330.91H330.911H330.911H330.912H330.913H330.913H330.914H330.914H330.915H330.916H330.916H330.917H330.917H330.918H330.919H330.919H330.92H330.921H330.921H330.922H330.923H330.923H330.924H330.925H330.926H330.926H330.927H330.928H330.928H330.929H330.93H330.931H330.931H330.932H330.933H330.934H330.935H330.935H330.936H330.937H330.938H330.939H330.94H330.94H330.941H330.942H330.943H330.944H330.945H330.946H330.946H330.947H330.948H330.949H330.95H330.951H330.952H330.953H330.954H330.955H330.956H330.957H330.958H330.959H330.96H330.961H330.962H330.963H330.964H330.965H330.966H330.967H330.968H330.969H330.97H330.972H330.973H330.974H330.975H330.976H330.977H330.978H330.979H330.981H330.982H330.983H330.984H330.985H330.987H330.988H330.989H330.99H330.992H330.993H330.994H330.995H330.997H330.998H330.999H331.001H331.002H331.003H331.005H331.006H331.007H331.009H331.01H331.011H331.013H331.014H331.016H331.017H331.018H331.02H331.021H331.023H331.024H331.026H331.027H331.029H331.03H331.032H331.033H331.035H331.036H331.038H331.04H331.041H331.043H331.044H331.046H331.048H331.049H331.051H331.053H331.054H331.056H331.058H331.059H331.061H331.063H331.064H331.066H331.068H331.07H331.072H331.073H331.075H331.077H331.079H331.081H331.082H331.084H331.086H331.088H331.09H331.092H331.094H331.096H331.098H331.099H331.101H331.103H331.105H331.107H331.109H331.111H331.113H331.115H331.117H331.119H331.122H331.124H331.126H331.128H331.13H331.132H331.134H331.136H331.138H331.141H331.143H331.145H331.147H331.149H331.152H331.154H331.156H331.158H331.161H331.163H331.165H331.168H331.17H331.172H331.175H331.177H331.179H331.182H331.184H331.187H331.189H331.191H331.194H331.196H331.199H331.201H331.204H331.206H331.209H331.211H331.214H331.217H331.219H331.222H331.224H331.227H331.23H331.232H331.235H331.238H331.24H331.243H331.246H331.248H331.251H331.254H331.257H331.259H331.262H331.265H331.268H331.271H331.274H331.276H331.279H331.282H331.285H331.288H331.291H331.294H331.297H331.3H331.303H331.306H331.309H331.312H331.315H331.318H331.321H331.324H331.327H331.33H331.333H331.337H331.34H331.343H331.346H331.349H331.352H331.356H331.359H331.362H331.365H331.369H331.372H331.375H331.379H331.382H331.385H331.389H331.392H331.396H331.399H331.402H331.406H331.409H331.413H331.416H331.42H331.423H331.427H331.43H331.434H331.438H331.441H331.445H331.448H331.452H331.456H331.459H331.463H331.467H331.471H331.474H331.478H331.482H331.486H331.489H331.493H331.497H331.501H331.505H331.509H331.513H331.517H331.52H331.524H331.528H331.532H331.536H331.54H331.544H331.548H331.552H331.557H331.561H331.565H331.569H331.573H331.577H331.581H331.582C333.466 153.78 335.526 154.158 337.21 155.092C338.903 156.03 340.24 157.544 340.624 159.456L340.628 159.48V159.505V160.213L345.707 190.62H373.702L368.641 163.201C368.641 163.2 368.641 163.2 368.641 163.199C367.888 159.44 370.143 154.909 374.693 154.152ZM353.746 234.385H381.746L376.717 205.708H348.717L353.746 234.385Z" fill="#D3BDEC" stroke="#38195B" stroke-width="0.5"/>
<path d="M234.806 362.963C325.105 362.963 337.941 281.376 339.493 278.833L280.277 260.763C278.219 265.108 276.868 309.794 234.336 309.794C201.504 309.794 184.856 286.011 184.856 239.096C184.856 193.997 201.819 171.132 235.283 171.132C275.017 171.132 277.586 208.064 278.58 209.818L339.065 195.904C337.506 193.523 325.87 117.963 237.638 117.963C166.618 117.963 122.5 165.952 122.5 242.433C122.5 314.238 167.634 362.963 234.806 362.963Z" fill="#38195B"/>
</g>
<defs>
<filter id="filter0_d_11_54" x="0" y="0" width="501" height="498" filterUnits="userSpaceOnUse" color-interpolation-filters="sRGB">
<feFlood flood-opacity="0" result="BackgroundImageFix"/>
<feColorMatrix in="SourceAlpha" type="matrix" values="0 0 0 0 0 0 0 0 0 0 0 0 0 0 0 0 0 0 127 0" result="hardAlpha"/>
<feOffset dx="7" dy="4"/>
<feGaussianBlur stdDeviation="2"/>
<feComposite in2="hardAlpha" operator="out"/>
<feColorMatrix type="matrix" values="0 0 0 0 0 0 0 0 0 0 0 0 0 0 0 0 0 0 0.25 0"/>
<feBlend mode="normal" in2="BackgroundImageFix" result="effect1_dropShadow_11_54"/>
<feBlend mode="normal" in="SourceGraphic" in2="effect1_dropShadow_11_54" result="shape"/>
</filter>
</defs>
</svg>
