<svg width="501" height="498" viewBox="0 0 501 498" fill="none" xmlns="http://www.w3.org/2000/svg">
<g filter="url(#filter0_d_11_60)">
<circle cx="245" cy="245" r="245" fill="#CCF381"/>
<mask id="path-2-outside-1_11_60" maskUnits="userSpaceOnUse" x="120.5" y="254.276" width="245" height="158" fill="black">
<rect fill="white" x="120.5" y="254.276" width="245" height="158"/>
<path d="M153.647 274.782C153.647 265.584 188.547 260.423 204.798 259.169L206.353 260.067C200.11 261.204 175.06 265.621 175.06 271.385C175.06 277.658 213.48 281.769 235.778 281.769C273.651 281.769 299.396 276.036 306.321 274.15L316.01 279.785C309.374 283.035 280.895 291.545 235.778 291.545C185.64 291.544 153.647 281.737 153.647 274.782M230.063 403.936C210.218 404.108 185.99 402.467 165.61 399.045L163.717 400.126C184.024 406.08 212.294 409.674 243.354 409.404C304.354 408.876 353.81 393.748 354.787 375.543L354.087 375.132C349.995 380.12 323.611 403.119 230.063 403.936M235.255 392.213C285.184 391.777 341.042 382.007 340.901 365.583C340.87 362.603 338.934 360.563 337.251 359.335L336.427 359.808C331.813 372.526 292.809 381.927 235.175 382.425C197.99 382.751 146.476 373.841 146.384 363.549C146.297 353.227 170.789 347.556 170.789 347.556L169.056 346.567C152.644 348.828 122.402 356.687 122.5 368.035C122.643 384.44 192.147 392.587 235.255 392.213M347.733 279.176C346.726 298.438 328.932 310.432 311.144 320.564L312.754 321.498C331.734 316.153 365.601 300.607 362.799 276.706C361.405 264.792 350.511 256.276 336.311 256.276C331.887 256.276 327.955 257.056 324.766 258.027L324.754 258.057L324.077 259.753C336.784 257.265 348.391 266.543 347.733 279.176M201.075 336.409C195.281 337.565 182.654 340.465 182.654 346.603C182.654 355.107 209.665 361.626 235.747 361.626C271.637 361.626 286.34 352.391 287.003 351.912L272.079 343.279C265.731 344.79 255.04 347.161 235.784 347.161C214.298 347.161 200.295 343.487 200.295 339.457C200.295 338.602 200.83 337.583 201.825 336.846L201.075 336.409ZM289.239 307.74C280.987 310.076 262.395 313.885 235.808 313.885C209.72 313.885 188.405 309.424 188.337 304.164C188.288 300.662 192.521 299.139 192.521 299.139L191.772 298.702C179.274 300.908 167.673 304.325 167.735 309.436C167.852 318.708 203.317 325.67 235.759 325.67C263.341 325.67 289.829 321.043 301.779 314.979L289.239 307.74Z"/>
</mask>
<path d="M153.647 274.782C153.647 265.584 188.547 260.423 204.798 259.169L206.353 260.067C200.11 261.204 175.06 265.621 175.06 271.385C175.06 277.658 213.48 281.769 235.778 281.769C273.651 281.769 299.396 276.036 306.321 274.15L316.01 279.785C309.374 283.035 280.895 291.545 235.778 291.545C185.64 291.544 153.647 281.737 153.647 274.782M230.063 403.936C210.218 404.108 185.99 402.467 165.61 399.045L163.717 400.126C184.024 406.08 212.294 409.674 243.354 409.404C304.354 408.876 353.81 393.748 354.787 375.543L354.087 375.132C349.995 380.12 323.611 403.119 230.063 403.936M235.255 392.213C285.184 391.777 341.042 382.007 340.901 365.583C340.87 362.603 338.934 360.563 337.251 359.335L336.427 359.808C331.813 372.526 292.809 381.927 235.175 382.425C197.99 382.751 146.476 373.841 146.384 363.549C146.297 353.227 170.789 347.556 170.789 347.556L169.056 346.567C152.644 348.828 122.402 356.687 122.5 368.035C122.643 384.44 192.147 392.587 235.255 392.213M347.733 279.176C346.726 298.438 328.932 310.432 311.144 320.564L312.754 321.498C331.734 316.153 365.601 300.607 362.799 276.706C361.405 264.792 350.511 256.276 336.311 256.276C331.887 256.276 327.955 257.056 324.766 258.027L324.754 258.057L324.077 259.753C336.784 257.265 348.391 266.543 347.733 279.176M201.075 336.409C195.281 337.565 182.654 340.465 182.654 346.603C182.654 355.107 209.665 361.626 235.747 361.626C271.637 361.626 286.34 352.391 287.003 351.912L272.079 343.279C265.731 344.79 255.04 347.161 235.784 347.161C214.298 347.161 200.295 343.487 200.295 339.457C200.295 338.602 200.83 337.583 201.825 336.846L201.075 336.409ZM289.239 307.74C280.987 310.076 262.395 313.885 235.808 313.885C209.72 313.885 188.405 309.424 188.337 304.164C188.288 300.662 192.521 299.139 192.521 299.139L191.772 298.702C179.274 300.908 167.673 304.325 167.735 309.436C167.852 318.708 203.317 325.67 235.759 325.67C263.341 325.67 289.829 321.043 301.779 314.979L289.239 307.74Z" fill="#38195B"/>
<path d="M204.798 259.169L205.798 257.437L205.262 257.127L204.644 257.175L204.798 259.169ZM206.353 260.067L206.711 262.034L212.069 261.058L207.353 258.335L206.353 260.067ZM306.321 274.15L307.326 272.421L306.602 272L305.795 272.22L306.321 274.15ZM316.01 279.785L316.89 281.581L320.249 279.936L317.016 278.056L316.01 279.785ZM235.778 291.545L235.778 293.545H235.778V291.545ZM165.61 399.045L165.941 397.072L165.237 396.954L164.617 397.308L165.61 399.045ZM163.717 400.126L162.725 398.389L158.642 400.722L163.154 402.045L163.717 400.126ZM243.354 409.404L243.336 407.404L243.336 407.404L243.354 409.404ZM354.787 375.543L356.784 375.65L356.849 374.435L355.8 373.819L354.787 375.543ZM354.087 375.132L355.1 373.407L353.625 372.541L352.54 373.863L354.087 375.132ZM340.901 365.583L342.901 365.566L342.901 365.563L340.901 365.583ZM337.251 359.335L338.43 357.719L337.381 356.954L336.254 357.601L337.251 359.335ZM336.427 359.808L335.431 358.074L334.797 358.438L334.547 359.126L336.427 359.808ZM235.175 382.425L235.158 380.425L235.157 380.425L235.175 382.425ZM146.384 363.549L144.384 363.566L144.384 363.567L146.384 363.549ZM170.789 347.556L171.24 349.505L176.218 348.352L171.78 345.819L170.789 347.556ZM169.056 346.567L170.047 344.83L169.457 344.493L168.783 344.586L169.056 346.567ZM122.5 368.035L120.5 368.053L120.5 368.053L122.5 368.035ZM311.144 320.564L310.154 318.826L307.131 320.548L310.141 322.294L311.144 320.564ZM312.754 321.498L311.751 323.228L312.482 323.652L313.296 323.423L312.754 321.498ZM362.799 276.706L360.813 276.938L360.813 276.939L362.799 276.706ZM324.766 258.027L324.183 256.113L323.269 256.392L322.911 257.278L324.766 258.027ZM324.754 258.057L322.899 257.308L322.896 257.316L324.754 258.057ZM324.077 259.753L322.22 259.012L320.86 262.421L324.462 261.716L324.077 259.753ZM201.075 336.409L202.081 334.681L201.426 334.3L200.684 334.448L201.075 336.409ZM287.003 351.912L288.175 353.532L290.674 351.725L288.004 350.18L287.003 351.912ZM272.079 343.279L273.08 341.547L272.39 341.148L271.615 341.333L272.079 343.279ZM201.825 336.846L203.015 338.452L205.456 336.644L202.83 335.117L201.825 336.846ZM289.239 307.74L290.239 306.008L289.508 305.586L288.695 305.816L289.239 307.74ZM188.337 304.164L190.337 304.138L190.337 304.136L188.337 304.164ZM192.521 299.139L193.198 301.02L197.236 299.568L193.527 297.41L192.521 299.139ZM191.772 298.702L192.777 296.974L192.145 296.606L191.424 296.733L191.772 298.702ZM167.735 309.436L165.735 309.46L165.735 309.461L167.735 309.436ZM301.779 314.979L302.685 316.762L305.976 315.092L302.779 313.247L301.779 314.979ZM155.647 274.782C155.647 274.315 155.858 273.699 156.619 272.909C157.39 272.109 158.601 271.267 160.262 270.42C163.58 268.73 168.271 267.226 173.598 265.941C184.219 263.376 196.894 261.785 204.952 261.163L204.644 257.175C196.451 257.807 183.551 259.423 172.659 262.052C167.229 263.363 162.18 264.953 158.446 266.856C156.582 267.806 154.939 268.887 153.738 270.134C152.527 271.392 151.647 272.95 151.647 274.782H155.647ZM203.798 260.901L205.353 261.799L207.353 258.335L205.798 257.437L203.798 260.901ZM205.994 258.099C202.889 258.665 194.974 260.068 187.827 262.064C184.268 263.058 180.79 264.228 178.166 265.561C176.86 266.225 175.659 266.981 174.758 267.853C173.868 268.713 173.06 269.898 173.06 271.385H177.06C177.06 271.43 177.034 271.216 177.539 270.727C178.032 270.25 178.837 269.707 179.977 269.128C182.245 267.976 185.42 266.89 188.903 265.917C195.842 263.979 203.574 262.606 206.711 262.034L205.994 258.099ZM173.06 271.385C173.06 273.25 174.456 274.521 175.662 275.308C176.977 276.164 178.761 276.904 180.8 277.558C184.907 278.876 190.534 279.997 196.768 280.908C209.258 282.734 224.535 283.769 235.778 283.769V279.769C224.723 279.769 209.64 278.748 197.346 276.95C191.188 276.05 185.816 274.966 182.022 273.749C180.111 273.136 178.72 272.526 177.846 271.956C176.864 271.317 177.06 271.088 177.06 271.385H173.06ZM235.778 283.769C273.841 283.769 299.763 278.009 306.846 276.08L305.795 272.22C299.029 274.063 273.461 279.769 235.778 279.769V283.769ZM305.315 275.879L315.005 281.514L317.016 278.056L307.326 272.421L305.315 275.879ZM315.13 277.988C308.865 281.057 280.72 289.545 235.778 289.545V293.545C281.07 293.545 309.883 285.012 316.89 281.581L315.13 277.988ZM235.778 289.545C210.827 289.544 190.451 287.103 176.364 283.823C169.308 282.181 163.912 280.346 160.326 278.548C158.527 277.645 157.276 276.797 156.505 276.056C155.705 275.289 155.647 274.863 155.647 274.782H151.647C151.647 276.44 152.589 277.842 153.735 278.942C154.909 280.069 156.549 281.128 158.533 282.123C162.513 284.12 168.248 286.041 175.457 287.719C189.902 291.082 210.592 293.544 235.778 293.545L235.778 289.545ZM230.046 401.936C210.302 402.107 186.193 400.473 165.941 397.072L165.278 401.017C185.788 404.461 210.133 406.108 230.081 405.936L230.046 401.936ZM164.617 397.308L162.725 398.389L164.709 401.863L166.602 400.781L164.617 397.308ZM163.154 402.045C183.697 408.068 212.171 411.675 243.371 411.404L243.336 407.404C212.416 407.673 184.351 404.092 164.28 398.207L163.154 402.045ZM243.371 411.404C274.009 411.139 301.822 407.209 322.162 401.016C332.32 397.923 340.719 394.234 346.684 390.081C352.591 385.969 356.49 381.127 356.784 375.65L352.79 375.436C352.595 379.061 349.946 382.937 344.399 386.798C338.91 390.619 330.949 394.159 320.997 397.189C301.114 403.243 273.698 407.141 243.336 407.404L243.371 411.404ZM355.8 373.819L355.1 373.407L353.073 376.856L353.774 377.267L355.8 373.819ZM352.54 373.863C349.012 378.165 323.378 401.12 230.046 401.936L230.081 405.936C323.843 405.117 350.978 382.076 355.633 376.4L352.54 373.863ZM235.273 394.213C260.337 393.994 286.931 391.434 307.294 386.844C317.458 384.554 326.192 381.731 332.423 378.372C338.49 375.102 342.947 370.899 342.901 365.566L338.901 365.601C338.926 368.48 336.453 371.656 330.526 374.851C324.763 377.957 316.438 380.683 306.415 382.942C286.401 387.453 260.103 389.996 235.238 390.213L235.273 394.213ZM342.901 365.563C342.86 361.642 340.307 359.089 338.43 357.719L336.072 360.95C337.561 362.038 338.88 363.564 338.901 365.604L342.901 365.563ZM336.254 357.601L335.431 358.074L337.423 361.542L338.247 361.069L336.254 357.601ZM334.547 359.126C333.658 361.576 330.928 364.247 325.85 366.859C320.849 369.431 313.918 371.768 305.238 373.749C287.893 377.709 263.888 380.177 235.158 380.425L235.192 384.425C264.096 384.175 288.409 381.694 306.129 377.649C314.981 375.628 322.268 373.199 327.679 370.416C333.014 367.672 336.889 364.399 338.307 360.49L334.547 359.126ZM235.157 380.425C216.703 380.587 194.664 378.454 177.258 375.007C168.543 373.281 161.084 371.244 155.841 369.042C153.21 367.938 151.247 366.836 149.972 365.785C148.659 364.703 148.387 363.941 148.383 363.532L144.384 363.567C144.403 365.731 145.762 367.499 147.428 368.872C149.133 370.278 151.5 371.558 154.293 372.73C159.897 375.084 167.657 377.183 176.481 378.931C194.151 382.43 216.461 384.589 235.192 384.425L235.157 380.425ZM148.383 363.533C148.369 361.801 149.382 360.021 151.472 358.206C153.539 356.411 156.387 354.829 159.364 353.51C162.32 352.201 165.295 351.196 167.541 350.518C168.662 350.18 169.594 349.925 170.243 349.755C170.567 349.67 170.82 349.606 170.991 349.565C171.076 349.544 171.14 349.528 171.182 349.518C171.203 349.513 171.219 349.51 171.228 349.507C171.233 349.506 171.236 349.505 171.238 349.505C171.239 349.505 171.24 349.504 171.24 349.504C171.24 349.504 171.24 349.504 171.24 349.504C171.24 349.504 171.24 349.505 170.789 347.556C170.337 345.608 170.337 345.608 170.336 345.608C170.336 345.608 170.335 345.608 170.335 345.608C170.334 345.609 170.332 345.609 170.33 345.609C170.326 345.61 170.32 345.612 170.314 345.613C170.3 345.616 170.28 345.621 170.255 345.627C170.204 345.639 170.131 345.657 170.037 345.68C169.848 345.726 169.575 345.795 169.23 345.885C168.54 346.066 167.56 346.334 166.385 346.689C164.042 347.396 160.9 348.455 157.744 349.853C154.608 351.242 151.35 353.014 148.849 355.186C146.371 357.337 144.355 360.137 144.384 363.566L148.383 363.533ZM171.78 345.819L170.047 344.83L168.064 348.304L169.797 349.293L171.78 345.819ZM168.783 344.586C160.471 345.731 148.652 348.291 138.874 352.025C133.995 353.888 129.506 356.087 126.206 358.626C122.959 361.124 120.468 364.267 120.5 368.053L124.5 368.018C124.484 366.13 125.736 364.034 128.645 361.796C131.501 359.599 135.579 357.565 140.301 355.762C149.722 352.164 161.229 349.664 169.329 348.548L168.783 344.586ZM120.5 368.053C120.525 370.872 122.05 373.286 124.283 375.288C126.513 377.288 129.633 379.053 133.334 380.627C140.75 383.779 150.972 386.356 162.417 388.385C185.337 392.45 213.614 394.401 235.273 394.213L235.238 390.213C213.788 390.399 185.76 388.463 163.115 384.447C151.777 382.436 141.902 379.923 134.899 376.946C131.39 375.454 128.72 373.895 126.953 372.31C125.19 370.729 124.511 369.3 124.5 368.018L120.5 368.053ZM345.736 279.071C345.267 288.048 340.899 295.419 334.33 301.866C327.732 308.343 319.034 313.768 310.154 318.826L312.134 322.302C321.041 317.228 330.135 311.59 337.132 304.721C344.159 297.823 349.193 289.566 349.731 279.28L345.736 279.071ZM310.141 322.294L311.751 323.228L313.758 319.768L312.147 318.834L310.141 322.294ZM313.296 323.423C322.926 320.711 336.374 315.406 347.113 307.684C357.783 300.012 366.317 289.535 364.786 276.473L360.813 276.939C362.084 287.778 355.085 297.025 344.777 304.437C334.538 311.799 321.563 316.94 312.212 319.573L313.296 323.423ZM364.786 276.473C363.246 263.319 351.272 254.276 336.311 254.276V258.276C349.749 258.276 359.563 266.265 360.813 276.938L364.786 276.473ZM336.311 254.276C331.653 254.276 327.523 255.097 324.183 256.113L325.348 259.94C328.387 259.015 332.122 258.276 336.311 258.276V254.276ZM322.911 257.278L322.899 257.308L326.608 258.806L326.62 258.776L322.911 257.278ZM322.896 257.316L322.22 259.012L325.935 260.494L326.611 258.798L322.896 257.316ZM324.462 261.716C336.027 259.451 346.319 267.874 345.736 279.072L349.731 279.28C350.463 265.212 337.541 255.079 323.693 257.79L324.462 261.716ZM200.684 334.448C197.775 335.028 192.997 336.073 188.915 337.795C186.879 338.653 184.888 339.732 183.376 341.1C181.851 342.48 180.654 344.31 180.654 346.603H184.654C184.654 345.826 185.036 344.992 186.06 344.066C187.096 343.128 188.624 342.259 190.469 341.481C194.148 339.929 198.581 338.946 201.466 338.371L200.684 334.448ZM180.654 346.603C180.654 349.846 183.185 352.367 186.235 354.241C189.409 356.192 193.809 357.865 198.9 359.235C209.112 361.981 222.564 363.626 235.747 363.626V359.626C222.848 359.626 209.753 358.011 199.939 355.372C195.018 354.048 191.035 352.497 188.33 350.834C185.5 349.094 184.654 347.612 184.654 346.603H180.654ZM235.747 363.626C271.959 363.626 287.099 354.31 288.175 353.532L285.831 350.291C285.842 350.283 285.618 350.436 285.109 350.72C284.62 350.992 283.897 351.369 282.927 351.814C280.987 352.705 278.06 353.869 274.033 355.026C265.98 357.34 253.519 359.626 235.747 359.626V363.626ZM288.004 350.18L273.08 341.547L271.077 345.01L286.002 353.643L288.004 350.18ZM271.615 341.333C265.377 342.819 254.845 345.161 235.784 345.161V349.161C255.235 349.161 266.086 346.762 272.542 345.224L271.615 341.333ZM235.784 345.161C225.136 345.161 216.424 344.249 210.43 342.871C207.418 342.179 205.201 341.393 203.786 340.611C203.078 340.219 202.663 339.878 202.445 339.629C202.237 339.392 202.295 339.342 202.295 339.457H198.295C198.295 340.578 198.79 341.526 199.432 342.261C200.064 342.984 200.91 343.591 201.851 344.111C203.733 345.152 206.36 346.04 209.534 346.77C215.914 348.237 224.946 349.161 235.784 349.161V345.161ZM202.295 339.457C202.295 339.436 202.306 339.306 202.425 339.096C202.54 338.894 202.732 338.663 203.015 338.452L200.634 335.239C199.257 336.259 198.295 337.826 198.295 339.457H202.295ZM202.83 335.117L202.081 334.681L200.069 338.138L200.819 338.574L202.83 335.117ZM288.695 305.816C280.621 308.101 262.212 311.885 235.808 311.885V315.885C262.577 315.885 281.353 312.05 289.784 309.665L288.695 305.816ZM235.808 311.885C222.861 311.885 211.151 310.776 202.719 309.038C198.487 308.166 195.182 307.155 192.979 306.099C191.873 305.568 191.147 305.075 190.724 304.661C190.301 304.248 190.336 304.077 190.337 304.138L186.337 304.19C186.355 305.567 187.071 306.685 187.929 307.523C188.786 308.36 189.941 309.078 191.25 309.706C193.878 310.965 197.545 312.055 201.911 312.956C210.676 314.762 222.667 315.885 235.808 315.885V311.885ZM190.337 304.136C190.325 303.286 190.815 302.557 191.639 301.916C192.033 301.61 192.439 301.377 192.753 301.221C192.907 301.144 193.032 301.089 193.113 301.055C193.153 301.038 193.181 301.027 193.196 301.021C193.204 301.018 193.208 301.017 193.208 301.017C193.209 301.017 193.208 301.017 193.206 301.018C193.205 301.018 193.204 301.018 193.203 301.019C193.202 301.019 193.202 301.019 193.201 301.02C193.2 301.02 193.2 301.02 193.2 301.02C193.199 301.02 193.198 301.02 192.521 299.139C191.844 297.257 191.843 297.257 191.843 297.257C191.842 297.257 191.842 297.257 191.841 297.258C191.84 297.258 191.839 297.258 191.838 297.259C191.835 297.26 191.833 297.261 191.83 297.262C191.824 297.264 191.818 297.266 191.81 297.269C191.794 297.275 191.774 297.283 191.751 297.292C191.704 297.31 191.642 297.335 191.566 297.366C191.415 297.43 191.21 297.521 190.968 297.641C190.489 297.88 189.841 298.247 189.182 298.759C187.901 299.756 186.3 301.54 186.337 304.193L190.337 304.136ZM193.527 297.41L192.777 296.974L190.766 300.431L191.515 300.867L193.527 297.41ZM191.424 296.733C185.138 297.842 178.953 299.276 174.306 301.121C171.991 302.04 169.93 303.11 168.419 304.383C166.91 305.655 165.71 307.344 165.735 309.46L169.735 309.412C169.73 308.973 169.956 308.318 170.996 307.442C172.033 306.569 173.642 305.688 175.782 304.839C180.044 303.146 185.908 301.768 192.119 300.672L191.424 296.733ZM165.735 309.461C165.758 311.3 166.662 312.885 167.925 314.188C169.181 315.485 170.916 316.636 172.944 317.667C177.008 319.733 182.651 321.516 189.188 322.981C202.291 325.918 219.417 327.67 235.759 327.67V323.67C219.658 323.67 202.831 321.94 190.062 319.078C183.663 317.644 178.39 315.948 174.757 314.101C172.938 313.176 171.629 312.262 170.797 311.404C169.971 310.551 169.741 309.891 169.735 309.411L165.735 309.461ZM235.759 327.67C249.655 327.67 263.282 326.505 274.958 324.571C286.589 322.645 296.437 319.933 302.685 316.762L300.874 313.195C295.171 316.089 285.8 318.722 274.304 320.625C262.853 322.521 249.445 323.67 235.759 323.67V327.67ZM302.779 313.247L290.239 306.008L288.24 309.473L300.78 316.711L302.779 313.247Z" fill="#38195B" mask="url(#path-2-outside-1_11_60)"/>
<mask id="path-4-outside-2_11_60" maskUnits="userSpaceOnUse" x="192.666" y="74.1296" width="114" height="198" fill="black">
<rect fill="white" x="192.666" y="74.1296" width="114" height="198"/>
<path d="M282.125 100.896C282.125 152.023 212.061 171.586 212.061 207.936C212.061 233.454 228.982 249.454 238.346 259.573L237.584 260.015C225.763 252.617 194.666 234.037 194.666 203.346C194.666 160.257 275.145 139.667 275.145 90.7275C275.145 84.7061 274.254 80.0858 273.627 77.5969L274.439 77.1296C276.988 80.3312 282.125 88.3431 282.125 100.896M305.166 146.173L304.325 145.694C289.081 150.8 242.138 169.331 242.138 203.875C242.138 223.407 261.216 234.234 261.216 252.55C261.216 259.087 257.523 265.213 254.525 268.875L256.03 269.747C263.974 264.586 278.032 253.41 278.032 238.983C278.032 226.762 261.123 212.077 261.123 196.372C261.124 171.623 293.75 152.207 305.166 146.173"/>
</mask>
<path d="M282.125 100.896C282.125 152.023 212.061 171.586 212.061 207.936C212.061 233.454 228.982 249.454 238.346 259.573L237.584 260.015C225.763 252.617 194.666 234.037 194.666 203.346C194.666 160.257 275.145 139.667 275.145 90.7275C275.145 84.7061 274.254 80.0858 273.627 77.5969L274.439 77.1296C276.988 80.3312 282.125 88.3431 282.125 100.896M305.166 146.173L304.325 145.694C289.081 150.8 242.138 169.331 242.138 203.875C242.138 223.407 261.216 234.234 261.216 252.55C261.216 259.087 257.523 265.213 254.525 268.875L256.03 269.747C263.974 264.586 278.032 253.41 278.032 238.983C278.032 226.762 261.123 212.077 261.123 196.372C261.124 171.623 293.75 152.207 305.166 146.173" fill="#38195B"/>
<path d="M238.346 259.573L239.351 261.302L241.51 260.048L239.814 258.214L238.346 259.573ZM237.584 260.015L236.523 261.711L237.546 262.351L238.589 261.745L237.584 260.015ZM273.627 77.5969L272.629 75.8639L271.319 76.6186L271.688 78.085L273.627 77.5969ZM274.439 77.1296L276.003 75.8838L274.931 74.5378L273.44 75.3966L274.439 77.1296ZM304.325 145.694L305.314 143.956L304.537 143.514L303.689 143.798L304.325 145.694ZM254.525 268.875L252.977 267.608L251.488 269.427L253.522 270.605L254.525 268.875ZM256.03 269.747L255.027 271.478L256.089 272.093L257.119 271.424L256.03 269.747ZM261.123 196.372L259.123 196.372V196.372H261.123ZM280.125 100.896C280.125 125.474 263.322 142.599 245.752 158.474C237.071 166.317 228.163 173.896 221.483 181.772C214.78 189.675 210.061 198.163 210.061 207.936H214.061C214.061 199.534 218.1 191.946 224.534 184.359C230.99 176.747 239.599 169.423 248.434 161.442C265.896 145.665 284.125 127.446 284.125 100.896H280.125ZM210.061 207.936C210.061 234.374 227.644 250.952 236.878 260.931L239.814 258.214C230.321 247.955 214.061 232.533 214.061 207.936H210.061ZM237.342 257.843L236.58 258.286L238.589 261.745L239.351 261.302L237.342 257.843ZM238.645 258.32C232.705 254.603 222.179 248.225 213.118 239.013C204.065 229.809 196.666 217.967 196.666 203.346H192.666C192.666 219.417 200.816 232.21 210.266 241.818C219.71 251.419 230.642 258.03 236.523 261.711L238.645 258.32ZM196.666 203.346C196.666 193.246 201.37 184.33 208.756 175.759C216.165 167.162 226.07 159.139 236.181 150.771C246.22 142.462 256.441 133.829 264.135 124.156C271.856 114.449 277.145 103.559 277.145 90.7275H273.145C273.145 102.366 268.373 112.402 261.005 121.666C253.609 130.964 243.71 139.348 233.63 147.69C223.622 155.973 213.406 164.236 205.726 173.148C198.023 182.086 192.666 191.902 192.666 203.346H196.666ZM277.145 90.7275C277.145 84.5118 276.225 79.7257 275.567 77.1089L271.688 78.085C272.282 80.446 273.145 84.9004 273.145 90.7275H277.145ZM274.626 79.33L275.437 78.8627L273.44 75.3966L272.629 75.8639L274.626 79.33ZM272.874 78.3755C275.23 81.3345 280.125 88.9202 280.125 100.896H284.125C284.125 87.766 278.746 79.3278 276.003 75.8838L272.874 78.3755ZM306.155 144.435L305.314 143.956L303.335 147.433L304.177 147.911L306.155 144.435ZM303.689 143.798C295.996 146.374 280.238 152.357 266.365 162.109C252.544 171.824 240.138 185.615 240.138 203.875H244.138C244.138 187.591 255.203 174.844 268.665 165.381C282.074 155.956 297.409 150.12 304.96 147.591L303.689 143.798ZM240.138 203.875C240.138 214.305 245.257 222.362 249.993 229.748C254.827 237.286 259.216 244.077 259.216 252.55H263.216C263.216 242.707 258.065 234.926 253.36 227.589C248.558 220.099 244.138 212.977 244.138 203.875H240.138ZM259.216 252.55C259.216 258.403 255.865 264.081 252.977 267.608L256.072 270.142C259.181 266.345 263.216 259.772 263.216 252.55H259.216ZM253.522 270.605L255.027 271.478L257.032 268.017L255.527 267.145L253.522 270.605ZM257.119 271.424C261.173 268.791 266.847 264.587 271.527 259.144C276.197 253.712 280.032 246.863 280.032 238.983H276.032C276.032 245.53 272.839 251.482 268.494 256.536C264.158 261.578 258.831 265.543 254.94 268.07L257.119 271.424ZM280.032 238.983C280.032 235.49 278.83 231.963 277.197 228.521C275.563 225.077 273.387 221.504 271.3 217.968C267.027 210.729 263.123 203.593 263.123 196.372H259.123C259.123 204.857 263.673 212.916 267.855 220.001C269.995 223.627 272.047 226.998 273.583 230.236C275.12 233.474 276.032 236.366 276.032 238.983H280.032ZM263.123 196.372C263.123 184.871 270.738 174.334 280.208 165.735C289.612 157.196 300.456 150.925 306.101 147.941L304.232 144.405C298.46 147.455 287.282 153.909 277.519 162.774C267.822 171.579 259.123 183.124 259.123 196.372L263.123 196.372Z" fill="#38195B" mask="url(#path-4-outside-2_11_60)"/>
</g>
<defs>
<filter id="filter0_d_11_60" x="0" y="0" width="501" height="498" filterUnits="userSpaceOnUse" color-interpolation-filters="sRGB">
<feFlood flood-opacity="0" result="BackgroundImageFix"/>
<feColorMatrix in="SourceAlpha" type="matrix" values="0 0 0 0 0 0 0 0 0 0 0 0 0 0 0 0 0 0 127 0" result="hardAlpha"/>
<feOffset dx="7" dy="4"/>
<feGaussianBlur stdDeviation="2"/>
<feComposite in2="hardAlpha" operator="out"/>
<feColorMatrix type="matrix" values="0 0 0 0 0 0 0 0 0 0 0 0 0 0 0 0 0 0 0.25 0"/>
<feBlend mode="normal" in2="BackgroundImageFix" result="effect1_dropShadow_11_60"/>
<feBlend mode="normal" in="SourceGraphic" in2="effect1_dropShadow_11_60" result="shape"/>
</filter>
</defs>
</svg>
