<svg width="501" height="498" viewBox="0 0 501 498" fill="none" xmlns="http://www.w3.org/2000/svg">
<g filter="url(#filter0_d_11_76)">
<circle cx="245" cy="245" r="245" fill="#CCF381"/>
</g>
<path d="M202.998 390.029C193.108 395.765 191.233 396.444 181.942 399.738C179.693 400.511 176.293 401.874 183.224 405.86L229.765 433.805C234.205 436.42 239.343 437.79 244.394 437.79L244.431 437.821C249.551 437.821 254.602 436.439 259.048 433.836L398.371 352.22C407.42 346.864 413 336.981 413 326.418V163.28C413 152.643 407.432 142.753 398.371 137.485L259.048 55.7881C250.304 50.7373 238.602 50.7373 229.777 55.7881L90.6167 137.404C81.5864 142.691 76 152.643 76 163.206V326.337C76 336.981 81.5677 346.864 90.6167 352.139L127.124 373.501C144.78 382.394 151.101 382.394 159.173 382.394C185.342 382.394 200.426 366.32 200.426 338.295V177.156C200.426 174.877 198.551 173.108 196.353 173.108H178.703C176.436 173.108 174.624 174.858 174.624 177.156V338.22C174.624 350.694 161.95 363.019 141.199 352.538L103.041 330.18C101.708 329.488 100.874 327.963 100.874 326.418V163.28C100.874 161.692 101.708 160.148 103.054 159.375L242.214 77.7598C243.485 76.9876 245.229 76.9876 246.518 77.7598L385.753 159.295C387.105 160.135 387.939 161.593 387.939 163.206V326.418C387.939 327.932 387.117 329.47 385.834 330.242L246.518 411.858C245.31 412.63 243.497 412.63 242.214 411.858L206.46 390.353C205.402 389.662 204.057 389.419 202.998 390.029Z" fill="#38195B"/>
<path d="M287.403 300.679C250.528 300.679 242.438 291.262 239.742 272.66C239.437 270.667 237.786 269.222 235.75 269.222H217.726C215.466 269.222 213.734 271.053 213.734 273.27C213.734 297.079 226.47 325.484 287.484 325.484C331.515 325.403 356.887 307.741 356.887 276.951L356.837 276.969C356.837 246.428 336.472 238.307 293.712 232.571C250.416 226.748 246.051 223.759 246.051 213.502C246.051 205.013 249.756 193.685 281.804 193.685C310.396 193.685 320.959 199.95 325.325 219.549C325.692 221.398 327.361 222.762 329.254 222.762H347.352C348.48 222.762 349.538 222.314 350.292 221.461C351.045 220.607 351.413 219.468 351.351 218.328C348.561 184.567 326.464 168.879 281.804 168.879C242.052 168.879 218.368 185.887 218.368 214.417C218.368 245.351 241.971 253.933 280.067 257.744C325.704 262.278 329.236 269.079 329.236 278.19C329.267 293.959 316.755 300.679 287.403 300.679Z" fill="#38195B"/>
<defs>
<filter id="filter0_d_11_76" x="0" y="0" width="501" height="498" filterUnits="userSpaceOnUse" color-interpolation-filters="sRGB">
<feFlood flood-opacity="0" result="BackgroundImageFix"/>
<feColorMatrix in="SourceAlpha" type="matrix" values="0 0 0 0 0 0 0 0 0 0 0 0 0 0 0 0 0 0 127 0" result="hardAlpha"/>
<feOffset dx="7" dy="4"/>
<feGaussianBlur stdDeviation="2"/>
<feComposite in2="hardAlpha" operator="out"/>
<feColorMatrix type="matrix" values="0 0 0 0 0 0 0 0 0 0 0 0 0 0 0 0 0 0 0.25 0"/>
<feBlend mode="normal" in2="BackgroundImageFix" result="effect1_dropShadow_11_76"/>
<feBlend mode="normal" in="SourceGraphic" in2="effect1_dropShadow_11_76" result="shape"/>
</filter>
</defs>
</svg>
