<svg width="501" height="498" viewBox="0 0 501 498" fill="none" xmlns="http://www.w3.org/2000/svg">
<g filter="url(#filter0_d_11_35)">
<circle cx="245" cy="245" r="245" fill="#CCF381"/>
<path d="M204.167 58.9814H406.065L410.602 367.5H204.167V58.9814Z" fill="#8993A6"/>
<path d="M279.777 288.516C288.652 303.823 300.199 315.075 320.621 315.075C337.776 315.075 348.735 306.017 348.735 293.503C348.735 278.506 337.475 273.195 318.592 264.47L308.241 259.779C278.364 246.333 258.515 229.489 258.515 193.882C258.515 161.081 282.175 136.111 319.151 136.111C345.475 136.111 364.4 145.788 378.038 171.128L345.797 192.995C338.698 179.55 331.04 174.253 319.151 174.253C307.024 174.253 299.337 182.38 299.337 192.995C299.337 206.116 307.031 211.427 324.794 219.554L335.145 224.237C370.324 240.172 390.185 256.417 390.185 292.941C390.185 332.317 360.902 353.889 321.577 353.889C283.125 353.889 258.284 334.533 246.129 309.164L279.777 288.516ZM133.518 292.306C140.022 304.496 145.939 314.801 160.164 314.801C173.766 314.801 182.348 309.179 182.348 287.32V138.608H223.751V287.91C223.751 333.195 198.616 353.807 161.926 353.807C128.776 353.807 109.579 335.685 99.8148 313.859L133.518 292.306Z" fill="#38195B"/>
</g>
<defs>
<filter id="filter0_d_11_35" x="0" y="0" width="501" height="498" filterUnits="userSpaceOnUse" color-interpolation-filters="sRGB">
<feFlood flood-opacity="0" result="BackgroundImageFix"/>
<feColorMatrix in="SourceAlpha" type="matrix" values="0 0 0 0 0 0 0 0 0 0 0 0 0 0 0 0 0 0 127 0" result="hardAlpha"/>
<feOffset dx="7" dy="4"/>
<feGaussianBlur stdDeviation="2"/>
<feComposite in2="hardAlpha" operator="out"/>
<feColorMatrix type="matrix" values="0 0 0 0 0 0 0 0 0 0 0 0 0 0 0 0 0 0 0.25 0"/>
<feBlend mode="normal" in2="BackgroundImageFix" result="effect1_dropShadow_11_35"/>
<feBlend mode="normal" in="SourceGraphic" in2="effect1_dropShadow_11_35" result="shape"/>
</filter>
</defs>
</svg>
