<svg width="501" height="498" viewBox="0 0 501 498" fill="none" xmlns="http://www.w3.org/2000/svg">
<g filter="url(#filter0_d_11_32)">
<circle cx="245" cy="245" r="245" fill="#CCF381"/>
<path d="M389.527 272.669C383.957 274.783 384.183 274.82 381.237 269.435C377.474 262.575 375.473 255.361 375.3 247.516C375.157 240.783 376.994 234.525 379.303 228.387C381.146 223.505 378.748 221.783 374.535 221.339C371.47 221.023 368.307 221.053 365.234 221.369C357.244 222.189 356.457 222.881 354.336 230.666C353.077 235.285 352.072 239.941 349.981 244.326C344.824 255.12 338.963 265.516 332.952 275.836C331.872 277.694 330.981 279.694 329.459 281.282C325.104 274.737 323.463 267.509 323.096 259.926C322.729 252.442 325.015 245.484 327.525 238.601C328.373 236.285 327.668 234.848 325.674 233.847C324.79 233.404 323.8 232.99 322.833 232.914C317.707 232.508 312.595 232.568 307.595 233.975C305.347 234.599 303.878 235.863 303.375 238.398C302.401 243.355 300.88 248.169 298.826 252.802C293.129 265.635 287.47 278.49 281.781 291.33C276.835 302.486 271.963 313.671 266.102 324.382C265.689 325.142 265.345 326.458 264.31 326.195C263.261 325.932 263.628 324.638 263.583 323.75C263.246 317.432 264.962 311.406 266.424 305.374C268.74 295.828 271.273 286.328 273.732 276.813C274.436 274.082 273.252 272.246 270.996 270.938C267.751 269.065 264.52 268.975 261.005 271.599C261.485 267.718 261.694 264.31 261.529 260.903C261.155 253.306 257.647 248.364 251.539 247.22C247.079 246.385 242.859 247.687 238.871 249.582C229.577 253.998 222.105 260.655 215.823 268.733C215.089 269.674 214.347 270.539 213.283 271.118C201.493 277.564 189.71 284.011 177.95 290.517C176.661 291.239 175.829 291.036 174.9 290.035C168.978 283.664 162.106 278.406 155.3 273.074C145.788 265.612 135.947 258.541 127.74 249.545C122.943 244.28 118.94 238.51 116.939 231.545C113.671 220.157 116.115 209.551 121.556 199.471C127.995 187.549 137.544 178.342 148.074 170.143C164.796 157.13 183.137 146.794 202.467 138.287C224.113 128.772 246.569 122.641 270.486 123.567C279.96 123.935 289.156 125.582 297.596 130.238C303.57 133.533 307.527 138.295 308.644 145.282C309.956 153.466 307.999 161.026 304.38 168.195C296.293 184.209 283.438 195.552 268.245 204.436C255.593 211.83 241.944 216.524 227.501 218.983C219.518 220.344 211.506 221.164 203.478 219.938C194.267 218.532 185.752 215.441 179.449 207.993C178.722 207.136 177.8 206.541 176.563 207.143C175.296 207.76 175.394 208.888 175.514 209.972C175.603 210.716 175.806 211.468 176.068 212.176C177.755 216.742 180.91 220.187 184.605 223.196C194.214 231.041 205.599 233.343 217.554 233.577C229.254 233.81 240.775 232.32 252.175 229.583C277.891 223.415 299.432 210.755 315.157 189.061C324.556 176.093 330.508 161.802 329.983 145.449C329.646 135.076 326.167 125.914 318.635 118.468C309.678 109.629 298.563 105.184 286.638 102.514C273.356 99.5499 259.94 99.1287 246.388 100.754C234.598 102.167 223.078 104.59 211.865 108.463C194.708 114.398 178.137 121.687 162.277 130.548C146.028 139.619 130.714 150.008 117.283 163.02C105.396 174.536 95.18 187.241 89.4235 203.015C86.9653 209.769 85.1964 216.713 86.8455 224.017C88.9594 233.419 93.576 241.558 99.6474 248.899C108.829 260.017 120.095 268.772 131.712 277.137C141.044 283.861 150.81 289.984 159.774 297.213C162.315 299.258 162.3 299.258 159.31 300.831C155.817 302.658 152.286 304.419 148.854 306.367C135.011 314.22 121.632 322.735 110.711 334.568C105.337 340.398 101.687 346.942 99.986 354.208C108.875 367.537 119.451 379.632 131.406 390.185C151.801 388.591 167.413 377.939 178.948 360.323C184.517 351.816 187.126 342.188 188.108 332.032C188.97 323.081 188.062 314.416 185.439 305.871C184.982 304.366 183.281 302.869 183.948 301.546C184.57 300.327 186.444 299.71 187.823 298.913C193.384 295.671 198.961 292.474 204.687 289.172C204.934 290.406 204.455 291.128 204.245 291.91C200.962 303.998 198.676 316.184 201.172 328.746C202.724 336.568 205.31 343.932 210.226 350.409C215.285 357.074 226.581 356.313 231.167 350.228C235.522 344.451 238.408 337.937 241.414 331.453C243.063 327.903 244.576 324.292 246.151 320.704C245.858 325.022 245.873 329.234 246.031 333.431C246.188 337.568 246.848 341.653 248.991 345.309C251.569 349.701 256.419 350.98 260.924 348.633C265.676 346.158 268.914 342.081 271.432 337.658C282.233 318.636 292.253 299.206 300.551 278.919C302.32 274.609 304.134 270.306 306.135 265.515C306.442 267.087 306.645 268.05 306.832 269.013C308.676 278.679 311.959 287.825 316.711 296.423C317.73 298.266 317.618 299.537 316.329 301.304C311.952 307.284 307.154 312.911 302.425 318.597C298.453 323.382 294.202 327.955 290.845 333.22C287.832 337.959 289.563 342.811 294.578 343.887C296.121 344.218 297.748 344.316 299.33 344.293C308.092 344.188 316.179 341.562 323.712 337.26C333.853 331.46 339.865 322.96 339.587 310.857C339.459 305.351 337.975 300.063 335.764 295.016C335.277 293.895 335.254 293.083 335.982 292.029C343.005 281.935 349.211 271.352 354.915 260.46C355.927 258.542 356.638 256.413 358.272 254.54C358.49 255.3 358.662 255.774 358.76 256.263C360.574 265.289 363.017 274.112 367.604 282.169C368.863 284.373 368.234 285.493 366.495 286.967C360.506 292.075 355.455 298.032 351.49 304.855C348.401 310.165 346.288 315.837 346.31 322.058C346.333 328.978 351.609 333.055 358.333 331.43C365.341 329.745 371.839 326.879 377.67 322.599C390.375 313.264 394.1 303.418 390.12 289.675C388.561 284.267 388.591 284.358 393.995 282.718C405.815 279.137 417.807 278.987 429.859 280.958C431.224 281.183 432.573 281.439 433.906 281.732C434.611 277.437 435.165 273.089 435.555 268.689C420.137 264.907 404.742 266.87 389.527 272.669ZM139.771 369.44C136.345 370.658 132.785 371.177 129.142 370.892C124.607 370.53 121.729 367.319 121.437 362.489C121.107 356.923 122.749 351.898 125.177 347.009C129.591 338.133 137.004 332.108 144.567 326.196C151.92 320.442 159.82 315.529 167.81 310.753C170.231 309.309 170.268 309.324 170.822 312.22C171.542 315.936 172.187 319.659 171.947 323.037C172.577 343.293 157.917 362.993 139.771 369.44ZM249.785 267.298C248.511 275.836 245.73 283.967 242.77 292C238.737 302.967 234.81 313.987 229.736 324.533C228.574 326.962 227.352 329.377 225.471 331.355C223.695 333.228 222.121 333.01 220.892 330.723C218.493 326.255 218.793 321.283 218.404 317.672C218.516 299.559 224.572 284.756 234.548 271.45C237.336 267.741 240.896 264.725 245.611 263.514C248.811 262.695 250.288 263.989 249.785 267.298ZM319.641 320.923C316.223 326.85 311.299 331.16 305.258 334.229C304.613 334.552 303.781 335.124 303.197 334.364C302.642 333.649 303.534 333.176 303.939 332.724C309.943 326.142 315.871 319.508 321.215 312.37C321.298 312.257 321.5 312.242 321.957 312.046C321.904 315.349 321.185 318.253 319.641 320.923ZM361.097 320.667C360.206 321.088 359.171 321.878 358.302 321.201C357.343 320.457 357.724 319.14 358.017 318.132C359.381 313.537 361.218 309.136 363.751 305.036C365.879 301.584 368.518 298.567 371.418 295.754C372.587 294.626 373.112 294.761 373.509 296.386C373.921 298.048 373.959 299.711 373.989 301.403C373.914 310.663 369.229 316.824 361.097 320.667Z" fill="#38195B"/>
</g>
<defs>
<filter id="filter0_d_11_32" x="0" y="0" width="501" height="498" filterUnits="userSpaceOnUse" color-interpolation-filters="sRGB">
<feFlood flood-opacity="0" result="BackgroundImageFix"/>
<feColorMatrix in="SourceAlpha" type="matrix" values="0 0 0 0 0 0 0 0 0 0 0 0 0 0 0 0 0 0 127 0" result="hardAlpha"/>
<feOffset dx="7" dy="4"/>
<feGaussianBlur stdDeviation="2"/>
<feComposite in2="hardAlpha" operator="out"/>
<feColorMatrix type="matrix" values="0 0 0 0 0 0 0 0 0 0 0 0 0 0 0 0 0 0 0.25 0"/>
<feBlend mode="normal" in2="BackgroundImageFix" result="effect1_dropShadow_11_32"/>
<feBlend mode="normal" in="SourceGraphic" in2="effect1_dropShadow_11_32" result="shape"/>
</filter>
</defs>
</svg>
