<svg width="501" height="498" viewBox="0 0 501 498" fill="none" xmlns="http://www.w3.org/2000/svg">
<g filter="url(#filter0_d_11_72)">
<circle cx="245" cy="245" r="245" fill="#CCF381"/>
</g>
<path d="M436.16 219.568L270.842 54.5469C263.832 47.5156 254.598 44 245.363 44C236.129 44 226.895 47.5156 219.884 54.5469L187.191 87.1823L227.65 127.568C241.087 119.682 258.598 121.391 270.124 132.896C281.65 144.396 283.322 161.875 275.426 175.255L315.197 214.958C328.639 207.073 346.145 208.781 357.671 220.286C371.353 233.938 371.353 256.063 357.671 269.714C343.993 283.37 321.832 283.37 308.15 269.714C296.629 258.214 294.915 240.734 302.816 227.318L263.046 187.615C260.207 189.286 257.228 190.516 254.118 191.302V298.661C269.202 302.557 280.384 316.109 280.384 332.391C280.384 351.714 264.717 367.349 245.363 367.349C226.009 367.349 210.342 351.714 210.342 332.391C210.342 316.109 221.525 302.557 236.608 298.661V191.302C230.759 189.802 225.186 186.896 220.603 182.323C209.077 170.818 207.405 153.344 215.301 139.958L174.811 99.5417L54.5664 219.568C40.4779 233.599 40.4779 256.401 54.5664 270.432L219.884 435.453C226.895 442.484 236.129 446 245.363 446C254.598 446 263.832 442.484 270.842 435.453L436.16 270.432C450.249 256.401 450.249 233.599 436.16 219.568Z" fill="#38195B"/>
<defs>
<filter id="filter0_d_11_72" x="0" y="0" width="501" height="498" filterUnits="userSpaceOnUse" color-interpolation-filters="sRGB">
<feFlood flood-opacity="0" result="BackgroundImageFix"/>
<feColorMatrix in="SourceAlpha" type="matrix" values="0 0 0 0 0 0 0 0 0 0 0 0 0 0 0 0 0 0 127 0" result="hardAlpha"/>
<feOffset dx="7" dy="4"/>
<feGaussianBlur stdDeviation="2"/>
<feComposite in2="hardAlpha" operator="out"/>
<feColorMatrix type="matrix" values="0 0 0 0 0 0 0 0 0 0 0 0 0 0 0 0 0 0 0.25 0"/>
<feBlend mode="normal" in2="BackgroundImageFix" result="effect1_dropShadow_11_72"/>
<feBlend mode="normal" in="SourceGraphic" in2="effect1_dropShadow_11_72" result="shape"/>
</filter>
</defs>
</svg>
