<svg width="461" height="91" viewBox="0 0 461 91" fill="none" xmlns="http://www.w3.org/2000/svg">
<g opacity="0.75">
<path d="M154.504 90.9905C179.63 90.9905 199.999 70.6216 199.999 45.4953C199.999 20.3689 179.63 0 154.504 0C129.378 0 109.009 20.3689 109.009 45.4953C109.009 70.6216 129.378 90.9905 154.504 90.9905Z" fill="url(#paint0_linear_206_300)"/>
</g>
<g opacity="0.75">
<path d="M45.505 90.9905C70.6314 90.9905 91.0003 70.6216 91.0003 45.4953C91.0003 20.3689 70.6314 0 45.505 0C20.3786 0 0.00976562 20.3689 0.00976562 45.4953C0.00976562 70.6216 20.3786 90.9905 45.505 90.9905Z" fill="url(#paint1_linear_206_300)"/>
</g>
<path opacity="0.75" d="M100.479 90.9905C125.605 90.9905 145.974 70.6216 145.974 45.4953C145.974 20.3689 125.605 0 100.479 0C75.3523 0 54.9834 20.3689 54.9834 45.4953C54.9834 70.6216 75.3523 90.9905 100.479 90.9905Z" fill="url(#paint2_linear_206_300)"/>
<path d="M188.854 23.6667C188.854 22.1354 188.521 19.401 185.12 19.401C174.589 19.401 152.057 39.4635 132.594 55.9948C137.396 49.7292 142.328 43.3958 148.927 34.7292C156.526 24.7969 163.323 15.7344 163.323 13.2656C163.323 11.7344 162.589 9 158.391 9C153.656 9 144.328 14.1979 133.458 22C134.927 20.1354 135.927 18.9323 136.26 18.5313C136.792 17.8646 136.995 17.401 136.995 17C136.995 16.3333 136.193 16.0677 135.328 16.0677C134.193 16.0677 132.927 16.401 132.661 16.8646C132.458 17.1979 127.396 23.4635 120.328 32C96 51.5313 70 77.6615 70 86.0573C70 87.5938 71.5313 89.125 73.4687 89.125C77.8646 89.125 107.927 53.1979 124.859 32.5313C136.859 23.1979 151.458 12.7344 157.391 12.7344C158.125 12.7344 158.458 13.1354 158.458 13.6667C158.458 16.9323 144.859 32.8646 140.328 39C138.661 41.8646 111.531 77.9271 109.661 79.9271C109.328 80.2604 109.198 80.5938 109.198 80.9271C109.198 81.8594 110.729 82.4583 111.865 82.4583C112.396 82.4583 112.797 82.3958 113.063 82.125C114.063 81.125 129.063 63.2604 142.927 51.3958C165.193 32.2656 180.786 23.1979 183.854 23.1979C184.188 23.1979 184.589 23.401 184.589 24.0677C184.589 26.2656 177.589 34.0625 169.125 44.1302C161.99 52.6615 148.792 69.5938 148.792 76.2604C148.792 77.9948 149.724 80.0625 152.391 80.0625C156.057 80.0625 156.792 75.9948 155.859 76.9271C155.526 77.2604 155.193 77.3958 154.792 77.3958C153.99 77.3958 153.193 76.7917 153.193 75.7292C153.193 70.3281 162.656 58.2604 171.854 46.8646C180.453 36.1979 188.854 26.9323 188.854 23.6667ZM76.7344 81.9271C76.3333 82.1927 76.1302 82.2604 76 82.2604C72.401 82.4583 95.3333 58.1302 108.995 45.599C95.3333 61.9948 80.1302 79.7292 76.7344 81.9271Z" fill="black"/>
<path d="M205.115 53.0624C202.781 55.3958 186.448 71.1301 184.849 69.4635C182.583 67.1301 199.25 46.1979 201.583 45.8645C203.182 45.6614 200.38 42.2656 198.979 43.1301C197.849 43.7968 196.448 45.3281 195.318 46.6614C194.516 45.1301 192.047 43.4635 189.38 43.4635C184.318 43.4635 168.984 59.2604 168.984 65.1301C168.984 67.526 170.786 69.3281 172.318 69.3281C174.516 69.3281 180.583 63.9947 185.651 59.2604C182.849 63.4635 181.318 66.7968 181.318 69.6614C181.318 71.1926 182.917 73.4635 184.516 73.4635C188.583 73.4635 203.25 58.3281 204.516 57.1301C206.38 55.4635 206.313 51.8645 205.115 53.0624ZM172.318 65.3281C170.786 63.2604 184.516 47.0624 189.318 47.0624C190.849 47.0624 192.182 48.5989 192.448 49.2656C189.583 52.6614 173.516 66.927 172.318 65.3281Z" fill="black"/>
<path d="M226.709 51.5312C227.376 51.5312 228.11 51.7291 228.777 51.7291C229.308 51.7291 229.709 51.5989 229.975 51.2656C230.11 51.1302 230.178 50.9323 230.178 50.6614C230.178 49.3958 228.178 47.4635 226.579 47.4635C226.245 47.4635 225.777 47.6614 225.308 47.9948C225.376 47.7968 225.376 47.5989 225.376 47.3958C225.376 45.7291 224.245 43.1979 222.11 43.1979C220.376 43.1979 217.11 44.6614 212.511 47.2656C207.912 49.8645 202.912 53.3958 202.912 55.3958C202.912 56.5937 203.579 57.927 204.646 57.927C205.714 57.927 206.381 57.3958 206.912 56.3281C207.98 54.1302 210.844 51.7291 214.178 49.8645C216.709 48.4635 219.646 47.1979 220.777 47.1979C221.11 47.1979 221.376 47.2656 221.579 47.4635C222.11 48.1302 220.579 51.7968 215.511 56.8645C210.443 61.927 203.511 66.3281 200.579 66.526C200.646 65.0625 199.912 63.2604 198.579 63.2604C197.245 63.2604 195.646 64.3281 195.646 66.526C195.646 68.0625 196.313 70.526 199.381 70.526C202.782 70.526 209.912 65.5937 215.844 60.1302C214.777 62.2604 214.313 63.927 214.313 65.4635C214.313 67.9948 215.844 69.1302 217.777 69.1302C221.376 69.1302 226.844 64.1927 228.245 62.5312C229.844 60.6614 230.844 58.2604 228.912 59.8645C226.844 61.5937 221.98 65.2604 219.511 65.2604C218.245 65.2604 217.912 64.4635 217.912 63.4635C217.912 59.927 224.308 51.5312 226.709 51.5312Z" fill="black"/>
<path d="M362.03 23.401C353.764 23.401 328.697 38.1979 290.301 70.1927C292.77 66.1302 296.233 61.0625 305.165 48.7969C316.967 32.599 327.962 21.1979 327.962 19.6667C327.962 18.1354 326.233 17.1979 325.566 17.1979C323.431 17.1979 307.301 28.7969 291.702 41.3958C273.171 56.3281 256.436 69.7969 252.103 73.4635C271.905 46.9948 303.566 11.0677 303.566 6.73438C303.566 2.26562 301.368 1 300.233 1C289.368 1 244.973 34.4635 244.973 38.0625C244.973 39.8646 246.775 40.6667 247.374 39.9323C248.441 38.7292 250.77 36.2656 265.77 24.7344C278.504 14.9323 294.233 5 298.832 4.59896C299.499 4.53646 299.832 5 299.832 5.53646C299.832 10.5365 246.905 69.3281 246.905 75.9271C246.905 77.8594 248.441 79.3958 249.775 79.3958C252.77 79.3958 292.702 42.5313 320.233 24.401L301.832 47.3281C290.77 61.1302 284.171 72.0625 284.171 74.2604C284.171 76.4583 285.436 76.526 286.77 76.526C287.301 76.526 292.9 72.3281 300.035 66.6615C323.764 47.7292 355.759 24.2656 364.363 27.7344C365.025 28 365.025 27.401 365.025 26.5313C365.025 25.2656 364.493 23.401 362.03 23.401Z" fill="black"/>
<path d="M365.823 53.0624C363.489 55.3958 347.156 71.1301 345.557 69.4635C343.291 67.1301 359.958 46.1979 362.291 45.8645C363.89 45.6614 361.088 42.2656 359.687 43.1301C358.557 43.7968 357.156 45.3281 356.026 46.6614C355.224 45.1301 352.755 43.4635 350.088 43.4635C345.026 43.4635 329.692 59.2604 329.692 65.1301C329.692 67.526 331.494 69.3281 333.026 69.3281C335.224 69.3281 341.291 63.9947 346.359 59.2604C343.557 63.4635 342.026 66.7968 342.026 69.6614C342.026 71.1926 343.625 73.4635 345.224 73.4635C349.291 73.4635 363.958 58.3281 365.224 57.1301C367.088 55.4635 367.021 51.8645 365.823 53.0624ZM333.026 65.3281C331.494 63.2604 345.224 47.0624 350.026 47.0624C351.557 47.0624 352.89 48.5989 353.156 49.2656C350.291 52.6614 334.224 66.927 333.026 65.3281Z" fill="black"/>
<path d="M389.818 52.7969C387.886 54.0625 385.485 54.3959 384.021 54.3959C383.152 54.3959 382.287 53.9948 382.287 52.7969C382.287 50.7969 384.886 47.1302 386.152 46.198C387.417 45.2657 384.219 42.198 383.021 43.6615C382.021 44.9323 372.355 53.1302 364.553 60.5938C370.553 52.6615 375.485 46.7292 376.021 46.599C378.021 46.1302 374.287 42.3334 372.954 43.9323C369.485 48.0625 355.49 66.5261 355.49 70.1927C355.49 72.0625 357.021 74.5938 358.021 73.1927C366.089 61.7292 375.417 53.7292 378.886 51.198C378.751 51.7292 378.751 52.2657 378.751 52.9948C378.751 55.4636 379.688 57.8646 383.355 57.8646C386.219 57.8646 388.016 56.6615 389.35 55.5313C390.683 54.3959 391.553 51.6615 389.818 52.7969Z" fill="black"/>
<path d="M412.948 52.7969C411.016 54.0625 408.615 54.3959 407.151 54.3959C406.282 54.3959 405.417 53.9948 405.417 52.7969C405.417 50.7969 408.016 47.1302 409.282 46.198C410.547 45.2657 407.349 42.198 406.151 43.6615C405.151 44.9323 395.485 53.1302 387.683 60.5938C393.683 52.6615 398.615 46.7292 399.151 46.599C401.151 46.1302 397.417 42.3334 396.084 43.9323C392.615 48.0625 378.62 66.5261 378.62 70.1927C378.62 72.0625 380.151 74.5938 381.151 73.1927C389.219 61.7292 398.547 53.7292 402.016 51.198C401.881 51.7292 401.881 52.2657 401.881 52.9948C401.881 55.4636 402.818 57.8646 406.485 57.8646C409.349 57.8646 411.146 56.6615 412.479 55.5313C413.813 54.3959 414.683 51.6615 412.948 52.7969Z" fill="black"/>
<path d="M430.812 52.9948C423.479 59.9948 411.145 71.1302 408.348 67.8594C407.348 66.7292 408.281 64.0625 410.145 61.0625C418.682 57.6615 428.744 50.8646 428.947 46.7969C429.01 44.8646 427.213 43.3281 425.479 43.2656C419.88 43.0625 404.88 58.7969 404.614 66.526C404.546 69.0625 406.416 71.7969 408.812 71.8594C412.213 71.9948 416.947 69.0625 427.744 59.3958C431.411 56.1302 432.078 51.7292 430.812 52.9948ZM424.281 47.6615C425.614 49.0625 418.682 53.4635 413.546 56.1979C417.744 50.9323 422.947 46.3281 424.281 47.6615Z" fill="black"/>
<path d="M421.944 73.4636C422.877 73.4636 424.278 70.9271 427.346 67.3959C430.944 63.1302 446.741 49.8646 447.674 50.5313C448.611 51.1979 438.346 61.9271 438.346 66.7969C438.346 68.3282 439.944 70.5938 442.075 70.5938C446.278 70.5938 457.939 58.3282 459.21 57.1302C461.075 55.4636 460.872 51.8646 459.674 53.0625C457.34 55.3959 443.944 68.2604 442.34 66.5938C440.075 64.2604 454.877 47.3959 454.877 45.6615C454.877 45.2657 454.543 44.7969 454.007 44.4636C453.741 43.9323 453.273 43.599 452.674 43.599C450.408 43.599 439.611 51.8646 428.543 61.7969C427.278 62.9271 431.346 57.3959 433.408 54.7292C436.611 50.7292 439.944 47.0625 440.809 47.0625C442.543 47.0625 439.543 42.1302 438.075 43.8646C431.809 51.1979 424.21 62.1302 420.21 68.9948C419.413 70.3959 420.476 73.4636 421.944 73.4636Z" fill="black"/>
<defs>
<linearGradient id="paint0_linear_206_300" x1="186.369" y1="76.088" x2="120.277" y2="9.99564" gradientUnits="userSpaceOnUse">
<stop offset="0.234375" stop-color="#7D95EC"/>
<stop offset="0.625" stop-color="#91A5E4" stop-opacity="0.680272"/>
<stop offset="1" stop-color="#BDC6D2" stop-opacity="0"/>
</linearGradient>
<linearGradient id="paint1_linear_206_300" x1="77.3699" y1="76.088" x2="11.2776" y2="9.99564" gradientUnits="userSpaceOnUse">
<stop offset="0.234375" stop-color="#7D95EC"/>
<stop offset="0.625" stop-color="#91A5E4" stop-opacity="0.680272"/>
<stop offset="1" stop-color="#BDC6D2" stop-opacity="0"/>
</linearGradient>
<linearGradient id="paint2_linear_206_300" x1="132.344" y1="76.088" x2="66.2512" y2="9.99564" gradientUnits="userSpaceOnUse">
<stop offset="0.234375" stop-color="#7D95EC"/>
<stop offset="0.625" stop-color="#91A5E4" stop-opacity="0.680272"/>
<stop offset="1" stop-color="#BDC6D2" stop-opacity="0"/>
</linearGradient>
</defs>
</svg>
