<svg width="461" height="63" viewBox="0 0 461 63" fill="none" xmlns="http://www.w3.org/2000/svg">
<g opacity="0.4">
<path d="M104.184 62.9905C121.578 62.9905 135.679 48.8896 135.679 31.4953C135.679 14.1009 121.578 0 104.184 0C86.7894 0 72.6885 14.1009 72.6885 31.4953C72.6885 48.8896 86.7894 62.9905 104.184 62.9905Z" fill="url(#paint0_linear_208_216)"/>
</g>
<g opacity="0.4">
<path d="M31.4953 62.9905C48.8896 62.9905 62.9905 48.8896 62.9905 31.4953C62.9905 14.1009 48.8896 0 31.4953 0C14.1009 0 0 14.1009 0 31.4953C0 48.8896 14.1009 62.9905 31.4953 62.9905Z" fill="url(#paint1_linear_208_216)"/>
</g>
<path opacity="0.4" d="M68.1671 62.9905C85.5615 62.9905 99.6624 48.8896 99.6624 31.4953C99.6624 14.1009 85.5615 0 68.1671 0C50.7728 0 36.6719 14.1009 36.6719 31.4953C36.6719 48.8896 50.7728 62.9905 68.1671 62.9905Z" fill="url(#paint2_linear_208_216)"/>
<path d="M131 7.44108L121.88 22.0609L117.146 30.5557H116.938L114.5 21.6442L109.068 6.39941L96.5365 7.44108L87 54.0869H101.339L103.708 41.9046L105.031 32.7848H105.24L107.396 39.4671L110.323 47.613L120.974 46.4307L125.151 39.2588L128.839 32.7848H129.052L128.214 40.165L127.307 54.0869H141.792L144.156 6.39941L131 7.44108Z" fill="black"/>
<path d="M158.976 55.1338C163.153 55.1338 167.122 53.5297 170.95 50.3265C171.924 53.5974 174.362 55.1338 178.612 55.1338C184.804 55.1338 190.304 51.7901 195.945 44.6182L192.674 40.5817C190.862 43.2953 187.659 45.4515 185.435 45.4515C183.763 45.4515 183.414 44.2692 184.039 40.5817L187.101 22.0609L173.877 23.1755C171.716 22.4099 169.7 22.0609 167.33 22.0609C155.565 22.0609 147.56 30.139 147.56 41.9724C147.56 50.3995 151.669 55.1338 158.976 55.1338ZM164.757 45.0349C162.804 45.0349 161.903 44.0609 161.903 41.139C161.903 35.5661 164.617 32.7849 169.211 32.7849C169.909 32.7849 170.466 32.7849 171.231 32.8526L169.7 42.6703C168.304 44.1338 166.424 45.0349 164.757 45.0349Z" fill="black"/>
<path d="M235.067 40.5817C233.046 43.5036 229.911 45.3838 227.265 45.4515C224.968 45.5245 223.645 44.8265 222.531 42.6703L220.098 38.0036L231.864 22.6182H217.796L213.833 28.4672L211.046 22.0609L197.749 23.1078C197.192 30.2745 195.452 36.6807 192.666 40.5817L195.937 44.6182C198.999 40.6495 201.02 35.2901 201.369 29.0245H201.577C201.926 30.6963 203.109 33.2015 203.807 34.5922L205.614 38.212L193.848 54.087H208.119L212.229 48.4463L213.202 50.1859C215.223 53.8109 217.588 55.1338 221.208 55.1338C227.614 55.1338 232.906 51.7901 238.338 44.6182L235.067 40.5817Z" fill="black"/>
<path d="M243.284 53.3438H249.2L260.549 24.1042L263.961 13.6615H264.169L265.284 23.4063L271.06 53.3438H276.981L294.872 6.69792H289.091L277.882 36.7031L274.752 46.2448H274.544L273.08 37.401L267.648 6L261.455 6.69792L249.481 39.2813L247.179 46.2448H246.971L245.789 38.1667L240.356 6.69792H234.997L243.284 53.3438Z" fill="black"/>
<path d="M302.667 54.0417C306.771 54.0417 310.115 52.6458 313.527 48.8177C313.876 52.1615 315.824 54.0417 319.167 54.0417C323.693 54.0417 328.985 50.4896 332.048 44.9219L329.469 42.3438C327.173 46.8698 323.829 49.5156 321.183 49.5156C319.027 49.5156 318.402 47.9844 318.959 44.5L322.506 22.0156L317.355 22.7083C314.641 22.2917 312.412 22.0156 310.256 22.0156C299.256 22.0156 292.709 30.2292 292.709 42.276C292.709 50 296.193 54.0417 302.667 54.0417ZM303.917 49.9323C299.605 49.9323 297.86 47.2865 297.86 42.0677C297.86 32.526 302.459 26.1198 310.532 26.1198C312.969 26.1198 314.501 26.3333 316.73 26.75L313.808 44.5C310.256 48.3333 307.193 49.9323 303.917 49.9323Z" fill="black"/>
<path d="M360.659 42.3438C358.362 47.0105 353.763 49.5834 349.659 49.5834C345.549 49.5834 343.602 47.2865 343.602 43.1771C343.602 39.2084 345.201 33.9219 349.867 27.2344L351.049 22.7084C342.346 22.7084 334.966 21.4584 330.023 18.1146L329.398 22.4323C329.888 22.7813 330.513 23.0573 331.138 23.4063C332.81 30.0886 332.044 37.2605 329.466 42.3438L332.044 44.9219C334.898 39.7657 336.43 32.599 335.174 24.7969C338.451 25.8438 341.789 26.4688 344.716 26.4688C340.674 33.3646 338.451 39.1407 338.451 44.1563C338.451 50.4219 342.279 54.0417 348.612 54.0417C354.534 54.0417 359.82 51.0469 363.232 44.9219L360.659 42.3438Z" fill="black"/>
<path d="M391.847 42.3438C389.55 47.0105 384.952 49.5834 380.847 49.5834C376.738 49.5834 374.79 47.2865 374.79 43.1771C374.79 39.2084 376.389 33.9219 381.056 27.2344L382.238 22.7084C373.535 22.7084 366.155 21.4584 361.212 18.1146L360.587 22.4323C361.076 22.7813 361.701 23.0573 362.326 23.4063C363.998 30.0886 363.233 37.2605 360.655 42.3438L363.233 44.9219C366.087 39.7657 367.618 32.599 366.363 24.7969C369.639 25.8438 372.978 26.4688 375.905 26.4688C371.863 33.3646 369.639 39.1407 369.639 44.1563C369.639 50.4219 373.467 54.0417 379.8 54.0417C385.722 54.0417 391.009 51.0469 394.42 44.9219L391.847 42.3438Z" fill="black"/>
<path d="M421.088 42.3438C417.744 47.776 413.078 49.9323 407.021 49.9323C401.385 49.9323 397.552 46.6615 396.927 41.6458C409.109 42.3437 417.255 37.75 417.396 30.2292C417.463 25.1458 413.359 22.0156 407.442 22.0156C398.182 22.0156 391.708 29.7448 391.708 39.9792C391.708 48.9583 397 54.0417 406.328 54.0417C413.5 54.0417 419.484 51.6719 423.661 44.9219L421.088 42.3438ZM407.093 26.1198C410.088 26.1198 412.312 27.5833 412.244 30.2969C412.104 35.3802 406.463 38.099 396.859 37.75C397.552 31.0677 401.521 26.1198 407.093 26.1198Z" fill="black"/>
<path d="M457.775 42.3438C455.478 46.7969 452.551 49.5156 449.838 49.5156C447.681 49.5156 446.843 47.9844 447.4 44.5L449.489 31.6198C450.463 25.4271 447.749 22.0156 441.759 22.0156C437.374 22.0156 432.989 24.0312 428.463 27.5833L429.369 22.0156L424.218 22.7083L419.343 53.3438H424.426L427.77 32.1094C432.504 28.2083 437.025 26.1198 440.16 26.1198C443.64 26.1198 444.963 28.2813 444.27 32.4583L442.181 44.9896C441.202 50.8385 443.572 54.0417 448.025 54.0417C452.973 54.0417 457.218 50.4219 460.348 44.9219L457.775 42.3438Z" fill="black"/>
<defs>
<linearGradient id="paint0_linear_208_216" x1="126.243" y1="52.6739" x2="80.4889" y2="6.91973" gradientUnits="userSpaceOnUse">
<stop offset="0.234375" stop-color="#7D95EC"/>
<stop offset="0.625" stop-color="#91A5E4" stop-opacity="0.680272"/>
<stop offset="1" stop-color="#BDC6D2" stop-opacity="0"/>
</linearGradient>
<linearGradient id="paint1_linear_208_216" x1="53.5545" y1="52.6739" x2="7.80042" y2="6.91973" gradientUnits="userSpaceOnUse">
<stop offset="0.234375" stop-color="#7D95EC"/>
<stop offset="0.625" stop-color="#91A5E4" stop-opacity="0.680272"/>
<stop offset="1" stop-color="#BDC6D2" stop-opacity="0"/>
</linearGradient>
<linearGradient id="paint2_linear_208_216" x1="90.2264" y1="52.6739" x2="44.4723" y2="6.91973" gradientUnits="userSpaceOnUse">
<stop offset="0.234375" stop-color="#7D95EC"/>
<stop offset="0.625" stop-color="#91A5E4" stop-opacity="0.680272"/>
<stop offset="1" stop-color="#BDC6D2" stop-opacity="0"/>
</linearGradient>
</defs>
</svg>
