<svg width="172" height="53" viewBox="0 0 172 53" fill="none" xmlns="http://www.w3.org/2000/svg">
<path d="M44.5525 30.344C44.3125 29.784 44.0245 29 43.6885 27.992C43.3685 26.984 43.0965 25.96 42.8725 24.92H42.8485C42.8965 26.376 42.9205 27.704 42.9205 28.904V29.72L42.8965 34.064C42.8965 35.056 42.8565 35.776 42.7765 36.224C43.3045 36.176 43.9125 36.152 44.6005 36.152V38H39.1285V36.416C39.5605 36.4 39.8885 36.352 40.1125 36.272C40.3365 36.176 40.5125 35.984 40.6405 35.696C40.7685 35.408 40.8325 34.952 40.8325 34.328L40.9765 25.136C41.0085 23.968 41.0405 23.248 41.0725 22.976L39.2725 23.048V21.2H44.5765L48.2005 30.488C48.4405 31.112 48.6965 31.8 48.9685 32.552C49.2405 33.304 49.4325 33.88 49.5445 34.28H49.5685C49.6325 34.12 49.8085 33.624 50.0965 32.792C50.3205 32.136 50.5205 31.576 50.6965 31.112L54.4165 21.2H59.9605V22.784C59.5285 22.8 59.1925 22.856 58.9525 22.952C58.7125 23.032 58.5285 23.216 58.4005 23.504C58.2725 23.792 58.2165 24.248 58.2325 24.872L58.5925 34.064C58.6405 34.88 58.6085 35.6 58.4965 36.224C59.0245 36.176 59.6325 36.152 60.3205 36.152V38H53.6485V36.416C54.0805 36.4 54.4085 36.352 54.6325 36.272C54.8725 36.176 55.0565 35.984 55.1845 35.696C55.3125 35.408 55.3685 34.952 55.3525 34.328L55.1605 29.24L55.1125 28.328C55.0325 26.776 54.9845 25.696 54.9685 25.088H54.9445L50.0245 38.24H47.7925L44.5525 30.344ZM65.1173 38.384C64.1093 38.384 63.3093 38.088 62.7173 37.496C62.1413 36.888 61.8533 36.12 61.8533 35.192C61.8533 33.784 62.5093 32.72 63.8213 32C65.1333 31.264 66.7093 30.856 68.5493 30.776V29.528C68.5493 28.072 68.0053 27.344 66.9173 27.344C66.2133 27.344 65.6373 27.568 65.1893 28.016C65.3813 28.24 65.4773 28.544 65.4773 28.928C65.4773 29.312 65.3413 29.656 65.0693 29.96C64.8133 30.264 64.4293 30.416 63.9173 30.416C63.4373 30.416 63.0613 30.264 62.7893 29.96C62.5173 29.64 62.3813 29.248 62.3813 28.784C62.3813 28.16 62.6053 27.608 63.0533 27.128C63.5013 26.648 64.1093 26.28 64.8773 26.024C65.6613 25.752 66.5173 25.616 67.4453 25.616C70.4053 25.616 71.8853 27.144 71.8853 30.2L71.8613 34.136C71.8613 34.904 71.8293 35.608 71.7653 36.248C72.2933 36.2 72.8133 36.176 73.3253 36.176V38H68.7893C68.7573 37.792 68.7253 37.424 68.6933 36.896H68.6693C67.6933 37.888 66.5093 38.384 65.1173 38.384ZM66.6293 36.032C67.3493 36.032 67.9813 35.744 68.5253 35.168V32.48C67.5813 32.576 66.7973 32.816 66.1733 33.2C65.5653 33.584 65.2613 34.104 65.2613 34.76C65.2613 35.192 65.3893 35.512 65.6453 35.72C65.9173 35.928 66.2453 36.032 66.6293 36.032ZM74.6792 36.464C74.9832 36.336 75.2712 36.152 75.5432 35.912C75.8152 35.672 76.1352 35.336 76.5032 34.904L78.5912 32.504L76.2392 29.744C76.1912 29.696 75.9832 29.44 75.6152 28.976C75.2472 28.512 74.9992 28.112 74.8712 27.776L74.2232 27.824V26H79.5272V27.536C79.1432 27.552 78.9512 27.68 78.9512 27.92C78.9512 28.16 79.1192 28.472 79.4552 28.856L80.5592 30.152H80.5832L81.4952 29.048C81.5592 28.984 81.7112 28.808 81.9512 28.52C82.1912 28.232 82.4312 27.976 82.6712 27.752V27.728L81.4952 27.824V26H85.7192V27.536C84.8232 27.92 84.0232 28.56 83.3192 29.456L81.7112 31.424L84.4952 34.664C85.0552 35.32 85.4392 35.84 85.6472 36.224L86.4632 36.176V38H80.7992V36.464C81.3432 36.448 81.6152 36.304 81.6152 36.032C81.6152 35.84 81.4792 35.592 81.2072 35.288L79.7672 33.776H79.7432L78.6392 35.12C78.5112 35.28 78.3272 35.488 78.0872 35.744C77.8632 36 77.6872 36.168 77.5592 36.248V36.272L78.6632 36.176V38H74.6792V36.464Z" fill="#030303"/>
<path d="M87.2805 25.208L88.23 24.8944L88.2168 24.8544L88.2003 24.8157L87.2805 25.208ZM86.5845 22.976H87.5845V21.9178L86.528 21.9776L86.5845 22.976ZM85.3125 23.048H84.3125V24.1062L85.369 24.0464L85.3125 23.048ZM85.3125 21.2V20.2H84.3125V21.2H85.3125ZM92.3925 21.2H93.3925V20.2H92.3925V21.2ZM92.3925 22.784L92.3613 23.7835L93.3925 23.8157V22.784H92.3925ZM91.2165 23L91.7067 23.8716L91.7152 23.8668L91.7235 23.8619L91.2165 23ZM90.9765 24.584L91.9436 24.3295L91.9392 24.313L91.9343 24.2967L90.9765 24.584ZM92.4165 30.056L93.3867 29.8134L93.3836 29.8015L92.4165 30.056ZM92.7045 31.184L91.7358 31.4324L91.7374 31.4385L92.7045 31.184ZM93.2085 33.464L92.2266 33.6535L92.383 34.464H93.2085V33.464ZM93.2325 33.464V34.464H93.9924L94.1959 33.7319L93.2325 33.464ZM94.6005 28.544L93.6437 28.2532L93.6402 28.2646L93.637 28.2761L94.6005 28.544ZM96.8325 21.2V20.2H96.0912L95.8757 20.9092L96.8325 21.2ZM98.9925 21.2L99.9477 20.9041L99.7296 20.2H98.9925V21.2ZM101.728 30.032L102.685 29.7408L102.684 29.7361L101.728 30.032ZM102.592 33.488L101.617 33.707L101.792 34.488H102.592V33.488ZM102.616 33.488V34.488H103.378L103.581 33.7535L102.616 33.488ZM103.528 30.176L104.493 30.4415L104.494 30.4348L103.528 30.176ZM104.872 25.16L105.838 25.4188L105.842 25.4062L104.872 25.16ZM105.856 22.976L106.602 23.642L106.856 23.3575V22.976H105.856ZM105.856 22.952H106.856V21.8926L105.799 21.9537L105.856 22.952ZM104.608 23.024L104.648 24.0232L104.657 24.0228L104.666 24.0223L104.608 23.024ZM104.008 23.048H103.008V24.0888L104.048 24.0472L104.008 23.048ZM104.008 21.2V20.2H103.008V21.2H104.008ZM109.408 21.2H110.408V20.2H109.408V21.2ZM109.408 22.784L109.466 23.7824L110.408 23.7285V22.784H109.408ZM107.944 23.432L108.623 24.1668L108.63 24.1599L108.638 24.1528L107.944 23.432ZM106.864 25.352L105.918 25.0307L105.913 25.0451L105.908 25.0596L106.864 25.352ZM102.952 38.144V39.144H103.692L103.909 38.4364L102.952 38.144ZM100.816 38.144L99.8668 38.457L100.093 39.144H100.816V38.144ZM97.9845 29.552L98.9343 29.2389L98.9311 29.2297L97.9845 29.552ZM97.2165 26.6L96.2226 26.7104L96.228 26.7586L96.2379 26.806L97.2165 26.6ZM97.0965 26L98.0666 25.7575L97.8773 25H97.0965V26ZM97.0725 26V25H96.2146L96.0841 25.8479L97.0725 26ZM96.3765 29.144L97.3333 29.4349L97.3354 29.4278L97.3375 29.4206L96.3765 29.144ZM93.6405 38.144V39.144H94.3817L94.5973 38.4349L93.6405 38.144ZM91.5525 38.144L90.6029 38.4576L90.8296 39.144H91.5525V38.144ZM88.2003 24.8157C87.9755 24.2886 87.8154 23.8643 87.7132 23.5363C87.6044 23.1876 87.5845 23.0197 87.5845 22.976H85.5845C85.5845 23.3323 85.6806 23.7364 85.8038 24.1317C85.9335 24.5477 86.1214 25.0394 86.3606 25.6003L88.2003 24.8157ZM86.528 21.9776L85.256 22.0496L85.369 24.0464L86.641 23.9744L86.528 21.9776ZM86.3125 23.048V21.2H84.3125V23.048H86.3125ZM85.3125 22.2H92.3925V20.2H85.3125V22.2ZM91.3925 21.2V22.784H93.3925V21.2H91.3925ZM92.4237 21.7845C91.8293 21.7659 91.2166 21.8398 90.7095 22.1381L91.7235 23.8619C91.7604 23.8402 91.9317 23.7701 92.3613 23.7835L92.4237 21.7845ZM90.7262 22.1284C90.0577 22.5044 89.8325 23.1747 89.8325 23.792H91.8325C91.8325 23.7063 91.8473 23.703 91.8283 23.7423C91.8182 23.7632 91.8014 23.7896 91.7767 23.8159C91.752 23.8421 91.7267 23.8603 91.7067 23.8716L90.7262 22.1284ZM89.8325 23.792C89.8325 24.138 89.9094 24.5073 90.0187 24.8713L91.9343 24.2967C91.8515 24.0207 91.8325 23.862 91.8325 23.792H89.8325ZM90.0094 24.8385L91.4494 30.3105L93.3836 29.8015L91.9436 24.3295L90.0094 24.8385ZM91.4463 30.2985C91.4793 30.4302 91.5762 30.8098 91.7358 31.4324L93.6732 30.9356C93.5128 30.3102 93.4177 29.9378 93.3866 29.8135L91.4463 30.2985ZM91.7374 31.4385C91.8898 32.0175 92.053 32.7541 92.2266 33.6535L94.1904 33.2745C94.0119 32.3499 93.8392 31.5665 93.6716 30.9295L91.7374 31.4385ZM93.2085 34.464H93.2325V32.464H93.2085V34.464ZM94.1959 33.7319L95.5639 28.8119L93.637 28.2761L92.269 33.1961L94.1959 33.7319ZM95.5573 28.8348L97.7893 21.4908L95.8757 20.9092L93.6437 28.2532L95.5573 28.8348ZM96.8325 22.2H98.9925V20.2H96.8325V22.2ZM98.0373 21.4959L100.773 30.3279L102.684 29.7361L99.9477 20.9041L98.0373 21.4959ZM100.772 30.3232C100.984 31.0215 101.266 32.1432 101.617 33.707L103.568 33.269C103.215 31.6968 102.921 30.5145 102.685 29.7408L100.772 30.3232ZM102.592 34.488H102.616V32.488H102.592V34.488ZM103.581 33.7535L104.493 30.4415L102.564 29.9105L101.652 33.2225L103.581 33.7535ZM104.494 30.4348L105.838 25.4188L103.907 24.9012L102.563 29.9172L104.494 30.4348ZM105.842 25.4062C106.083 24.4553 106.361 23.912 106.602 23.642L105.111 22.31C104.552 22.936 104.174 23.8487 103.903 24.9138L105.842 25.4062ZM106.856 22.976V22.952H104.856V22.976H106.856ZM105.799 21.9537L104.551 22.0257L104.666 24.0223L105.914 23.9503L105.799 21.9537ZM104.569 22.0248L103.969 22.0488L104.048 24.0472L104.648 24.0232L104.569 22.0248ZM105.008 23.048V21.2H103.008V23.048H105.008ZM104.008 22.2H109.408V20.2H104.008V22.2ZM108.408 21.2V22.784H110.408V21.2H108.408ZM109.351 21.7856C108.546 21.8317 107.834 22.1509 107.251 22.7112L108.638 24.1528C108.887 23.9131 109.151 23.8003 109.466 23.7824L109.351 21.7856ZM107.266 22.6972C106.671 23.2465 106.243 24.0702 105.918 25.0307L107.811 25.6733C108.094 24.8418 108.386 24.3855 108.623 24.1668L107.266 22.6972ZM105.908 25.0596L101.996 37.8516L103.909 38.4364L107.821 25.6444L105.908 25.0596ZM102.952 37.144H100.816V39.144H102.952V37.144ZM101.766 37.831L98.9342 29.239L97.0347 29.865L99.8668 38.457L101.766 37.831ZM98.9311 29.2297C98.6932 28.5308 98.4468 27.5899 98.195 26.394L96.2379 26.806C96.4982 28.0421 96.7638 29.0692 97.0378 29.8743L98.9311 29.2297ZM98.2104 26.4896C98.187 26.2788 98.1342 26.0278 98.0666 25.7575L96.1263 26.2425C96.1868 26.4842 96.214 26.6332 96.2226 26.7104L98.2104 26.4896ZM97.0965 25H97.0725V27H97.0965V25ZM96.0841 25.8479C95.9309 26.8441 95.7083 27.8505 95.4155 28.8674L97.3375 29.4206C97.6527 28.3255 97.8941 27.2359 98.0609 26.1521L96.0841 25.8479ZM95.4197 28.8531L92.6837 37.8531L94.5973 38.4349L97.3333 29.4349L95.4197 28.8531ZM93.6405 37.144H91.5525V39.144H93.6405V37.144ZM92.502 37.8304L88.23 24.8944L86.3309 25.5216L90.6029 38.4576L92.502 37.8304ZM109.272 37.496L108.546 38.1837L108.555 38.1936L108.565 38.2031L109.272 37.496ZM110.376 32L110.857 32.8767L110.865 32.8721L110.376 32ZM115.104 30.776L115.147 31.7751L116.104 31.7335V30.776H115.104ZM111.744 28.016L111.037 27.3089L110.382 27.9637L110.985 28.6668L111.744 28.016ZM111.624 29.96L110.879 29.2932L110.869 29.3044L110.859 29.3159L111.624 29.96ZM109.344 29.96L108.582 30.6076L108.59 30.6173L108.599 30.6268L109.344 29.96ZM109.608 27.128L110.339 27.8103L110.339 27.8103L109.608 27.128ZM111.432 26.024L111.748 26.9728L111.76 26.9688L111.432 26.024ZM118.44 30.2L119.44 30.2061V30.2H118.44ZM118.416 34.136L117.416 34.1299V34.136H118.416ZM118.32 36.248L117.325 36.1485L117.204 37.3535L118.411 37.2439L118.32 36.248ZM119.88 36.176H120.88V35.176H119.88V36.176ZM119.88 38V39H120.88V38H119.88ZM115.344 38L114.356 38.1521L114.486 39H115.344V38ZM115.248 36.896L116.246 36.8355L116.189 35.896H115.248V36.896ZM115.224 36.896V35.896H114.805L114.511 36.1947L115.224 36.896ZM115.08 35.168L115.807 35.8546L116.08 35.5656V35.168H115.08ZM115.08 32.48H116.08V31.3731L114.979 31.4851L115.08 32.48ZM112.728 33.2L112.204 32.3483L112.194 32.3545L112.728 33.2ZM112.2 35.72L111.569 36.4961L111.581 36.5054L111.593 36.5144L112.2 35.72ZM111.672 37.384C110.871 37.384 110.346 37.1561 109.979 36.7889L108.565 38.2031C109.382 39.0199 110.457 39.384 111.672 39.384V37.384ZM109.998 36.8083C109.618 36.4067 109.408 35.8942 109.408 35.192H107.408C107.408 36.3458 107.774 37.3693 108.546 38.1837L109.998 36.8083ZM109.408 35.192C109.408 34.6493 109.532 34.2178 109.751 33.8628C109.972 33.5047 110.323 33.1698 110.857 32.8767L109.895 31.1233C109.117 31.5502 108.484 32.1073 108.049 32.8132C107.612 33.5222 107.408 34.3267 107.408 35.192H109.408ZM110.865 32.8721C112.013 32.2281 113.429 31.8498 115.147 31.7751L115.061 29.7769C113.099 29.8622 111.363 30.2999 109.887 31.1279L110.865 32.8721ZM116.104 30.776V29.528H114.104V30.776H116.104ZM116.104 29.528C116.104 28.7044 115.955 27.9046 115.497 27.2914C114.998 26.6235 114.261 26.344 113.472 26.344V28.344C113.771 28.344 113.85 28.4285 113.895 28.4886C113.981 28.6034 114.104 28.8956 114.104 29.528H116.104ZM113.472 26.344C112.535 26.344 111.694 26.6517 111.037 27.3089L112.451 28.7231C112.69 28.4843 113.001 28.344 113.472 28.344V26.344ZM110.985 28.6668C110.986 28.6685 110.996 28.6791 111.006 28.7131C111.018 28.7502 111.032 28.818 111.032 28.928H113.032C113.032 28.3786 112.892 27.8193 112.503 27.3652L110.985 28.6668ZM111.032 28.928C111.032 29.0497 110.998 29.1601 110.879 29.2932L112.369 30.6268C112.794 30.1519 113.032 29.5743 113.032 28.928H111.032ZM110.859 29.3159C110.845 29.3326 110.78 29.416 110.472 29.416V31.416C111.188 31.416 111.891 31.1954 112.389 30.6041L110.859 29.3159ZM110.472 29.416C110.221 29.416 110.138 29.3473 110.089 29.2932L108.599 30.6268C109.094 31.1807 109.763 31.416 110.472 31.416V29.416ZM110.106 29.3124C110.004 29.1925 109.936 29.0374 109.936 28.784H107.936C107.936 29.4586 108.14 30.0875 108.582 30.6076L110.106 29.3124ZM109.936 28.784C109.936 28.4275 110.054 28.1158 110.339 27.8103L108.877 26.4457C108.266 27.1002 107.936 27.8925 107.936 28.784H109.936ZM110.339 27.8103C110.65 27.4776 111.102 27.188 111.748 26.9727L111.116 25.0753C110.226 25.372 109.462 25.8184 108.877 26.4457L110.339 27.8103ZM111.76 26.9688C112.427 26.7374 113.17 26.616 114 26.616V24.616C112.973 24.616 112.005 24.7666 111.104 25.0792L111.76 26.9688ZM114 26.616C115.318 26.616 116.124 26.9543 116.612 27.4577C117.105 27.9671 117.44 28.8183 117.44 30.2H119.44C119.44 28.5257 119.035 27.0849 118.048 26.0663C117.056 25.0417 115.642 24.616 114 24.616V26.616ZM117.44 30.1939L117.416 34.1299L119.416 34.1421L119.44 30.2061L117.44 30.1939ZM117.416 34.136C117.416 34.8769 117.385 35.5472 117.325 36.1485L119.315 36.3475C119.383 35.6688 119.416 34.9311 119.416 34.136H117.416ZM118.411 37.2439C118.909 37.1985 119.399 37.176 119.88 37.176V35.176C119.337 35.176 118.786 35.2015 118.229 35.2521L118.411 37.2439ZM118.88 36.176V38H120.88V36.176H118.88ZM119.88 37H115.344V39H119.88V37ZM116.332 37.8479C116.308 37.6908 116.278 37.365 116.246 36.8355L114.25 36.9565C114.282 37.483 114.316 37.8932 114.356 38.1521L116.332 37.8479ZM115.248 35.896H115.224V37.896H115.248V35.896ZM114.511 36.1947C113.723 36.9955 112.796 37.384 111.672 37.384V39.384C113.332 39.384 114.773 38.7805 115.937 37.5973L114.511 36.1947ZM113.184 37.032C114.208 37.032 115.095 36.6084 115.807 35.8546L114.353 34.4814C113.977 34.8796 113.6 35.032 113.184 35.032V37.032ZM116.08 35.168V32.48H114.08V35.168H116.08ZM114.979 31.4851C113.927 31.592 112.988 31.8656 112.204 32.3483L113.252 34.0517C113.716 33.7664 114.345 33.56 115.181 33.4749L114.979 31.4851ZM112.194 32.3545C111.329 32.9007 110.816 33.7233 110.816 34.76H112.816C112.816 34.4847 112.911 34.2673 113.262 34.0455L112.194 32.3545ZM110.816 34.76C110.816 35.3928 111.012 36.0429 111.569 36.4961L112.831 34.9439C112.833 34.946 112.837 34.95 112.841 34.9548C112.844 34.9595 112.843 34.9599 112.84 34.9526C112.834 34.9365 112.816 34.8798 112.816 34.76H110.816ZM111.593 36.5144C112.06 36.8718 112.608 37.032 113.184 37.032V35.032C112.992 35.032 112.884 34.9842 112.807 34.9256L111.593 36.5144ZM121.258 36.44V35.44H120.258V36.44H121.258ZM122.41 35.936L121.524 35.472L121.515 35.4889L121.507 35.5061L122.41 35.936ZM122.77 28.232L123.765 28.3315L123.88 27.1835L122.727 27.2329L122.77 28.232ZM121.09 28.304H120.09V29.3478L121.133 29.3031L121.09 28.304ZM121.09 26.48V25.48H120.09V26.48H121.09ZM124.786 25.76V24.76H124.395L124.108 25.0252L124.786 25.76ZM125.962 25.76L126.953 25.6278L126.837 24.76H125.962V25.76ZM126.034 26.696L125.035 26.7376L125.035 26.7376L126.034 26.696ZM126.058 27.824H125.058V28.824H126.058V27.824ZM126.106 27.824V28.824H126.61L126.91 28.4184L126.106 27.824ZM131.05 26.12L130.391 26.8726L130.399 26.8792L130.407 26.8857L131.05 26.12ZM131.242 28.76L130.451 28.1486L130.451 28.1486L131.242 28.76ZM128.938 28.976L128.373 29.8013L128.383 29.808L128.393 29.8144L128.938 28.976ZM128.41 27.896L129.406 27.8027L129.321 26.896H128.41V27.896ZM127.018 28.688L126.278 28.0153L126.277 28.0165L127.018 28.688ZM126.082 30.224L125.127 29.9257L125.082 30.0714V30.224H126.082ZM125.986 36.248L124.991 36.1485L124.87 37.357L126.079 37.2436L125.986 36.248ZM127.546 36.176H128.546V35.176H127.546V36.176ZM127.546 38V39H128.546V38H127.546ZM121.258 38H120.258V39H121.258V38ZM121.258 37.44C121.986 37.44 122.897 37.2384 123.313 36.3659L121.507 35.5061C121.521 35.4761 121.543 35.4464 121.568 35.4229C121.592 35.4007 121.608 35.3949 121.601 35.3978C121.593 35.4014 121.564 35.4125 121.505 35.4225C121.446 35.4325 121.365 35.44 121.258 35.44V37.44ZM123.296 36.4C123.59 35.8387 123.674 35.0884 123.674 34.304H121.674C121.674 35.0236 121.582 35.3613 121.524 35.472L123.296 36.4ZM123.674 34.304V30.272H121.674V34.304H123.674ZM123.674 30.272C123.674 29.5814 123.705 28.9348 123.765 28.3315L121.775 28.1325C121.707 28.8092 121.674 29.5226 121.674 30.272H123.674ZM122.727 27.2329L121.047 27.3049L121.133 29.3031L122.813 29.2311L122.727 27.2329ZM122.09 28.304V26.48H120.09V28.304H122.09ZM121.09 27.48C122.136 27.48 123.036 27.4062 123.763 27.2384L123.313 25.2896C122.792 25.4098 122.06 25.48 121.09 25.48V27.48ZM123.763 27.2384C124.392 27.0931 125.045 26.8818 125.464 26.4948L124.108 25.0252C124.129 25.0055 124.097 25.0407 123.943 25.1028C123.8 25.1608 123.594 25.2249 123.313 25.2896L123.763 27.2384ZM124.786 26.76H125.962V24.76H124.786V26.76ZM124.971 25.8922C124.997 26.09 125.019 26.3686 125.035 26.7376L127.033 26.6544C127.016 26.2554 126.991 25.91 126.953 25.6278L124.971 25.8922ZM125.035 26.7376C125.05 27.1084 125.058 27.4705 125.058 27.824H127.058C127.058 27.4415 127.05 27.0516 127.033 26.6544L125.035 26.7376ZM126.058 28.824H126.106V26.824H126.058V28.824ZM126.91 28.4184C127.908 27.0677 128.799 26.616 129.562 26.616V24.616C127.893 24.616 126.479 25.6363 125.302 27.2296L126.91 28.4184ZM129.562 26.616C129.977 26.616 130.223 26.7255 130.391 26.8726L131.708 25.3674C131.108 24.8425 130.363 24.616 129.562 24.616V26.616ZM130.407 26.8857C130.524 26.9846 130.65 27.1654 130.65 27.608H132.65C132.65 26.7386 132.375 25.9274 131.693 25.3543L130.407 26.8857ZM130.65 27.608C130.65 27.7869 130.597 27.9587 130.451 28.1486L132.033 29.3714C132.431 28.8573 132.65 28.2611 132.65 27.608H130.65ZM130.451 28.1486C130.41 28.2006 130.329 28.288 130.018 28.288V30.288C130.795 30.288 131.529 30.0234 132.033 29.3714L130.451 28.1486ZM130.018 28.288C129.802 28.288 129.633 28.2349 129.483 28.1376L128.393 29.8144C128.883 30.1331 129.434 30.288 130.018 30.288V28.288ZM129.503 28.1507C129.501 28.1499 129.5 28.1491 129.498 28.146C129.495 28.1427 129.487 28.1325 129.476 28.1108C129.454 28.0651 129.421 27.9709 129.406 27.8027L127.414 27.9893C127.479 28.6745 127.738 29.3665 128.373 29.8013L129.503 28.1507ZM128.41 26.896C127.55 26.896 126.838 27.3998 126.278 28.0153L127.758 29.3607C128.158 28.9202 128.374 28.896 128.41 28.896V26.896ZM126.277 28.0165C125.743 28.6061 125.341 29.2415 125.127 29.9257L127.036 30.5223C127.143 30.1825 127.365 29.7939 127.759 29.3595L126.277 28.0165ZM125.082 30.224V34.136H127.082V30.224H125.082ZM125.082 34.136C125.082 34.8769 125.051 35.5472 124.991 36.1485L126.981 36.3475C127.049 35.6688 127.082 34.9311 127.082 34.136H125.082ZM126.079 37.2436C126.559 37.1986 127.048 37.176 127.546 37.176V35.176C126.988 35.176 126.436 35.2014 125.893 35.2524L126.079 37.2436ZM126.546 36.176V38H128.546V36.176H126.546ZM127.546 37H121.258V39H127.546V37ZM122.258 38V36.44H120.258V38H122.258ZM132.789 36.44V35.44H131.789V36.44H132.789ZM133.941 35.936L133.055 35.472L133.047 35.4889L133.038 35.5061L133.941 35.936ZM134.301 28.232L135.296 28.3315L135.411 27.1835L134.258 27.2329L134.301 28.232ZM132.621 28.304H131.621V29.3478L132.664 29.3031L132.621 28.304ZM132.621 26.48V25.48H131.621V26.48H132.621ZM136.317 25.76V24.76H135.926L135.639 25.0252L136.317 25.76ZM137.493 25.76L138.484 25.6278L138.369 24.76H137.493V25.76ZM137.565 26.696L136.566 26.7376L136.566 26.7376L137.565 26.696ZM137.589 27.824H136.589V28.824H137.589V27.824ZM137.637 27.824V28.824H138.142L138.441 28.4184L137.637 27.824ZM142.581 26.12L141.923 26.8726L141.93 26.8792L141.938 26.8857L142.581 26.12ZM142.773 28.76L141.982 28.1486L141.982 28.1486L142.773 28.76ZM140.469 28.976L139.904 29.8013L139.914 29.808L139.924 29.8144L140.469 28.976ZM139.941 27.896L140.937 27.8027L140.852 26.896H139.941V27.896ZM138.549 28.688L137.809 28.0153L137.808 28.0165L138.549 28.688ZM137.613 30.224L136.659 29.9257L136.613 30.0714V30.224H137.613ZM137.517 36.248L136.522 36.1485L136.401 37.357L137.611 37.2436L137.517 36.248ZM139.077 36.176H140.077V35.176H139.077V36.176ZM139.077 38V39H140.077V38H139.077ZM132.789 38H131.789V39H132.789V38ZM132.789 37.44C133.518 37.44 134.429 37.2384 134.844 36.3659L133.038 35.5061C133.053 35.4761 133.074 35.4464 133.1 35.4229C133.124 35.4007 133.139 35.3949 133.132 35.3978C133.124 35.4014 133.095 35.4125 133.036 35.4225C132.977 35.4325 132.896 35.44 132.789 35.44V37.44ZM134.827 36.4C135.121 35.8387 135.205 35.0884 135.205 34.304H133.205C133.205 35.0236 133.113 35.3613 133.055 35.472L134.827 36.4ZM135.205 34.304V30.272H133.205V34.304H135.205ZM135.205 30.272C135.205 29.5814 135.236 28.9348 135.296 28.3315L133.306 28.1325C133.238 28.8092 133.205 29.5226 133.205 30.272H135.205ZM134.258 27.2329L132.578 27.3049L132.664 29.3031L134.344 29.2311L134.258 27.2329ZM133.621 28.304V26.48H131.621V28.304H133.621ZM132.621 27.48C133.667 27.48 134.567 27.4062 135.294 27.2384L134.844 25.2896C134.324 25.4098 133.591 25.48 132.621 25.48V27.48ZM135.294 27.2384C135.924 27.0931 136.576 26.8818 136.995 26.4948L135.639 25.0252C135.66 25.0055 135.628 25.0407 135.475 25.1028C135.331 25.1608 135.125 25.2249 134.844 25.2896L135.294 27.2384ZM136.317 26.76H137.493V24.76H136.317V26.76ZM136.502 25.8922C136.528 26.09 136.551 26.3686 136.566 26.7376L138.564 26.6544C138.548 26.2554 138.522 25.91 138.484 25.6278L136.502 25.8922ZM136.566 26.7376C136.581 27.1084 136.589 27.4705 136.589 27.824H138.589C138.589 27.4415 138.581 27.0516 138.564 26.6544L136.566 26.7376ZM137.589 28.824H137.637V26.824H137.589V28.824ZM138.441 28.4184C139.44 27.0677 140.33 26.616 141.093 26.616V24.616C139.424 24.616 138.011 25.6363 136.833 27.2296L138.441 28.4184ZM141.093 26.616C141.508 26.616 141.755 26.7255 141.923 26.8726L143.24 25.3674C142.64 24.8425 141.895 24.616 141.093 24.616V26.616ZM141.938 26.8857C142.056 26.9846 142.181 27.1654 142.181 27.608H144.181C144.181 26.7386 143.907 25.9274 143.224 25.3543L141.938 26.8857ZM142.181 27.608C142.181 27.7869 142.129 27.9587 141.982 28.1486L143.564 29.3714C143.962 28.8573 144.181 28.2611 144.181 27.608H142.181ZM141.982 28.1486C141.942 28.2006 141.86 28.288 141.549 28.288V30.288C142.326 30.288 143.061 30.0234 143.564 29.3714L141.982 28.1486ZM141.549 28.288C141.333 28.288 141.164 28.2349 141.014 28.1376L139.924 29.8144C140.414 30.1331 140.965 30.288 141.549 30.288V28.288ZM141.034 28.1507C141.033 28.1499 141.032 28.1491 141.029 28.146C141.026 28.1427 141.018 28.1325 141.008 28.1108C140.985 28.0651 140.953 27.9709 140.937 27.8027L138.946 27.9893C139.01 28.6745 139.269 29.3665 139.904 29.8013L141.034 28.1507ZM139.941 26.896C139.081 26.896 138.369 27.3998 137.809 28.0153L139.289 29.3607C139.69 28.9202 139.905 28.896 139.941 28.896V26.896ZM137.808 28.0165C137.274 28.6061 136.873 29.2415 136.659 29.9257L138.568 30.5223C138.674 30.1825 138.897 29.7939 139.29 29.3595L137.808 28.0165ZM136.613 30.224V34.136H138.613V30.224H136.613ZM136.613 34.136C136.613 34.8769 136.582 35.5472 136.522 36.1485L138.512 36.3475C138.58 35.6688 138.613 34.9311 138.613 34.136H136.613ZM137.611 37.2436C138.091 37.1986 138.58 37.176 139.077 37.176V35.176C138.519 35.176 137.968 35.2014 137.424 35.2524L137.611 37.2436ZM138.077 36.176V38H140.077V36.176H138.077ZM139.077 37H132.789V39H139.077V37ZM133.789 38V36.44H131.789V38H133.789ZM146.725 37.616L146.217 38.4776L146.229 38.4842L146.725 37.616ZM144.637 35.384L143.748 35.843L143.748 35.843L144.637 35.384ZM144.637 28.88L143.748 28.4213L143.745 28.4269L144.637 28.88ZM146.773 26.504L147.317 27.3428L147.317 27.3428L146.773 26.504ZM153.757 26.984L153.092 27.7308L153.098 27.7359L153.757 26.984ZM155.293 31.544L155.311 32.5438L156.286 32.526L156.293 31.5515L155.293 31.544ZM147.421 31.688L147.403 30.6882L146.421 30.7061V31.688H147.421ZM148.213 35.024L147.373 35.5673L147.381 35.5787L148.213 35.024ZM152.605 35.816L153.015 36.7279L153.015 36.7279L152.605 35.816ZM154.333 34.448L155.015 33.7169L154.236 32.9896L153.56 33.8137L154.333 34.448ZM155.413 35.456L156.233 36.0277L156.729 35.3164L156.095 34.7249L155.413 35.456ZM151.981 30.008V31.008H153.008L152.981 29.9815L151.981 30.008ZM148.357 28.04L147.591 27.3974L147.589 27.3998L148.357 28.04ZM147.565 30.008L146.577 29.8559L146.399 31.008H147.565V30.008ZM149.821 37.384C148.804 37.384 147.947 37.1625 147.221 36.7478L146.229 38.4842C147.295 39.0935 148.502 39.384 149.821 39.384V37.384ZM147.233 36.7545C146.505 36.3259 145.938 35.7245 145.525 34.925L143.748 35.843C144.327 36.9635 145.152 37.8501 146.217 38.4775L147.233 36.7545ZM145.525 34.925C145.115 34.1309 144.893 33.1736 144.893 32.024H142.893C142.893 33.4344 143.167 34.7171 143.748 35.843L145.525 34.925ZM144.893 32.024C144.893 31.0577 145.105 30.1654 145.528 29.333L143.745 28.4269C143.176 29.5466 142.893 30.7503 142.893 32.024H144.893ZM145.526 29.3386C145.96 28.4968 146.555 27.8375 147.317 27.3428L146.228 25.6652C145.167 26.3545 144.338 27.2792 143.748 28.4214L145.526 29.3386ZM147.317 27.3428C148.055 26.8639 148.903 26.616 149.893 26.616V24.616C148.547 24.616 147.315 24.9601 146.228 25.6652L147.317 27.3428ZM149.893 26.616C151.234 26.616 152.275 27.0035 153.092 27.7308L154.422 26.2372C153.191 25.1405 151.656 24.616 149.893 24.616V26.616ZM153.098 27.7359C153.824 28.3727 154.308 29.5424 154.293 31.5365L156.293 31.5515C156.31 29.2896 155.77 27.4193 154.416 26.2321L153.098 27.7359ZM155.275 30.5442L147.403 30.6882L147.439 32.6878L155.311 32.5438L155.275 30.5442ZM146.421 31.688C146.421 33.2068 146.704 34.5321 147.373 35.5673L149.052 34.4807C148.666 33.8839 148.421 32.9852 148.421 31.688H146.421ZM147.381 35.5787C148.15 36.7331 149.366 37.248 150.805 37.248V35.248C149.876 35.248 149.363 34.9469 149.045 34.4693L147.381 35.5787ZM150.805 37.248C151.537 37.248 152.278 37.0597 153.015 36.7279L152.195 34.9041C151.652 35.1483 151.192 35.248 150.805 35.248V37.248ZM153.015 36.7279C153.816 36.3677 154.511 35.8077 155.106 35.0823L153.56 33.8137C153.131 34.3363 152.674 34.6883 152.195 34.9041L153.015 36.7279ZM153.651 35.1791L154.731 36.1871L156.095 34.7249L155.015 33.7169L153.651 35.1791ZM154.592 34.8843C153.418 36.5695 151.86 37.384 149.821 37.384V39.384C152.518 39.384 154.687 38.2465 156.233 36.0277L154.592 34.8843ZM152.981 29.9815C152.954 28.9897 152.762 28.0749 152.262 27.3867C151.719 26.6385 150.917 26.296 150.013 26.296V28.296C150.373 28.296 150.531 28.4055 150.644 28.5613C150.8 28.7771 150.96 29.2183 150.981 30.0345L152.981 29.9815ZM150.013 26.296C149.05 26.296 148.21 26.6591 147.591 27.3974L149.123 28.6826C149.336 28.4289 149.599 28.296 150.013 28.296V26.296ZM147.589 27.3998C147.039 28.0599 146.723 28.9046 146.577 29.8559L148.553 30.1601C148.663 29.4474 148.875 28.9801 149.125 28.6802L147.589 27.3998ZM147.565 31.008H151.981V29.008H147.565V31.008ZM157.047 36.44V35.44H156.047V36.44H157.047ZM158.199 35.936L157.313 35.472L157.304 35.4889L157.296 35.5061L158.199 35.936ZM158.559 28.232L159.554 28.3315L159.669 27.1835L158.516 27.2329L158.559 28.232ZM156.879 28.304H155.879V29.3478L156.922 29.3031L156.879 28.304ZM156.879 26.48V25.48H155.879V26.48H156.879ZM160.575 25.76V24.76H160.184L159.897 25.0252L160.575 25.76ZM161.751 25.76H162.751V24.76H161.751V25.76ZM161.847 26.96L160.85 27.043L160.927 27.96H161.847V26.96ZM161.895 26.96V27.96H162.243L162.516 27.7435L161.895 26.96ZM163.599 26.024L163.955 26.9586L163.967 26.954L163.599 26.024ZM168.471 26.864L167.671 27.464L167.671 27.464L168.471 26.864ZM169.311 36.248L168.316 36.1485L168.195 37.3535L169.402 37.2439L169.311 36.248ZM170.871 36.176H171.871V35.176H170.871V36.176ZM170.871 38V39H171.871V38H170.871ZM164.583 38H163.583V39H164.583V38ZM164.583 36.44V35.44H163.583V36.44H164.583ZM165.759 35.936L166.645 36.4L166.645 36.4L165.759 35.936ZM166.023 34.304H167.023L167.023 34.297L166.023 34.304ZM165.999 30.896H164.999L164.999 30.903L165.999 30.896ZM165.543 28.568L164.678 29.0701L164.684 29.0804L164.69 29.0906L165.543 28.568ZM162.879 28.088L163.25 29.0165L163.266 29.0102L163.282 29.0033L162.879 28.088ZM161.871 28.712L161.186 27.9838L160.871 28.2799V28.712H161.871ZM161.775 36.248L160.78 36.1485L160.659 37.357L161.868 37.2436L161.775 36.248ZM163.335 36.176H164.335V35.176H163.335V36.176ZM163.335 38V39H164.335V38H163.335ZM157.047 38H156.047V39H157.047V38ZM157.047 37.44C157.776 37.44 158.686 37.2384 159.102 36.3659L157.296 35.5061C157.31 35.4761 157.332 35.4464 157.357 35.4229C157.381 35.4007 157.397 35.3949 157.39 35.3978C157.382 35.4014 157.353 35.4125 157.294 35.4225C157.235 35.4325 157.154 35.44 157.047 35.44V37.44ZM159.085 36.4C159.379 35.8387 159.463 35.0884 159.463 34.304H157.463C157.463 35.0236 157.371 35.3613 157.313 35.472L159.085 36.4ZM159.463 34.304V30.272H157.463V34.304H159.463ZM159.463 30.272C159.463 29.5814 159.494 28.9348 159.554 28.3315L157.564 28.1325C157.496 28.8092 157.463 29.5226 157.463 30.272H159.463ZM158.516 27.2329L156.836 27.3049L156.922 29.3031L158.602 29.2311L158.516 27.2329ZM157.879 28.304V26.48H155.879V28.304H157.879ZM156.879 27.48C157.925 27.48 158.825 27.4062 159.552 27.2384L159.102 25.2896C158.581 25.4098 157.849 25.48 156.879 25.48V27.48ZM159.552 27.2384C160.182 27.0931 160.834 26.8818 161.253 26.4948L159.897 25.0252C159.918 25.0055 159.886 25.0407 159.733 25.1028C159.589 25.1608 159.383 25.2249 159.102 25.2896L159.552 27.2384ZM160.575 26.76H161.751V24.76H160.575V26.76ZM160.751 25.76C160.751 25.8287 160.765 26.0017 160.778 26.1637C160.794 26.3654 160.818 26.6587 160.85 27.043L162.844 26.877C162.812 26.4933 162.788 26.2026 162.772 26.0043C162.764 25.9049 162.758 25.8302 162.754 25.7791C162.752 25.7533 162.751 25.7357 162.75 25.7249C162.749 25.698 162.751 25.7246 162.751 25.76H160.751ZM161.847 27.96H161.895V25.96H161.847V27.96ZM162.516 27.7435C162.885 27.451 163.359 27.1856 163.955 26.9585L163.243 25.0895C162.495 25.3744 161.833 25.733 161.274 26.1765L162.516 27.7435ZM163.967 26.954C164.594 26.7059 165.046 26.616 165.351 26.616V24.616C164.696 24.616 163.98 24.7981 163.231 25.094L163.967 26.954ZM165.351 26.616C166.626 26.616 167.304 26.9746 167.671 27.464L169.271 26.264C168.39 25.0894 166.988 24.616 165.351 24.616V26.616ZM167.671 27.464C168.097 28.0315 168.407 29.1121 168.407 30.92H170.407C170.407 28.9839 170.093 27.3605 169.271 26.264L167.671 27.464ZM168.407 30.92V34.136H170.407V30.92H168.407ZM168.407 34.136C168.407 34.8769 168.376 35.5472 168.316 36.1485L170.306 36.3475C170.374 35.6688 170.407 34.9311 170.407 34.136H168.407ZM169.402 37.2439C169.9 37.1985 170.39 37.176 170.871 37.176V35.176C170.328 35.176 169.777 35.2015 169.22 35.2521L169.402 37.2439ZM169.871 36.176V38H171.871V36.176H169.871ZM170.871 37H164.583V39H170.871V37ZM165.583 38V36.44H163.583V38H165.583ZM164.583 37.44C165.322 37.44 166.207 37.2351 166.645 36.4L164.873 35.472C164.885 35.4485 164.903 35.4258 164.923 35.4085C164.941 35.3922 164.951 35.3899 164.939 35.3949C164.909 35.4079 164.805 35.44 164.583 35.44V37.44ZM166.645 36.4C166.939 35.8387 167.023 35.0884 167.023 34.304H165.023C165.023 35.0236 164.931 35.3613 164.873 35.472L166.645 36.4ZM167.023 34.297L166.999 30.889L164.999 30.903L165.023 34.311L167.023 34.297ZM166.999 30.896C166.999 29.7846 166.846 28.781 166.396 28.0454L164.69 29.0906C164.848 29.347 164.999 29.8954 164.999 30.896H166.999ZM166.408 28.0659C165.898 27.1876 165.02 26.824 164.055 26.824V28.824C164.497 28.824 164.612 28.9564 164.678 29.0701L166.408 28.0659ZM164.055 26.824C163.514 26.824 162.986 26.9485 162.476 27.1727L163.282 29.0033C163.572 28.8755 163.828 28.824 164.055 28.824V26.824ZM162.508 27.1595C162.009 27.359 161.562 27.6299 161.186 27.9838L162.556 29.4402C162.724 29.2821 162.949 29.137 163.25 29.0165L162.508 27.1595ZM160.871 28.712V34.136H162.871V28.712H160.871ZM160.871 34.136C160.871 34.8769 160.84 35.5472 160.78 36.1485L162.77 36.3475C162.838 35.6688 162.871 34.9311 162.871 34.136H160.871ZM161.868 37.2436C162.348 37.1986 162.837 37.176 163.335 37.176V35.176C162.777 35.176 162.225 35.2014 161.682 35.2524L161.868 37.2436ZM162.335 36.176V38H164.335V36.176H162.335ZM163.335 37H157.047V39H163.335V37ZM158.047 38V36.44H156.047V38H158.047Z" fill="#18115E"/>
<path d="M34.8408 28.8424C34.9154 28.5328 34.6894 28.2329 34.374 28.2229L18.391 27.7171C18.1552 27.7096 17.9462 27.8702 17.8905 28.1015L14.1099 43.7888C14.0353 44.0984 14.2613 44.3983 14.5767 44.4083L30.5598 44.914C30.7955 44.9215 31.0045 44.761 31.0603 44.5296L34.8408 28.8424Z" fill="url(#paint0_linear_201_97)"/>
<path d="M15.5025 28.3585C15.5772 28.038 15.3618 27.7305 15.0574 27.7232L6.39573 27.5166C6.1682 27.5112 5.96502 27.6791 5.90914 27.9186L3.78204 37.039C3.7073 37.3595 3.92274 37.667 4.2271 37.6742L12.8888 37.8808C13.1163 37.8863 13.3195 37.7184 13.3754 37.4788L15.5025 28.3585Z" fill="url(#paint1_linear_201_97)"/>
<path d="M38.2187 16.3904C38.2935 16.0699 38.078 15.7624 37.7736 15.7552L29.1133 15.5492C28.8858 15.5438 28.6826 15.7116 28.6268 15.9512L26.4995 25.0699C26.4247 25.3904 26.6402 25.6979 26.9446 25.7052L35.6049 25.9112C35.8324 25.9166 36.0355 25.7487 36.0914 25.5092L38.2187 16.3904Z" fill="url(#paint2_linear_201_97)"/>
<path d="M27.683 9.45519C27.7578 9.13471 27.5423 8.82721 27.238 8.81995L11.8108 8.45198C11.5833 8.44655 11.3801 8.61443 11.3243 8.854L7.53574 25.098C7.46099 25.4185 7.67643 25.726 7.9808 25.7333L23.4079 26.1012C23.6354 26.1067 23.8386 25.9388 23.8945 25.6992L27.683 9.45519Z" fill="url(#paint3_linear_201_97)"/>
<defs>
<linearGradient id="paint0_linear_201_97" x1="14.5385" y1="43.9608" x2="32.8478" y2="30.5656" gradientUnits="userSpaceOnUse">
<stop stop-color="#18115E"/>
<stop offset="0.828125" stop-color="#18115E" stop-opacity="0.292667"/>
<stop offset="1" stop-color="#18115E" stop-opacity="0"/>
</linearGradient>
<linearGradient id="paint1_linear_201_97" x1="15.6474" y1="27.7373" x2="2.92832" y2="36.6484" gradientUnits="userSpaceOnUse">
<stop stop-color="#18115E"/>
<stop offset="1" stop-color="#18115E" stop-opacity="0"/>
</linearGradient>
<linearGradient id="paint2_linear_201_97" x1="38.3636" y1="15.7692" x2="25.6458" y2="24.6795" gradientUnits="userSpaceOnUse">
<stop stop-color="#18115E"/>
<stop offset="0.504872" stop-color="#18115E" stop-opacity="0.791667"/>
<stop offset="1" stop-color="#18115E" stop-opacity="0"/>
</linearGradient>
<linearGradient id="paint3_linear_201_97" x1="8.077" y1="25.0185" x2="29.4672" y2="9.91721" gradientUnits="userSpaceOnUse">
<stop stop-color="#18115E"/>
<stop offset="0.463921" stop-color="#18115E" stop-opacity="0.779564"/>
<stop offset="0.716782" stop-color="#18115E" stop-opacity="0.255664"/>
<stop offset="1" stop-color="#18115E" stop-opacity="0"/>
</linearGradient>
</defs>
</svg>
