<svg width="113" height="39" viewBox="0 0 113 39" fill="none" xmlns="http://www.w3.org/2000/svg">
<path d="M0.536133 26.4816V38.9168H112V26.4816H0.536133ZM111.676 38.5951H0.853491V26.7968H111.676V38.5951Z" fill="#181818"/>
<path d="M25.4998 30.2565H24.0166V34.4016H24.457V32.5579H25.4998C26.1431 32.5579 26.6548 32.0527 26.6548 31.4115C26.6548 30.7746 26.1431 30.2565 25.4998 30.2565ZM25.4587 32.1369H24.457V30.6861H25.4587C25.8733 30.6861 26.2122 30.9754 26.2122 31.418C26.2122 31.8735 25.8733 32.1369 25.4587 32.1369Z" fill="#181818"/>
<path d="M33.5181 34.4576C34.699 34.4576 35.6446 33.5033 35.6446 32.3289C35.6446 31.1545 34.699 30.2024 33.5181 30.2024C32.3437 30.2024 31.3916 31.1545 31.3916 32.3289C31.3916 33.5033 32.3437 34.4576 33.5181 34.4576ZM33.5181 34.015C32.5855 34.015 31.8342 33.268 31.8342 32.3289C31.8342 31.3898 32.5855 30.645 33.5181 30.645C34.4572 30.645 35.2042 31.3898 35.2042 32.3289C35.2042 33.268 34.4572 34.015 33.5181 34.015Z" fill="#181818"/>
<path d="M42.4577 32.5082C43.0039 32.4326 43.4184 31.9771 43.4184 31.418C43.4184 30.7681 42.9003 30.2565 42.2634 30.2565H40.7803V34.4016H41.2207V32.5298H42.0022L43.1766 34.4016H43.6797L42.4577 32.5082ZM41.2207 32.1088V30.699H42.2375C42.652 30.699 42.9759 30.9905 42.9759 31.405C42.9759 31.826 42.6585 32.1088 42.2375 32.1088H41.2207Z" fill="#181818"/>
<path d="M50.8222 30.2565H48.0869V30.699H49.2333V34.4016H49.6759V30.699H50.8222V30.2565Z" fill="#181818"/>
<path d="M57.9717 30.6861V30.2565H55.707V34.4016H56.1474V32.5427H57.7364V32.1153H56.1474V30.6861H57.9717Z" fill="#181818"/>
<path d="M64.8443 34.4577C66.0252 34.4577 66.9708 33.5035 66.9708 32.329C66.9708 31.1546 66.0252 30.2025 64.8443 30.2025C63.6698 30.2025 62.7178 31.1546 62.7178 32.329C62.7178 33.5035 63.6698 34.4577 64.8443 34.4577ZM64.8443 34.0151C63.9116 34.0151 63.1603 33.2681 63.1603 32.329C63.1603 31.3899 63.9116 30.6451 64.8443 30.6451C65.7834 30.6451 66.5304 31.3899 66.5304 32.329C66.5304 33.2681 65.7834 34.0151 64.8443 34.0151Z" fill="#181818"/>
<path d="M72.5459 33.959V30.2565H72.1055V34.4016H74.0873V33.959H72.5459Z" fill="#181818"/>
<path d="M78.9707 34.4016H79.4111V30.2565H78.9707V34.4016Z" fill="#181818"/>
<path d="M86.691 34.4576C87.8719 34.4576 88.8175 33.5033 88.8175 32.3289C88.8175 31.1545 87.8719 30.2024 86.691 30.2024C85.5165 30.2024 84.5645 31.1545 84.5645 32.3289C84.5645 33.5033 85.5165 34.4576 86.691 34.4576ZM86.691 34.015C85.7583 34.015 85.007 33.268 85.007 32.3289C85.007 31.3898 85.7583 30.645 86.691 30.645C87.6301 30.645 88.3771 31.3898 88.3771 32.3289C88.3771 33.268 87.6301 34.015 86.691 34.015Z" fill="#181818"/>
<path d="M1.35449 19.8965V0.90686H7.14897L8.73792 12.4872L10.3355 0.90686H16.1645V19.8965H12.7017V6.20911L10.5082 19.8965H7.10579L4.78282 6.20911V19.8965H1.35449Z" fill="#181818"/>
<path d="M17.8887 19.8964L19.7281 0.906738H26.1616L27.975 19.8964H24.3654L24.1063 16.8221H21.8092L21.5847 19.8964H17.8887ZM22.0942 13.791H23.8127L22.975 4.13645H22.8023L22.0942 13.791Z" fill="#181818"/>
<path d="M29.1201 19.8967L31.1581 9.81894L29.5433 0.881104H33.2566L34.2497 7.42688L35.1132 0.881104H38.8524L37.2117 9.81894L39.2497 19.8967H35.3982L34.2065 12.4701L32.9889 19.8967H29.1201Z" fill="#181818"/>
<path d="M44.5259 19.8969L42.4922 0.909424H46.2055L47.2677 12.8913L48.332 0.909424H51.8661L52.8808 12.8913L53.902 0.909424H57.6584L55.5794 19.8969H51.0242L50.0742 10.7432L49.1675 19.8969H44.5259ZM58.8264 19.8969L60.6615 0.909424H67.095L68.9085 19.8969H65.3074L65.0376 16.8248H62.7405L62.5181 19.8969H58.8264ZM63.0319 13.798H64.7526L63.9149 4.13698H63.7379L63.0319 13.798ZM70.614 0.909424H76.4473C77.3757 0.909424 78.0924 1.121 78.5998 1.54198C79.1114 1.95865 79.4547 2.54803 79.6317 3.3058C79.8066 4.06573 79.8951 5.03508 79.8951 6.21599C79.8951 7.29112 79.7548 8.13094 79.4741 8.73543C79.1934 9.3356 78.7077 9.75658 78.0168 9.99406C78.5933 10.1128 79.0078 10.3999 79.2647 10.8576C79.5238 11.3132 79.6533 11.9328 79.6533 12.7143L79.6101 19.8969H75.8968V12.4703C75.8968 11.9371 75.7932 11.5981 75.5838 11.4513C75.3787 11.3024 75.003 11.229 74.4547 11.229V19.8969H70.614V0.909424ZM75.383 7.93663C75.9162 7.93663 76.1818 7.36237 76.1818 6.21599C76.1818 5.71081 76.1602 5.33516 76.1127 5.08689C76.0695 4.83646 75.9875 4.66375 75.8687 4.56875C75.7543 4.4716 75.5859 4.42411 75.3614 4.42411H74.4763V7.93663H75.383ZM81.7107 0.909424H87.5441C88.4724 0.909424 89.1891 1.121 89.6965 1.54198C90.2081 1.95865 90.5514 2.54803 90.7284 3.3058C90.9033 4.06573 90.9918 5.03508 90.9918 6.21599C90.9918 7.29112 90.8515 8.13094 90.5708 8.73543C90.2902 9.3356 89.8044 9.75658 89.1136 9.99406C89.69 10.1128 90.1045 10.3999 90.3614 10.8576C90.6205 11.3132 90.75 11.9328 90.75 12.7143L90.7068 19.8969H86.9935V12.4703C86.9935 11.9371 86.8899 11.5981 86.6805 11.4513C86.4754 11.3024 86.0998 11.229 85.5514 11.229V19.8969H81.7107V0.909424ZM86.4797 7.93663C87.013 7.93663 87.2785 7.36237 87.2785 6.21599C87.2785 5.71081 87.2569 5.33516 87.2094 5.08689C87.1663 4.83646 87.0842 4.66375 86.9655 4.56875C86.8511 4.4716 86.6827 4.42411 86.4581 4.42411H85.573V7.93663H86.4797ZM92.8075 19.8969V0.909424H100.411V4.57523H96.6697V8.27126H100.253V11.8507H96.6697V16.2052H100.653V19.8969H92.8075ZM102.466 19.8969V0.909424H106.378L108.123 9.99406V0.909424H111.793V19.8969H108.08L106.18 10.3935V19.8969H102.466Z" stroke="#181818" stroke-width="0.666666"/>
</svg>
