<svg xmlns="http://www.w3.org/2000/svg" xmlns:xlink="http://www.w3.org/1999/xlink" width="512" zoomAndPan="magnify" viewBox="0 0 384 383.999986" height="512" preserveAspectRatio="xMidYMid meet" version="1.0"><defs><clipPath id="461e9b5dbc"><path d="M 78 21.828125 L 229 21.828125 L 229 153 L 78 153 Z M 78 21.828125 " clip-rule="nonzero"/></clipPath><clipPath id="a390dd2b8e"><path d="M 206 121 L 357.582031 121 L 357.582031 362.328125 L 206 362.328125 Z M 206 121 " clip-rule="nonzero"/></clipPath></defs><path fill="#e5b499" d="M 53.027344 116.328125 C 40.226562 132.679688 73.988281 149.386719 73.988281 149.386719 C 76.460938 150.300781 78.71875 150.925781 80.792969 151.308594 L 80.792969 114.40625 C 62.828125 105.300781 53.027344 116.328125 53.027344 116.328125 " fill-opacity="1" fill-rule="nonzero"/><path fill="#e5b499" d="M 37.144531 64.683594 C 26.359375 78.453125 67.53125 102.289062 80.792969 109.46875 L 80.792969 70.71875 C 42.183594 48.640625 37.144531 64.683594 37.144531 64.683594 " fill-opacity="1" fill-rule="nonzero"/><path fill="#e5b499" d="M 326.792969 317.09375 C 329.390625 315.171875 332.003906 313.265625 334.613281 311.359375 C 334.710938 311.277344 334.800781 311.195312 334.894531 311.113281 C 334.671875 311.289062 334.449219 311.464844 334.230469 311.640625 C 331.746094 313.453125 329.265625 315.265625 326.792969 317.09375 " fill-opacity="1" fill-rule="nonzero"/><path fill="#e5b499" d="M 325.898438 317.75 C 324.71875 318.625 323.542969 319.507812 322.371094 320.390625 C 323.542969 319.507812 324.71875 318.625 325.898438 317.75 " fill-opacity="1" fill-rule="nonzero"/><path fill="#e5b499" d="M 321.621094 320.957031 C 320.199219 322.035156 318.78125 323.121094 317.378906 324.222656 C 318.78125 323.121094 320.199219 322.035156 321.621094 320.957031 " fill-opacity="1" fill-rule="nonzero"/><path fill="#e5b499" d="M 274.742188 360.371094 C 275.484375 359.589844 276.25 358.835938 277.023438 358.089844 C 276.25 358.835938 275.484375 359.589844 274.742188 360.371094 " fill-opacity="1" fill-rule="nonzero"/><path fill="#e5b499" d="M 345.285156 302.003906 C 345.011719 302.234375 344.742188 302.472656 344.46875 302.703125 C 344.742188 302.472656 345.011719 302.234375 345.285156 302.003906 " fill-opacity="1" fill-rule="nonzero"/><path fill="#e5b499" d="M 255.867188 289.792969 C 241.195312 282.242188 231.898438 273.101562 226.363281 262.179688 L 226.363281 284.042969 C 226.363281 287.21875 223.765625 289.792969 220.566406 289.792969 L 153.246094 289.792969 C 196.910156 314.355469 235.609375 317.664062 235.609375 317.664062 C 255.253906 312.4375 255.867188 289.792969 255.867188 289.792969 " fill-opacity="1" fill-rule="nonzero"/><path fill="#e5b499" d="M 314.167969 326.804688 C 313.945312 326.992188 313.722656 327.175781 313.5 327.363281 C 313.722656 327.175781 313.945312 326.992188 314.167969 326.804688 " fill-opacity="1" fill-rule="nonzero"/><path fill="#e5b499" d="M 290.160156 347.429688 C 290.058594 347.5 289.960938 347.570312 289.863281 347.644531 C 292.804688 345.535156 295.796875 343.484375 298.757812 341.445312 C 300.5 339.535156 302.289062 337.683594 304.121094 335.875 L 304.015625 335.976562 C 299.375 339.769531 294.753906 343.582031 290.160156 347.429688 " fill-opacity="1" fill-rule="nonzero"/><path fill="#e5b499" d="M 280.128906 355.234375 C 279.296875 355.957031 278.492188 356.703125 277.6875 357.449219 C 278.492188 356.703125 279.296875 355.957031 280.128906 355.234375 " fill-opacity="1" fill-rule="nonzero"/><path fill="#e5b499" d="M 282.746094 353.046875 C 281.953125 353.695312 281.160156 354.351562 280.382812 355.019531 C 281.160156 354.351562 281.953125 353.695312 282.746094 353.046875 " fill-opacity="1" fill-rule="nonzero"/><path fill="#e5b499" d="M 340.367188 306.246094 C 340.101562 306.480469 339.835938 306.710938 339.570312 306.949219 C 339.835938 306.710938 340.101562 306.480469 340.367188 306.246094 " fill-opacity="1" fill-rule="nonzero"/><path fill="#e5b499" d="M 286.054688 350.449219 C 285.195312 351.09375 284.355469 351.757812 283.515625 352.429688 C 284.355469 351.757812 285.195312 351.09375 286.054688 350.449219 " fill-opacity="1" fill-rule="nonzero"/><path fill="#e5b499" d="M 310.566406 329.871094 L 310.441406 329.980469 L 310.566406 329.871094 " fill-opacity="1" fill-rule="nonzero"/><path fill="#e5b499" d="M 288.734375 348.460938 C 288.042969 348.964844 287.351562 349.472656 286.667969 349.984375 C 287.351562 349.472656 288.042969 348.964844 288.734375 348.460938 " fill-opacity="1" fill-rule="nonzero"/><path fill="#091719" d="M 84.777344 205.480469 C 84.777344 205.480469 86.886719 202.109375 91.53125 202.027344 L 91.53125 187.050781 C 88.671875 189.6875 85.144531 192.390625 80.792969 195.117188 L 80.792969 209.285156 C 82.027344 208.042969 83.355469 206.769531 84.777344 205.480469 " fill-opacity="1" fill-rule="nonzero"/><path fill="#091719" d="M 136.996094 33.40625 L 170.160156 33.40625 C 171.835938 33.40625 173.195312 34.765625 173.195312 36.445312 C 173.195312 38.121094 171.835938 39.480469 170.160156 39.480469 L 136.996094 39.480469 C 135.324219 39.480469 133.964844 38.121094 133.964844 36.445312 C 133.964844 34.765625 135.324219 33.40625 136.996094 33.40625 M 91.53125 150.59375 L 91.53125 47.988281 L 215.621094 47.988281 L 215.621094 122.886719 C 219.199219 124.128906 222.8125 125.992188 226.363281 128.226562 L 226.363281 29.433594 C 226.363281 26.261719 223.765625 23.6875 220.566406 23.6875 L 86.589844 23.6875 C 83.390625 23.6875 80.792969 26.261719 80.792969 29.433594 L 80.792969 153.332031 C 84.332031 151.472656 88.035156 150.300781 91.53125 150.59375 " fill-opacity="1" fill-rule="nonzero"/><path fill="#091719" d="M 170.996094 279.1875 C 170.996094 282.355469 168.429688 284.925781 165.261719 284.925781 L 141.890625 284.925781 C 138.726562 284.925781 136.160156 282.355469 136.160156 279.1875 L 136.160156 270.414062 C 136.160156 267.242188 138.726562 264.671875 141.890625 264.671875 L 165.261719 264.671875 C 168.429688 264.671875 170.996094 267.242188 170.996094 270.414062 L 170.996094 279.1875 M 226.363281 284.042969 L 226.363281 262.179688 C 216.714844 243.148438 218.496094 218.734375 223.179688 187.96875 C 220.523438 185.84375 217.964844 183.363281 215.621094 180.847656 L 215.621094 256.171875 L 91.53125 256.171875 L 91.53125 243.050781 C 88.800781 245.964844 85.511719 249.011719 81.582031 252.183594 L 80.792969 262.789062 L 80.792969 284.042969 C 80.792969 287.21875 83.390625 289.792969 86.589844 289.792969 L 220.566406 289.792969 C 223.765625 289.792969 226.363281 287.21875 226.363281 284.042969 " fill-opacity="1" fill-rule="nonzero"/><path fill="#091719" d="M 165.261719 264.671875 L 141.890625 264.671875 C 138.726562 264.671875 136.160156 267.242188 136.160156 270.414062 L 136.160156 279.1875 C 136.160156 282.355469 138.726562 284.925781 141.890625 284.925781 L 165.261719 284.925781 C 168.429688 284.925781 170.996094 282.355469 170.996094 279.1875 L 170.996094 270.414062 C 170.996094 267.242188 168.429688 264.671875 165.261719 264.671875 " fill-opacity="1" fill-rule="nonzero"/><path fill="#091719" d="M 136.996094 39.480469 L 170.160156 39.480469 C 171.835938 39.480469 173.195312 38.121094 173.195312 36.445312 C 173.195312 34.765625 171.835938 33.40625 170.160156 33.40625 L 136.996094 33.40625 C 135.324219 33.40625 133.964844 34.765625 133.964844 36.445312 C 133.964844 38.121094 135.324219 39.480469 136.996094 39.480469 " fill-opacity="1" fill-rule="nonzero"/><path fill="#7dbbbd" d="M 91.53125 47.988281 L 91.53125 150.59375 C 94.699219 150.855469 97.691406 152.324219 100.234375 155.574219 C 100.234375 155.574219 110.078125 169.941406 91.53125 187.050781 L 91.53125 202.027344 C 93.460938 201.996094 95.828125 202.53125 98.667969 204.117188 C 98.667969 204.117188 114.210938 218.894531 91.53125 243.050781 L 91.53125 256.171875 L 215.621094 256.171875 L 215.621094 180.847656 C 208.777344 173.488281 203.789062 165.835938 203.789062 165.835938 C 196.613281 170.796875 185.421875 173.613281 176.699219 175.160156 L 164.210938 190.847656 L 101.152344 140.515625 L 134.554688 98.539062 L 179.835938 134.6875 C 192 128.398438 200.152344 122.140625 200.152344 122.140625 C 205 120.523438 210.265625 121.023438 215.621094 122.886719 L 215.621094 47.988281 L 91.53125 47.988281 " fill-opacity="1" fill-rule="nonzero"/><path fill="#f68712" d="M 134.554688 98.539062 L 101.152344 140.515625 L 138.1875 142.628906 L 134.898438 98.816406 L 179.835938 134.6875 L 134.554688 98.539062 " fill-opacity="1" fill-rule="nonzero"/><path fill="#f68712" d="M 176.699219 175.160156 C 169.378906 176.453125 163.796875 176.851562 163.796875 176.851562 C 162.507812 176.792969 161.28125 176.699219 160.089844 176.589844 L 164.210938 190.847656 L 176.699219 175.160156 " fill-opacity="1" fill-rule="nonzero"/><path fill="#f9a72b" d="M 101.152344 140.515625 L 164.210938 190.847656 L 160.089844 176.589844 C 131.050781 173.917969 130.183594 156.152344 130.183594 156.152344 C 130.183594 150.066406 134.820312 147.960938 138.535156 147.253906 L 138.1875 142.628906 L 101.152344 140.515625 " fill-opacity="1" fill-rule="nonzero"/><path fill="#f9a72b" d="M 134.898438 98.816406 L 138.1875 142.628906 L 138.535156 147.253906 C 141.011719 146.78125 143.078125 146.929688 143.078125 146.929688 C 156.535156 145.296875 169.601562 139.980469 179.835938 134.6875 L 134.898438 98.816406 " fill-opacity="1" fill-rule="nonzero"/><path fill="#f0c2a8" d="M 339.570312 306.949219 C 339.835938 306.710938 340.101562 306.480469 340.367188 306.246094 C 341.726562 305.054688 343.09375 303.871094 344.46875 302.703125 C 344.742188 302.472656 345.011719 302.234375 345.285156 302.003906 C 348.621094 299.179688 352.007812 296.417969 355.46875 293.753906 L 315.265625 249.417969 C 296.183594 226.820312 289.480469 223 289.480469 223 C 289.480469 223 278.855469 181.648438 256.828125 156.019531 C 250.277344 148.40625 238.707031 136 226.363281 128.226562 C 222.8125 125.992188 219.199219 124.128906 215.621094 122.886719 C 210.265625 121.023438 205 120.523438 200.152344 122.140625 C 200.152344 122.140625 192 128.398438 179.835938 134.6875 C 169.601562 139.980469 156.535156 145.296875 143.078125 146.929688 C 143.078125 146.929688 141.011719 146.78125 138.535156 147.253906 C 134.820312 147.960938 130.183594 150.066406 130.183594 156.152344 C 130.183594 156.152344 131.050781 173.917969 160.089844 176.589844 C 161.28125 176.699219 162.507812 176.792969 163.796875 176.851562 C 163.796875 176.851562 169.378906 176.453125 176.699219 175.160156 C 185.421875 173.613281 196.613281 170.796875 203.789062 165.835938 C 203.789062 165.835938 208.777344 173.488281 215.621094 180.847656 C 217.964844 183.363281 220.523438 185.84375 223.179688 187.96875 C 218.496094 218.734375 216.714844 243.148438 226.363281 262.179688 C 231.898438 273.101562 241.195312 282.242188 255.867188 289.792969 C 255.867188 289.792969 255.253906 312.4375 235.609375 317.664062 L 274.644531 360.472656 L 274.742188 360.371094 C 275.484375 359.589844 276.25 358.835938 277.023438 358.089844 C 277.246094 357.875 277.464844 357.664062 277.6875 357.449219 C 278.492188 356.703125 279.296875 355.957031 280.128906 355.234375 L 280.382812 355.019531 C 281.160156 354.351562 281.953125 353.695312 282.746094 353.046875 C 283 352.839844 283.257812 352.632812 283.515625 352.429688 C 284.355469 351.757812 285.195312 351.09375 286.054688 350.449219 C 286.257812 350.292969 286.464844 350.136719 286.667969 349.984375 C 287.351562 349.472656 288.042969 348.964844 288.734375 348.460938 C 289.109375 348.1875 289.484375 347.914062 289.863281 347.644531 C 289.960938 347.570312 290.058594 347.5 290.160156 347.429688 C 294.753906 343.582031 299.375 339.769531 304.015625 335.976562 L 304.121094 335.875 C 306.160156 333.855469 308.265625 331.894531 310.441406 329.980469 L 310.566406 329.871094 C 311.53125 329.023438 312.507812 328.1875 313.5 327.363281 C 313.722656 327.175781 313.945312 326.992188 314.167969 326.804688 C 315.222656 325.933594 316.289062 325.074219 317.378906 324.222656 C 318.78125 323.121094 320.199219 322.035156 321.621094 320.957031 C 321.871094 320.765625 322.121094 320.582031 322.371094 320.390625 C 323.542969 319.507812 324.71875 318.625 325.898438 317.75 C 326.195312 317.53125 326.496094 317.3125 326.792969 317.09375 C 329.265625 315.265625 331.746094 313.453125 334.230469 311.640625 C 334.449219 311.464844 334.671875 311.289062 334.894531 311.113281 L 334.90625 311.101562 C 336.449219 309.707031 338.003906 308.324219 339.570312 306.949219 " fill-opacity="1" fill-rule="nonzero"/><path fill="#f0c2a8" d="M 91.53125 243.050781 C 114.210938 218.894531 98.667969 204.117188 98.667969 204.117188 C 95.828125 202.53125 93.460938 201.996094 91.53125 202.027344 C 86.886719 202.109375 84.777344 205.480469 84.777344 205.480469 C 83.355469 206.769531 82.027344 208.042969 80.792969 209.285156 C 69.09375 221.078125 65.695312 230.511719 65.695312 230.511719 C 59.40625 249.109375 80.792969 262.789062 80.792969 262.789062 L 81.582031 252.183594 C 85.511719 249.011719 88.800781 245.964844 91.53125 243.050781 " fill-opacity="1" fill-rule="nonzero"/><path fill="#f0c2a8" d="M 91.53125 187.050781 C 110.078125 169.941406 100.234375 155.574219 100.234375 155.574219 C 97.691406 152.324219 94.699219 150.855469 91.53125 150.59375 C 88.035156 150.300781 84.332031 151.472656 80.792969 153.332031 C 71.394531 158.265625 63.167969 168.027344 63.167969 168.027344 C 43.75 196.695312 80.792969 202.023438 80.792969 202.023438 L 80.792969 195.117188 C 85.144531 192.390625 88.671875 189.6875 91.53125 187.050781 " fill-opacity="1" fill-rule="nonzero"/><path fill="#e5b499" d="M 78.929688 148.992188 C 77.613281 148.652344 76.214844 148.214844 74.730469 147.671875 C 73.96875 147.289062 68.183594 144.300781 62.65625 139.898438 C 59.855469 137.675781 57.125 135.085938 55.152344 132.363281 C 54.167969 131.003906 53.367188 129.613281 52.828125 128.226562 C 52.28125 126.84375 51.992188 125.46875 51.992188 124.105469 C 51.996094 121.992188 52.660156 119.851562 54.449219 117.539062 L 54.457031 117.527344 C 54.707031 117.269531 55.945312 116.039062 58.085938 114.890625 C 60.230469 113.742188 63.257812 112.667969 67.175781 112.667969 C 70.441406 112.667969 74.347656 113.414062 78.929688 115.574219 L 78.929688 148.992188 " fill-opacity="1" fill-rule="nonzero"/><path fill="#231f20" d="M 78.191406 152.648438 C 76.65625 152.265625 75.042969 151.761719 73.339844 151.132812 L 73.164062 151.054688 C 73.117188 151.035156 70.503906 149.738281 66.972656 147.507812 C 63.445312 145.273438 59.003906 142.113281 55.3125 138.292969 C 52.851562 135.746094 50.703125 132.902344 49.429688 129.761719 C 48.699219 127.96875 48.269531 126.066406 48.269531 124.105469 C 48.261719 121.128906 49.300781 118.054688 51.5625 115.179688 L 51.636719 115.09375 C 51.734375 114.984375 53.09375 113.46875 55.707031 111.953125 C 58.304688 110.445312 62.175781 108.941406 67.164062 108.941406 C 67.167969 108.941406 67.171875 108.941406 67.175781 108.941406 C 67.175781 108.941406 67.183594 108.941406 67.1875 108.941406 C 70.613281 108.941406 74.550781 109.648438 78.929688 111.492188 L 78.929688 113.523438 C 74.460938 111.53125 70.53125 110.804688 67.175781 110.804688 C 57.9375 110.804688 53.027344 116.328125 53.027344 116.328125 C 40.226562 132.679688 73.988281 149.386719 73.988281 149.386719 C 75.738281 150.03125 77.382812 150.535156 78.929688 150.910156 L 78.929688 152.222656 C 78.683594 152.363281 78.4375 152.503906 78.191406 152.648438 " fill-opacity="1" fill-rule="nonzero"/><path fill="#221712" d="M 78.929688 150.910156 C 77.382812 150.535156 75.738281 150.03125 73.988281 149.386719 C 73.988281 149.386719 40.226562 132.679688 53.027344 116.328125 C 53.027344 116.328125 57.9375 110.804688 67.175781 110.804688 C 70.53125 110.804688 74.460938 111.53125 78.929688 113.523438 L 78.929688 115.574219 C 74.347656 113.414062 70.441406 112.667969 67.175781 112.667969 C 63.257812 112.667969 60.230469 113.742188 58.085938 114.890625 C 55.945312 116.039062 54.707031 117.269531 54.457031 117.527344 L 54.449219 117.539062 C 52.660156 119.851562 51.996094 121.992188 51.992188 124.105469 C 51.992188 125.46875 52.28125 126.84375 52.828125 128.226562 C 53.367188 129.613281 54.167969 131.003906 55.152344 132.363281 C 57.125 135.085938 59.855469 137.675781 62.65625 139.898438 C 68.183594 144.300781 73.96875 147.289062 74.730469 147.671875 C 76.214844 148.214844 77.613281 148.652344 78.929688 148.992188 L 78.929688 150.910156 " fill-opacity="1" fill-rule="nonzero"/><path fill="#e5b499" d="M 78.929688 106.320312 C 73.96875 103.558594 66.894531 99.414062 59.964844 94.652344 C 54.046875 90.589844 48.238281 86.070312 43.996094 81.652344 C 41.867188 79.445312 40.136719 77.265625 38.976562 75.230469 C 37.804688 73.191406 37.21875 71.324219 37.222656 69.734375 C 37.230469 68.332031 37.621094 67.105469 38.605469 65.835938 C 38.734375 65.667969 38.839844 65.472656 38.910156 65.269531 L 38.910156 65.265625 C 38.9375 65.1875 39.351562 64.113281 40.675781 63.070312 C 42.007812 62.027344 44.277344 60.921875 48.382812 60.914062 C 48.386719 60.914062 48.390625 60.914062 48.398438 60.914062 C 52.808594 60.914062 59.316406 62.261719 68.628906 66.515625 C 71.742188 67.933594 75.164062 69.679688 78.929688 71.800781 L 78.929688 106.320312 " fill-opacity="1" fill-rule="nonzero"/><path fill="#231f20" d="M 78.929688 110.574219 C 76.859375 109.441406 74.261719 107.988281 71.367188 106.285156 C 64.167969 102.042969 55.125 96.28125 47.675781 90.09375 C 42.710938 85.957031 38.445312 81.660156 35.882812 77.320312 C 34.425781 74.835938 33.503906 72.304688 33.5 69.734375 C 33.488281 67.648438 34.152344 65.570312 35.503906 63.761719 C 35.683594 63.328125 36.0625 62.578125 36.761719 61.722656 C 37.757812 60.496094 39.433594 59.074219 42.007812 58.171875 C 43.726562 57.566406 45.824219 57.1875 48.378906 57.1875 C 48.378906 57.1875 48.382812 57.1875 48.382812 57.1875 C 53.542969 57.191406 60.527344 58.722656 70.175781 63.125 C 72.875 64.355469 75.789062 65.816406 78.929688 67.539062 L 78.929688 69.667969 C 64.25 61.511719 54.632812 59.054688 48.382812 59.054688 C 38.910156 59.054688 37.144531 64.683594 37.144531 64.683594 C 26.824219 77.863281 64.085938 100.253906 78.929688 108.449219 L 78.929688 110.574219 " fill-opacity="1" fill-rule="nonzero"/><path fill="#221712" d="M 78.929688 108.449219 C 64.085938 100.253906 26.824219 77.863281 37.144531 64.683594 C 37.144531 64.683594 38.910156 59.054688 48.382812 59.054688 C 54.632812 59.054688 64.25 61.511719 78.929688 69.667969 L 78.929688 71.800781 C 75.164062 69.679688 71.742188 67.933594 68.628906 66.515625 C 59.316406 62.261719 52.808594 60.914062 48.398438 60.914062 C 48.390625 60.914062 48.386719 60.914062 48.382812 60.914062 C 44.277344 60.921875 42.007812 62.027344 40.675781 63.070312 C 39.351562 64.113281 38.9375 65.1875 38.910156 65.265625 L 38.910156 65.269531 C 38.839844 65.472656 38.734375 65.667969 38.605469 65.835938 C 37.621094 67.105469 37.230469 68.332031 37.222656 69.734375 C 37.21875 71.324219 37.804688 73.191406 38.976562 75.230469 C 40.136719 77.265625 41.867188 79.445312 43.996094 81.652344 C 48.238281 86.070312 54.046875 90.589844 59.964844 94.652344 C 66.894531 99.414062 73.96875 103.558594 78.929688 106.320312 L 78.929688 108.449219 " fill-opacity="1" fill-rule="nonzero"/><path fill="#e5b499" d="M 236.707031 316.160156 C 236.484375 315.996094 236.242188 315.890625 235.984375 315.835938 C 235.910156 315.824219 235.839844 315.8125 235.769531 315.808594 L 235.71875 315.800781 C 234.605469 315.703125 214.28125 313.726562 186.953125 303.445312 C 178.691406 300.332031 169.789062 296.460938 160.582031 291.65625 L 220.566406 291.65625 C 222.667969 291.65625 224.59375 290.804688 225.972656 289.433594 C 227.359375 288.0625 228.222656 286.144531 228.222656 284.042969 L 228.222656 269.015625 C 234.074219 277.65625 242.683594 285.070312 254.761719 291.320312 L 236.707031 316.160156 " fill-opacity="1" fill-rule="nonzero"/><path fill="#231f20" d="M 291.296875 348.902344 L 291.355469 348.855469 C 295.9375 345.015625 300.558594 341.210938 305.191406 337.417969 L 305.222656 337.390625 C 303.484375 339.117188 301.789062 340.886719 300.132812 342.703125 C 300.042969 342.800781 299.921875 342.90625 299.8125 342.976562 C 296.964844 344.941406 294.101562 346.894531 291.296875 348.902344 M 318.136719 325.988281 C 318.265625 325.886719 318.394531 325.789062 318.523438 325.6875 C 324.011719 321.394531 329.664062 317.28125 335.324219 313.148438 L 335.386719 313.105469 C 335.613281 312.917969 335.835938 312.742188 336.0625 312.566406 L 336.085938 312.542969 C 336.011719 312.609375 335.9375 312.679688 335.859375 312.742188 L 335.710938 312.867188 C 329.917969 317.089844 324.140625 321.296875 318.523438 325.6875 C 318.394531 325.789062 318.265625 325.886719 318.136719 325.988281 M 234.714844 319.449219 C 230.824219 319.03125 211.890625 316.640625 186.960938 307.421875 C 176.402344 303.515625 164.769531 298.386719 152.75 291.65625 L 156.621094 291.65625 C 193.304688 311.503906 225.8125 316.488281 233.757812 317.460938 C 233.703125 317.972656 233.859375 318.507812 234.234375 318.921875 L 234.714844 319.449219 " fill-opacity="1" fill-rule="nonzero"/><path fill="#221712" d="M 233.757812 317.460938 C 225.8125 316.488281 193.304688 311.503906 156.621094 291.65625 L 160.582031 291.65625 C 169.789062 296.460938 178.691406 300.332031 186.953125 303.445312 C 214.28125 313.726562 234.605469 315.703125 235.71875 315.800781 L 235.769531 315.808594 C 235.839844 315.8125 235.910156 315.824219 235.984375 315.835938 C 235.859375 315.8125 235.734375 315.800781 235.609375 315.800781 C 235.160156 315.800781 234.710938 315.960938 234.355469 316.289062 C 234.003906 316.605469 233.804688 317.027344 233.757812 317.460938 " fill-opacity="1" fill-rule="nonzero"/><path fill="#091619" d="M 220.566406 287.929688 L 86.589844 287.929688 C 85.492188 287.929688 84.515625 287.492188 83.800781 286.785156 C 83.085938 286.074219 82.652344 285.117188 82.652344 284.042969 L 82.652344 262.859375 L 83.375 253.125 C 85.6875 251.234375 87.78125 249.382812 89.671875 247.574219 L 89.671875 256.171875 C 89.671875 256.660156 89.867188 257.140625 90.214844 257.488281 C 90.5625 257.832031 91.042969 258.035156 91.53125 258.035156 L 215.621094 258.035156 C 216.121094 258.035156 216.589844 257.839844 216.9375 257.488281 C 217.289062 257.132812 217.484375 256.664062 217.484375 256.171875 L 217.484375 185.40625 C 218.679688 186.566406 219.914062 187.6875 221.179688 188.742188 C 219.03125 202.980469 217.523438 215.898438 217.519531 227.636719 C 217.519531 240.734375 219.414062 252.390625 224.5 262.632812 L 224.5 284.042969 C 224.5 285.117188 224.070312 286.074219 223.355469 286.785156 C 222.636719 287.492188 221.664062 287.929688 220.566406 287.929688 M 141.890625 262.808594 C 137.695312 262.8125 134.296875 266.214844 134.296875 270.414062 L 134.296875 279.1875 C 134.296875 283.386719 137.695312 286.789062 141.890625 286.789062 L 165.261719 286.789062 C 169.457031 286.785156 172.855469 283.386719 172.855469 279.1875 L 172.855469 270.414062 C 172.855469 266.214844 169.457031 262.8125 165.261719 262.808594 L 141.890625 262.808594 " fill-opacity="1" fill-rule="nonzero"/><path fill="#091619" d="M 82.652344 204.902344 L 82.652344 196.144531 C 85.273438 194.460938 87.601562 192.78125 89.671875 191.113281 L 89.671875 200.34375 C 87.8125 200.691406 86.347656 201.480469 85.324219 202.269531 C 84.285156 203.066406 83.65625 203.847656 83.371094 204.246094 C 83.128906 204.464844 82.890625 204.683594 82.652344 204.902344 " fill-opacity="1" fill-rule="nonzero"/><path fill="#091619" d="M 82.652344 150.398438 L 82.652344 29.433594 C 82.652344 28.359375 83.085938 27.40625 83.796875 26.691406 C 84.515625 25.988281 85.492188 25.550781 86.589844 25.550781 L 220.566406 25.550781 C 221.664062 25.550781 222.636719 25.988281 223.355469 26.691406 C 224.070312 27.40625 224.5 28.359375 224.5 29.433594 L 224.5 124.933594 C 223.46875 124.347656 222.425781 123.800781 221.382812 123.285156 C 220.089844 122.65625 218.789062 122.082031 217.484375 121.582031 L 217.484375 47.988281 C 217.484375 47.488281 217.289062 47.023438 216.9375 46.671875 C 216.589844 46.316406 216.121094 46.125 215.621094 46.125 L 91.53125 46.125 C 91.042969 46.125 90.5625 46.320312 90.214844 46.671875 C 89.867188 47.015625 89.671875 47.496094 89.671875 47.988281 L 89.671875 148.699219 C 87.289062 148.820312 84.933594 149.453125 82.652344 150.398438 M 136.996094 31.542969 C 134.292969 31.546875 132.101562 33.738281 132.101562 36.445312 C 132.101562 39.152344 134.292969 41.34375 136.996094 41.34375 L 170.160156 41.34375 C 172.863281 41.34375 175.050781 39.152344 175.054688 36.445312 C 175.050781 33.738281 172.859375 31.546875 170.160156 31.542969 L 136.996094 31.542969 " fill-opacity="1" fill-rule="nonzero"/><path fill="#231f20" d="M 86.585938 291.65625 C 84.484375 291.65625 82.5625 290.804688 81.179688 289.433594 C 79.796875 288.0625 78.925781 286.144531 78.929688 284.042969 L 78.929688 263.769531 C 79.453125 264.144531 79.765625 264.34375 79.789062 264.359375 C 80.089844 264.554688 80.4375 264.652344 80.792969 264.652344 L 80.792969 284.042969 C 80.792969 287.21875 83.390625 289.792969 86.589844 289.792969 L 153.246094 289.792969 C 154.375 290.429688 155.5 291.050781 156.621094 291.65625 L 86.589844 291.65625 C 86.589844 291.65625 86.589844 291.65625 86.585938 291.65625 " fill-opacity="1" fill-rule="nonzero"/><path fill="#221712" d="M 220.566406 291.65625 L 156.621094 291.65625 C 155.5 291.050781 154.375 290.429688 153.246094 289.792969 L 220.566406 289.792969 C 223.765625 289.792969 226.363281 287.21875 226.363281 284.042969 L 226.363281 266.070312 C 226.945312 267.066406 227.570312 268.050781 228.222656 269.015625 L 228.222656 284.042969 C 228.222656 286.144531 227.359375 288.0625 225.972656 289.433594 C 224.59375 290.804688 222.667969 291.65625 220.566406 291.65625 " fill-opacity="1" fill-rule="nonzero"/><path fill="#030909" d="M 220.566406 289.792969 L 86.589844 289.792969 C 83.390625 289.792969 80.792969 287.21875 80.792969 284.042969 L 80.792969 264.652344 C 81.074219 264.652344 81.363281 264.585938 81.625 264.453125 C 82.207031 264.164062 82.597656 263.578125 82.644531 262.925781 L 82.652344 262.859375 L 82.652344 284.042969 C 82.652344 285.117188 83.085938 286.074219 83.800781 286.785156 C 84.515625 287.492188 85.492188 287.929688 86.589844 287.929688 L 220.566406 287.929688 C 221.664062 287.929688 222.636719 287.492188 223.355469 286.785156 C 224.070312 286.074219 224.5 285.117188 224.5 284.042969 L 224.5 262.632812 C 224.804688 263.25 225.125 263.863281 225.457031 264.464844 C 225.746094 265.003906 226.050781 265.539062 226.363281 266.070312 L 226.363281 284.042969 C 226.363281 287.21875 223.765625 289.792969 220.566406 289.792969 " fill-opacity="1" fill-rule="nonzero"/><path fill="#231f20" d="M 78.929688 208.523438 L 78.929688 203.578125 C 79.910156 203.777344 80.492188 203.863281 80.527344 203.871094 C 80.613281 203.878906 80.699219 203.886719 80.789062 203.886719 C 80.789062 203.886719 80.792969 203.886719 80.792969 203.886719 L 80.792969 206.664062 C 80.148438 207.292969 79.527344 207.910156 78.929688 208.523438 " fill-opacity="1" fill-rule="nonzero"/><path fill="#030909" d="M 80.792969 206.664062 L 80.792969 203.886719 C 81.234375 203.886719 81.667969 203.726562 82.007812 203.433594 C 82.417969 203.078125 82.652344 202.5625 82.652344 202.023438 L 82.652344 204.902344 C 82.007812 205.496094 81.390625 206.082031 80.792969 206.664062 " fill-opacity="1" fill-rule="nonzero"/><g clip-path="url(#461e9b5dbc)"><path fill="#231f20" d="M 78.929688 152.222656 L 78.929688 150.910156 C 79.535156 151.050781 80.121094 151.179688 80.695312 151.285156 C 80.476562 151.394531 80.253906 151.507812 80.035156 151.621094 C 79.664062 151.816406 79.292969 152.015625 78.929688 152.222656 M 80.792969 151.238281 L 80.792969 114.40625 C 80.160156 114.085938 79.542969 113.792969 78.929688 113.523438 L 78.929688 108.449219 C 79.597656 108.820312 80.222656 109.160156 80.792969 109.46875 L 80.792969 70.71875 C 80.164062 70.359375 79.542969 70.011719 78.929688 69.667969 L 78.929688 29.433594 C 78.925781 27.332031 79.796875 25.410156 81.179688 24.042969 C 82.5625 22.671875 84.484375 21.824219 86.589844 21.824219 L 220.566406 21.824219 C 222.667969 21.824219 224.59375 22.671875 225.972656 24.042969 C 227.359375 25.414062 228.222656 27.332031 228.222656 29.433594 L 228.222656 127.195312 C 227.605469 126.796875 226.988281 126.402344 226.363281 126.027344 L 226.363281 29.433594 C 226.363281 26.261719 223.765625 23.6875 220.566406 23.6875 L 86.589844 23.6875 C 83.390625 23.6875 80.792969 26.261719 80.792969 29.433594 L 80.792969 151.238281 " fill-opacity="1" fill-rule="nonzero"/></g><path fill="#221712" d="M 80.695312 151.285156 C 80.121094 151.179688 79.535156 151.050781 78.929688 150.910156 L 78.929688 113.523438 C 79.542969 113.792969 80.160156 114.085938 80.792969 114.40625 L 80.792969 151.238281 C 80.757812 151.257812 80.726562 151.269531 80.695312 151.285156 " fill-opacity="1" fill-rule="nonzero"/><path fill="#221712" d="M 80.792969 109.46875 C 80.222656 109.160156 79.597656 108.820312 78.929688 108.449219 L 78.929688 69.667969 C 79.542969 70.011719 80.164062 70.359375 80.792969 70.71875 L 80.792969 109.46875 " fill-opacity="1" fill-rule="nonzero"/><path fill="#030909" d="M 80.792969 151.238281 L 80.792969 29.433594 C 80.792969 26.261719 83.390625 23.6875 86.589844 23.6875 L 220.566406 23.6875 C 223.765625 23.6875 226.363281 26.261719 226.363281 29.433594 L 226.363281 126.027344 C 225.742188 125.648438 225.121094 125.285156 224.5 124.933594 L 224.5 29.433594 C 224.5 28.359375 224.070312 27.40625 223.355469 26.691406 C 222.636719 25.988281 221.664062 25.550781 220.566406 25.550781 L 86.589844 25.550781 C 85.492188 25.550781 84.515625 25.988281 83.796875 26.691406 C 83.085938 27.40625 82.652344 28.359375 82.652344 29.433594 L 82.652344 150.398438 C 82.023438 150.65625 81.40625 150.941406 80.792969 151.238281 " fill-opacity="1" fill-rule="nonzero"/><path fill="#010604" d="M 165.261719 283.0625 L 141.890625 283.0625 C 140.816406 283.058594 139.859375 282.628906 139.15625 281.925781 C 138.453125 281.222656 138.023438 280.261719 138.019531 279.1875 L 138.019531 270.414062 C 138.023438 269.335938 138.453125 268.378906 139.15625 267.671875 C 139.859375 266.96875 140.816406 266.539062 141.890625 266.535156 L 165.261719 266.535156 C 166.339844 266.539062 167.292969 266.96875 168.003906 267.671875 C 168.703125 268.382812 169.132812 269.339844 169.132812 270.414062 L 169.132812 279.1875 C 169.132812 280.261719 168.703125 281.222656 168.003906 281.925781 C 167.292969 282.628906 166.339844 283.058594 165.261719 283.0625 " fill-opacity="1" fill-rule="nonzero"/><path fill="#030909" d="M 165.261719 286.789062 L 141.890625 286.789062 C 137.695312 286.789062 134.296875 283.386719 134.296875 279.1875 L 134.296875 270.414062 C 134.296875 266.214844 137.695312 262.8125 141.890625 262.808594 L 165.261719 262.808594 C 169.457031 262.8125 172.855469 266.214844 172.855469 270.414062 L 172.855469 279.1875 C 172.855469 283.386719 169.457031 286.785156 165.261719 286.789062 M 136.160156 279.1875 C 136.160156 282.355469 138.726562 284.925781 141.890625 284.925781 L 165.261719 284.925781 C 168.429688 284.925781 170.996094 282.355469 170.996094 279.1875 L 170.996094 270.414062 C 170.996094 267.242188 168.429688 264.671875 165.261719 264.671875 L 141.890625 264.671875 C 138.726562 264.671875 136.160156 267.242188 136.160156 270.414062 L 136.160156 279.1875 " fill-opacity="1" fill-rule="nonzero"/><path fill="#000403" d="M 165.261719 284.925781 L 141.890625 284.925781 C 138.726562 284.925781 136.160156 282.355469 136.160156 279.1875 L 136.160156 270.414062 C 136.160156 267.242188 138.726562 264.671875 141.890625 264.671875 L 165.261719 264.671875 C 168.429688 264.671875 170.996094 267.242188 170.996094 270.414062 L 170.996094 279.1875 C 170.996094 282.355469 168.429688 284.925781 165.261719 284.925781 M 141.890625 266.535156 C 140.816406 266.539062 139.859375 266.96875 139.15625 267.671875 C 138.453125 268.378906 138.023438 269.335938 138.019531 270.414062 L 138.019531 279.1875 C 138.023438 280.261719 138.453125 281.222656 139.15625 281.925781 C 139.859375 282.628906 140.816406 283.058594 141.890625 283.0625 L 165.261719 283.0625 C 166.339844 283.058594 167.292969 282.628906 168.003906 281.925781 C 168.703125 281.222656 169.132812 280.261719 169.132812 279.1875 L 169.132812 270.414062 C 169.132812 269.339844 168.703125 268.382812 168.003906 267.671875 C 167.292969 266.96875 166.339844 266.539062 165.261719 266.535156 L 141.890625 266.535156 " fill-opacity="1" fill-rule="nonzero"/><path fill="#010604" d="M 170.160156 37.617188 L 136.996094 37.617188 C 136.351562 37.617188 135.824219 37.089844 135.824219 36.445312 C 135.824219 35.796875 136.351562 35.273438 136.996094 35.269531 L 170.160156 35.269531 C 170.804688 35.273438 171.328125 35.796875 171.332031 36.445312 C 171.328125 37.089844 170.800781 37.617188 170.160156 37.617188 " fill-opacity="1" fill-rule="nonzero"/><path fill="#030909" d="M 170.160156 41.34375 L 136.996094 41.34375 C 134.292969 41.34375 132.101562 39.152344 132.101562 36.445312 C 132.101562 33.738281 134.292969 31.546875 136.996094 31.542969 L 170.160156 31.542969 C 172.859375 31.546875 175.050781 33.738281 175.054688 36.445312 C 175.050781 39.152344 172.863281 41.34375 170.160156 41.34375 M 133.964844 36.445312 C 133.964844 38.121094 135.324219 39.480469 136.996094 39.480469 L 170.160156 39.480469 C 171.835938 39.480469 173.195312 38.121094 173.195312 36.445312 C 173.195312 34.765625 171.835938 33.40625 170.160156 33.40625 L 136.996094 33.40625 C 135.324219 33.40625 133.964844 34.765625 133.964844 36.445312 " fill-opacity="1" fill-rule="nonzero"/><path fill="#000403" d="M 170.160156 39.480469 L 136.996094 39.480469 C 135.324219 39.480469 133.964844 38.121094 133.964844 36.445312 C 133.964844 34.765625 135.324219 33.40625 136.996094 33.40625 L 170.160156 33.40625 C 171.835938 33.40625 173.195312 34.765625 173.195312 36.445312 C 173.195312 38.121094 171.835938 39.480469 170.160156 39.480469 M 136.996094 35.269531 C 136.351562 35.273438 135.824219 35.796875 135.824219 36.445312 C 135.824219 37.089844 136.351562 37.617188 136.996094 37.617188 L 170.160156 37.617188 C 170.800781 37.617188 171.328125 37.089844 171.332031 36.445312 C 171.328125 35.796875 170.804688 35.273438 170.160156 35.269531 L 136.996094 35.269531 " fill-opacity="1" fill-rule="nonzero"/><path fill="#7cbbbd" d="M 213.761719 254.304688 L 93.394531 254.304688 L 93.394531 243.789062 C 96.644531 240.257812 99.117188 236.902344 100.972656 233.734375 C 104.476562 227.738281 105.730469 222.386719 105.726562 217.898438 C 105.730469 213.105469 104.3125 209.339844 102.890625 206.789062 C 101.472656 204.230469 100.046875 202.863281 99.949219 202.765625 C 99.835938 202.65625 99.710938 202.566406 99.574219 202.488281 C 97.316406 201.222656 95.246094 200.535156 93.394531 200.28125 L 93.394531 187.863281 C 96.269531 185.128906 98.476562 182.449219 100.148438 179.847656 C 103.59375 174.492188 104.710938 169.5 104.707031 165.417969 C 104.707031 162.132812 103.996094 159.441406 103.277344 157.566406 C 102.558594 155.691406 101.832031 154.613281 101.769531 154.519531 L 101.699219 154.425781 C 100.140625 152.425781 98.355469 150.964844 96.4375 150.027344 C 95.445312 149.542969 94.425781 149.199219 93.394531 148.980469 L 93.394531 49.851562 L 213.761719 49.851562 L 213.761719 120.355469 C 211.28125 119.683594 208.800781 119.304688 206.34375 119.304688 C 206.339844 119.304688 206.339844 119.304688 206.335938 119.304688 C 204.039062 119.304688 201.765625 119.636719 199.5625 120.375 C 199.367188 120.4375 199.183594 120.535156 199.023438 120.660156 L 198.953125 120.714844 C 198.183594 121.296875 191.132812 126.5625 180.777344 132.089844 C 180.539062 132.21875 180.300781 132.347656 180.054688 132.472656 L 135.714844 97.085938 C 135.371094 96.8125 134.964844 96.675781 134.554688 96.675781 C 134.007812 96.675781 133.464844 96.917969 133.097656 97.378906 L 99.695312 139.351562 C 99.0625 140.148438 99.1875 141.304688 99.96875 141.953125 C 99.96875 141.953125 99.972656 141.953125 99.972656 141.953125 C 99.972656 141.957031 99.976562 141.957031 99.976562 141.960938 C 99.976562 141.960938 99.980469 141.960938 99.980469 141.960938 C 99.984375 141.964844 99.984375 141.964844 99.984375 141.964844 C 99.988281 141.964844 99.992188 141.964844 99.992188 141.96875 L 163.050781 192.304688 C 163.355469 192.546875 163.710938 192.679688 164.078125 192.707031 C 164.125 192.710938 164.167969 192.710938 164.214844 192.710938 C 164.285156 192.710938 164.355469 192.710938 164.421875 192.703125 C 164.492188 192.691406 164.5625 192.679688 164.625 192.664062 C 164.84375 192.613281 165.054688 192.527344 165.246094 192.394531 C 165.363281 192.320312 165.464844 192.230469 165.5625 192.132812 C 165.597656 192.09375 165.632812 192.054688 165.667969 192.011719 L 177.714844 176.871094 C 178.203125 176.785156 178.695312 176.6875 179.199219 176.59375 C 183.429688 175.777344 188.089844 174.667969 192.5625 173.171875 C 196.390625 171.890625 200.082031 170.332031 203.269531 168.390625 C 204.273438 169.839844 205.960938 172.195312 208.125 174.929688 C 209.757812 177.003906 211.664062 179.292969 213.761719 181.578125 L 213.761719 254.304688 " fill-opacity="1" fill-rule="nonzero"/><path fill="#030909" d="M 215.621094 258.035156 L 91.53125 258.035156 C 91.042969 258.035156 90.5625 257.832031 90.214844 257.488281 C 89.867188 257.140625 89.671875 256.660156 89.671875 256.171875 L 89.671875 247.574219 C 90.316406 246.957031 90.933594 246.347656 91.53125 245.742188 L 91.53125 256.171875 L 215.621094 256.171875 L 215.621094 183.550781 C 216.230469 184.175781 216.851562 184.796875 217.484375 185.40625 L 217.484375 256.171875 C 217.484375 256.664062 217.289062 257.132812 216.9375 257.488281 C 216.589844 257.839844 216.121094 258.035156 215.621094 258.035156 M 215.621094 256.171875 L 215.621094 254.304688 L 215.621094 256.171875 " fill-opacity="1" fill-rule="nonzero"/><path fill="#101417" d="M 215.621094 256.171875 L 91.53125 256.171875 L 91.53125 245.742188 C 92.179688 245.085938 92.796875 244.433594 93.394531 243.789062 L 93.394531 254.304688 L 213.761719 254.304688 L 213.761719 181.578125 C 214.367188 182.238281 214.988281 182.894531 215.621094 183.550781 L 215.621094 256.171875 " fill-opacity="1" fill-rule="nonzero"/><path fill="#030909" d="M 89.671875 200.34375 L 89.671875 191.113281 C 90.316406 190.59375 90.9375 190.074219 91.53125 189.554688 L 91.53125 200.160156 C 90.875 200.167969 90.253906 200.234375 89.671875 200.34375 " fill-opacity="1" fill-rule="nonzero"/><path fill="#101417" d="M 93.394531 200.28125 C 92.804688 200.195312 92.242188 200.160156 91.699219 200.160156 C 91.695312 200.160156 91.695312 200.160156 91.691406 200.160156 C 91.683594 200.160156 91.679688 200.160156 91.671875 200.160156 C 91.625 200.160156 91.578125 200.160156 91.53125 200.160156 L 91.53125 189.554688 C 92.179688 188.988281 92.800781 188.425781 93.394531 187.863281 L 93.394531 200.28125 " fill-opacity="1" fill-rule="nonzero"/><path fill="#030909" d="M 91.53125 148.71875 C 91.175781 148.695312 90.820312 148.679688 90.46875 148.679688 C 90.460938 148.679688 90.457031 148.679688 90.453125 148.679688 C 90.191406 148.679688 89.929688 148.6875 89.671875 148.699219 L 89.671875 47.988281 C 89.671875 47.496094 89.867188 47.015625 90.214844 46.671875 C 90.5625 46.320312 91.042969 46.125 91.53125 46.125 L 215.621094 46.125 C 216.121094 46.125 216.589844 46.316406 216.9375 46.671875 C 217.289062 47.023438 217.484375 47.488281 217.484375 47.988281 L 217.484375 121.582031 C 216.863281 121.34375 216.242188 121.121094 215.621094 120.917969 L 215.621094 47.988281 L 91.53125 47.988281 L 91.53125 148.71875 " fill-opacity="1" fill-rule="nonzero"/><path fill="#101417" d="M 93.394531 148.980469 C 92.777344 148.851562 92.152344 148.761719 91.53125 148.71875 L 91.53125 47.988281 L 215.621094 47.988281 L 215.621094 120.917969 C 215.003906 120.710938 214.382812 120.523438 213.761719 120.355469 L 213.761719 49.851562 L 93.394531 49.851562 L 93.394531 148.980469 " fill-opacity="1" fill-rule="nonzero"/><path fill="#f68712" d="M 165 186.871094 L 162.625 178.660156 C 162.984375 178.679688 163.351562 178.699219 163.71875 178.714844 L 163.929688 178.714844 C 163.964844 178.710938 167.316406 178.46875 172.25 177.761719 L 165 186.871094 " fill-opacity="1" fill-rule="nonzero"/><path fill="#f68712" d="M 136.175781 140.644531 L 104.851562 138.859375 L 133.351562 103.046875 L 136.175781 140.644531 " fill-opacity="1" fill-rule="nonzero"/><path fill="#101417" d="M 164.214844 192.710938 C 164.167969 192.710938 164.125 192.710938 164.078125 192.707031 C 164.125 192.710938 164.167969 192.710938 164.210938 192.710938 C 164.355469 192.710938 164.492188 192.695312 164.625 192.664062 C 164.5625 192.679688 164.492188 192.691406 164.421875 192.703125 C 164.355469 192.710938 164.285156 192.710938 164.214844 192.710938 M 165.5625 192.132812 C 166.007812 191.660156 166.1875 190.976562 166 190.328125 L 164.210938 190.847656 L 166 190.328125 L 165.632812 189.0625 L 174.957031 177.34375 C 175.847656 177.203125 176.765625 177.046875 177.714844 176.871094 L 165.667969 192.011719 C 165.632812 192.054688 165.597656 192.09375 165.5625 192.132812 " fill-opacity="1" fill-rule="nonzero"/><path fill="#1f0d00" d="M 165.632812 189.0625 L 165 186.871094 L 172.25 177.761719 C 173.105469 177.640625 174.011719 177.5 174.957031 177.34375 L 165.632812 189.0625 " fill-opacity="1" fill-rule="nonzero"/><path fill="#101417" d="M 99.984375 141.964844 C 99.984375 141.964844 99.984375 141.964844 99.980469 141.960938 C 99.984375 141.964844 99.984375 141.964844 99.984375 141.964844 M 99.976562 141.960938 C 99.976562 141.957031 99.972656 141.957031 99.972656 141.953125 C 99.972656 141.957031 99.976562 141.957031 99.976562 141.960938 " fill-opacity="1" fill-rule="nonzero"/><path fill="#101417" d="M 99.96875 141.953125 C 99.1875 141.304688 99.0625 140.148438 99.695312 139.351562 L 133.097656 97.378906 C 133.464844 96.917969 134.007812 96.675781 134.554688 96.675781 C 134.964844 96.675781 135.371094 96.8125 135.714844 97.085938 L 180.054688 132.472656 L 136.058594 97.359375 C 135.71875 97.089844 135.3125 96.953125 134.898438 96.953125 C 134.601562 96.953125 134.300781 97.023438 134.03125 97.167969 C 133.375 97.515625 132.988281 98.21875 133.042969 98.957031 L 133.144531 100.3125 L 102.574219 138.726562 L 101.257812 138.65625 C 101.222656 138.652344 101.1875 138.652344 101.152344 138.652344 C 100.386719 138.652344 99.6875 139.125 99.414062 139.847656 C 99.128906 140.59375 99.355469 141.441406 99.96875 141.953125 " fill-opacity="1" fill-rule="nonzero"/><path fill="#1f0d00" d="M 104.851562 138.859375 L 102.574219 138.726562 L 133.144531 100.3125 L 133.351562 103.046875 L 104.851562 138.859375 " fill-opacity="1" fill-rule="nonzero"/><path fill="#f9a72b" d="M 160.800781 185.738281 L 149.320312 176.582031 C 152.070312 177.347656 155.164062 177.949219 158.65625 178.332031 L 160.800781 185.738281 M 129.386719 160.667969 L 106.886719 142.707031 L 136.453125 144.394531 L 136.5625 145.8125 C 135.839844 146.019531 135.101562 146.285156 134.367188 146.617188 C 132.828125 147.335938 131.300781 148.40625 130.160156 150 C 129.011719 151.585938 128.316406 153.671875 128.324219 156.152344 L 128.324219 156.238281 C 128.332031 156.371094 128.40625 157.738281 129.066406 159.761719 C 129.164062 160.050781 129.269531 160.355469 129.386719 160.667969 " fill-opacity="1" fill-rule="nonzero"/><path fill="#101417" d="M 164.210938 192.710938 C 164.167969 192.710938 164.125 192.710938 164.078125 192.707031 C 163.710938 192.679688 163.355469 192.546875 163.050781 192.304688 L 99.992188 141.96875 C 99.992188 141.964844 99.988281 141.964844 99.984375 141.964844 C 99.984375 141.964844 99.984375 141.964844 99.980469 141.960938 C 99.980469 141.960938 99.976562 141.960938 99.976562 141.960938 C 99.976562 141.957031 99.972656 141.957031 99.972656 141.953125 C 99.972656 141.953125 99.96875 141.953125 99.96875 141.953125 C 99.355469 141.441406 99.128906 140.59375 99.414062 139.847656 C 99.6875 139.125 100.386719 138.652344 101.152344 138.652344 C 101.1875 138.652344 101.222656 138.652344 101.257812 138.65625 L 102.574219 138.726562 L 101.152344 140.515625 L 131.449219 164.699219 C 132.839844 166.828125 134.839844 169.101562 137.703125 171.183594 C 139.46875 172.464844 141.554688 173.667969 144.007812 174.71875 L 164.210938 190.847656 L 166 190.328125 C 166.1875 190.976562 166.007812 191.660156 165.5625 192.132812 C 165.464844 192.230469 165.363281 192.320312 165.246094 192.394531 C 165.054688 192.527344 164.84375 192.613281 164.625 192.664062 C 164.492188 192.695312 164.355469 192.710938 164.210938 192.710938 M 164.210938 190.847656 L 165.632812 189.0625 L 166 190.328125 L 164.210938 190.847656 " fill-opacity="1" fill-rule="nonzero"/><path fill="#1f0d00" d="M 136.316406 142.519531 L 101.152344 140.515625 L 102.574219 138.726562 L 104.851562 138.859375 L 136.175781 140.644531 L 136.316406 142.519531 " fill-opacity="1" fill-rule="nonzero"/><path fill="#1f0d00" d="M 164.210938 190.847656 L 160.648438 178.523438 C 161.292969 178.574219 161.953125 178.621094 162.625 178.660156 L 165 186.871094 L 165.632812 189.0625 L 164.210938 190.847656 L 165.371094 189.390625 L 164.210938 190.847656 " fill-opacity="1" fill-rule="nonzero"/><path fill="#1f1103" d="M 164.210938 190.847656 L 144.007812 174.71875 C 145.613281 175.410156 147.378906 176.035156 149.320312 176.582031 L 160.800781 185.738281 L 158.65625 178.332031 C 159.304688 178.402344 159.96875 178.464844 160.648438 178.523438 L 164.210938 190.847656 M 131.449219 164.699219 L 101.152344 140.515625 L 136.316406 142.519531 L 136.453125 144.394531 L 106.886719 142.707031 L 129.386719 160.667969 C 129.851562 161.875 130.511719 163.253906 131.449219 164.699219 " fill-opacity="1" fill-rule="nonzero"/><path fill="#f9a72b" d="M 140.246094 145.136719 L 137.074219 102.933594 L 176.410156 134.332031 C 166.773438 139.082031 154.992188 143.582031 143.015625 145.0625 C 142.851562 145.054688 142.589844 145.042969 142.253906 145.042969 C 141.738281 145.046875 141.046875 145.0625 140.246094 145.136719 " fill-opacity="1" fill-rule="nonzero"/><path fill="#101417" d="M 178.246094 133.414062 L 134.554688 98.539062 L 133.144531 100.3125 L 133.042969 98.957031 C 132.988281 98.21875 133.375 97.515625 134.03125 97.167969 C 134.300781 97.023438 134.601562 96.953125 134.898438 96.953125 C 135.3125 96.953125 135.71875 97.089844 136.058594 97.359375 L 180.054688 132.472656 C 179.460938 132.785156 178.859375 133.097656 178.246094 133.414062 " fill-opacity="1" fill-rule="nonzero"/><path fill="#1f0d00" d="M 138.1875 142.628906 L 136.316406 142.519531 L 136.175781 140.644531 L 133.351562 103.046875 L 133.144531 100.3125 L 134.554688 98.539062 L 178.246094 133.414062 L 134.898438 98.816406 L 138.1875 142.628906 M 134.898438 98.816406 L 133.738281 100.273438 L 134.898438 98.816406 " fill-opacity="1" fill-rule="nonzero"/><path fill="#1f1103" d="M 136.5625 145.8125 L 136.453125 144.394531 L 136.316406 142.519531 L 138.1875 142.628906 L 138.394531 145.382812 C 137.804688 145.492188 137.191406 145.628906 136.5625 145.8125 " fill-opacity="1" fill-rule="nonzero"/><path fill="#1f1103" d="M 138.394531 145.382812 L 138.1875 142.628906 L 134.898438 98.816406 L 178.246094 133.414062 C 177.640625 133.722656 177.03125 134.027344 176.410156 134.332031 L 137.074219 102.933594 L 140.246094 145.136719 C 139.679688 145.1875 139.050781 145.265625 138.394531 145.382812 " fill-opacity="1" fill-rule="nonzero"/><path fill="#e5b499" d="M 237.578125 317.0625 L 236.984375 316.40625 C 236.898438 316.3125 236.804688 316.230469 236.707031 316.160156 L 254.761719 291.320312 C 254.847656 291.363281 254.933594 291.40625 255.019531 291.453125 C 255.242188 291.566406 255.480469 291.632812 255.714844 291.652344 C 255.101562 296.9375 252.097656 312.011719 237.578125 317.0625 " fill-opacity="1" fill-rule="nonzero"/><path fill="#f0c2a8" d="M 274.6875 357.757812 L 237.578125 317.0625 C 252.097656 312.011719 255.101562 296.9375 255.714844 291.652344 C 255.765625 291.65625 255.816406 291.660156 255.867188 291.660156 C 256.542969 291.660156 257.195312 291.289062 257.527344 290.644531 C 257.996094 289.730469 257.636719 288.605469 256.71875 288.136719 C 242.914062 281.027344 234.136719 272.617188 228.722656 262.683594 C 223.3125 252.746094 221.246094 241.160156 221.242188 227.636719 C 221.242188 215.945312 222.796875 202.835938 225.015625 188.25 C 225.117188 187.589844 224.855469 186.933594 224.339844 186.515625 C 219.320312 182.496094 214.535156 177.046875 211.042969 172.621094 C 209.292969 170.40625 207.863281 168.449219 206.875 167.046875 C 206.382812 166.34375 205.996094 165.785156 205.734375 165.402344 C 205.609375 165.207031 205.507812 165.058594 205.445312 164.960938 L 205.371094 164.851562 L 205.347656 164.820312 C 205.074219 164.394531 204.644531 164.105469 204.148438 164.007812 C 204.027344 163.980469 203.90625 163.972656 203.785156 163.972656 C 203.414062 163.972656 203.046875 164.082031 202.734375 164.300781 C 199.652344 166.433594 195.644531 168.214844 191.386719 169.636719 C 184.992188 171.773438 178.035156 173.125 172.695312 173.925781 C 170.023438 174.332031 167.757812 174.597656 166.164062 174.765625 C 165.367188 174.847656 164.738281 174.90625 164.3125 174.941406 C 164.097656 174.960938 163.9375 174.972656 163.828125 174.980469 C 163.804688 174.980469 163.785156 174.984375 163.773438 174.984375 C 155.835938 174.625 149.90625 173.195312 145.484375 171.300781 C 138.832031 168.4375 135.550781 164.5625 133.832031 161.429688 C 132.980469 159.863281 132.527344 158.472656 132.292969 157.5 C 132.175781 157.015625 132.109375 156.628906 132.078125 156.378906 C 132.058594 156.253906 132.050781 156.164062 132.046875 156.109375 L 132.046875 156.085938 C 132.0625 154.304688 132.515625 153.113281 133.183594 152.171875 C 133.691406 151.460938 134.351562 150.890625 135.128906 150.425781 C 136.289062 149.730469 137.703125 149.296875 139.019531 149.058594 C 140.328125 148.820312 141.527344 148.769531 142.246094 148.769531 C 142.246094 148.769531 142.25 148.769531 142.253906 148.769531 C 142.488281 148.769531 142.664062 148.777344 142.785156 148.78125 L 142.917969 148.789062 L 142.945312 148.789062 C 142.980469 148.792969 143.027344 148.792969 143.070312 148.792969 C 143.144531 148.792969 143.230469 148.789062 143.300781 148.78125 C 158.390625 146.9375 172.828125 140.644531 183.546875 134.832031 C 193.085938 129.652344 199.660156 124.835938 201.023438 123.816406 C 202.730469 123.28125 204.503906 123.03125 206.34375 123.03125 C 206.34375 123.03125 206.351562 123.03125 206.359375 123.03125 C 210.554688 123.03125 215.121094 124.367188 219.75 126.636719 C 226.707031 130.035156 233.777344 135.5 240.011719 141.214844 C 246.25 146.925781 251.667969 152.871094 255.417969 157.238281 C 266.214844 169.789062 274.324219 186.378906 279.6875 199.816406 C 282.371094 206.53125 284.371094 212.457031 285.703125 216.695312 C 286.367188 218.820312 286.867188 220.515625 287.191406 221.679688 C 287.355469 222.261719 287.480469 222.714844 287.5625 223.015625 C 287.601562 223.164062 287.632812 223.28125 287.652344 223.355469 L 287.679688 223.464844 C 287.808594 223.957031 288.121094 224.371094 288.5625 224.621094 C 288.90625 224.820312 295.777344 229.214844 313.847656 250.617188 L 313.890625 250.667969 L 352.738281 293.515625 C 346.171875 298.65625 339.878906 304.105469 333.707031 309.675781 C 333.503906 309.839844 333.300781 310 333.101562 310.160156 C 327.449219 314.28125 321.777344 318.410156 316.230469 322.75 C 311.433594 326.507812 306.972656 330.433594 302.765625 334.589844 C 298.164062 338.355469 293.578125 342.132812 289.019531 345.953125 C 283.996094 349.546875 279.078125 353.367188 274.6875 357.757812 " fill-opacity="1" fill-rule="nonzero"/><g clip-path="url(#a390dd2b8e)"><path fill="#231f20" d="M 274.644531 362.335938 C 274.640625 362.335938 274.632812 362.335938 274.632812 362.335938 C 274.109375 362.332031 273.621094 362.113281 273.273438 361.726562 L 234.714844 319.449219 L 234.234375 318.921875 C 233.859375 318.507812 233.703125 317.972656 233.757812 317.460938 C 234.96875 317.609375 235.609375 317.664062 235.609375 317.664062 C 236.289062 317.484375 236.945312 317.28125 237.578125 317.0625 C 236.945312 317.28125 236.289062 317.484375 235.609375 317.664062 L 274.644531 360.472656 L 274.742188 360.371094 C 275.484375 359.589844 276.25 358.835938 277.023438 358.089844 C 277.246094 357.875 277.464844 357.664062 277.6875 357.449219 C 278.492188 356.703125 279.296875 355.957031 280.128906 355.234375 L 280.382812 355.019531 C 281.160156 354.351562 281.953125 353.695312 282.746094 353.046875 C 283 352.839844 283.257812 352.632812 283.515625 352.429688 C 284.355469 351.757812 285.195312 351.09375 286.054688 350.449219 C 286.257812 350.292969 286.464844 350.136719 286.667969 349.984375 C 287.351562 349.472656 288.042969 348.964844 288.734375 348.460938 C 289.109375 348.1875 289.484375 347.914062 289.863281 347.644531 C 292.804688 345.535156 295.796875 343.484375 298.757812 341.445312 C 300.5 339.535156 302.289062 337.683594 304.121094 335.875 C 306.160156 333.855469 308.265625 331.894531 310.441406 329.980469 L 310.566406 329.871094 C 311.53125 329.023438 312.507812 328.1875 313.5 327.363281 C 313.722656 327.175781 313.945312 326.992188 314.167969 326.804688 C 315.222656 325.933594 316.289062 325.074219 317.378906 324.222656 C 318.78125 323.121094 320.199219 322.035156 321.621094 320.957031 C 321.871094 320.765625 322.121094 320.582031 322.371094 320.390625 C 323.542969 319.507812 324.71875 318.625 325.898438 317.75 C 326.195312 317.53125 326.496094 317.3125 326.792969 317.09375 C 326.867188 317.035156 326.945312 316.980469 327.023438 316.921875 C 327.023438 316.921875 327.023438 316.921875 327.023438 316.917969 C 327.089844 316.871094 327.15625 316.824219 327.222656 316.777344 C 327.242188 316.757812 327.269531 316.742188 327.289062 316.722656 C 327.332031 316.691406 327.371094 316.664062 327.414062 316.636719 C 329.808594 314.867188 332.210938 313.113281 334.613281 311.359375 C 334.710938 311.277344 334.800781 311.195312 334.894531 311.113281 L 334.90625 311.101562 C 336.449219 309.707031 338.003906 308.324219 339.570312 306.949219 C 339.835938 306.710938 340.101562 306.480469 340.367188 306.246094 C 341.726562 305.054688 343.09375 303.871094 344.46875 302.703125 C 344.742188 302.472656 345.011719 302.234375 345.285156 302.003906 C 348.621094 299.179688 352.007812 296.417969 355.46875 293.753906 L 315.265625 249.417969 C 296.183594 226.820312 289.480469 223 289.480469 223 C 289.480469 223 278.855469 181.648438 256.828125 156.019531 C 250.277344 148.40625 238.707031 136 226.363281 128.226562 C 222.8125 125.992188 219.199219 124.128906 215.621094 122.886719 C 212.476562 121.789062 209.363281 121.167969 206.34375 121.167969 C 209.363281 121.167969 212.476562 121.789062 215.621094 122.886719 C 219.199219 124.128906 222.8125 125.992188 226.363281 128.226562 L 226.363281 126.027344 C 226.988281 126.402344 227.605469 126.796875 228.222656 127.195312 C 230.828125 128.882812 233.382812 130.757812 235.855469 132.734375 C 245.066406 140.101562 253.144531 148.890625 258.238281 154.804688 C 269.46875 167.882812 277.683594 184.777344 283.144531 198.425781 C 287.777344 210.03125 290.40625 219.289062 291.101562 221.835938 C 293.257812 223.351562 300.617188 229.195312 316.671875 248.191406 L 356.84375 292.5 C 357.191406 292.886719 357.367188 293.402344 357.320312 293.921875 C 357.277344 294.4375 357.011719 294.914062 356.601562 295.230469 C 349.554688 300.660156 342.796875 306.488281 336.152344 312.484375 L 336.085938 312.542969 L 336.0625 312.566406 C 335.835938 312.742188 335.613281 312.917969 335.386719 313.105469 L 335.324219 313.148438 C 329.664062 317.28125 324.011719 321.394531 318.523438 325.6875 C 318.394531 325.789062 318.265625 325.886719 318.136719 325.988281 C 313.574219 329.582031 309.332031 333.335938 305.324219 337.304688 L 305.191406 337.417969 C 300.558594 341.210938 295.9375 345.015625 291.355469 348.855469 L 291.296875 348.902344 L 291.242188 348.945312 C 285.742188 352.875 280.480469 357.007812 275.996094 361.753906 C 275.644531 362.128906 275.15625 362.335938 274.644531 362.335938 " fill-opacity="1" fill-rule="nonzero"/></g><path fill="#221712" d="M 327.023438 316.921875 C 327.023438 316.921875 327.023438 316.921875 327.023438 316.917969 C 327.023438 316.921875 327.023438 316.921875 327.023438 316.921875 M 327.222656 316.777344 C 327.242188 316.757812 327.269531 316.742188 327.289062 316.722656 C 327.269531 316.742188 327.242188 316.757812 327.222656 316.777344 M 327.414062 316.636719 C 329.679688 314.960938 331.953125 313.300781 334.230469 311.640625 C 334.449219 311.464844 334.671875 311.289062 334.894531 311.113281 C 334.800781 311.195312 334.710938 311.277344 334.613281 311.359375 C 332.210938 313.113281 329.808594 314.867188 327.414062 316.636719 " fill-opacity="1" fill-rule="nonzero"/><path fill="#221712" d="M 344.46875 302.703125 C 344.742188 302.472656 345.011719 302.234375 345.285156 302.003906 C 345.011719 302.234375 344.742188 302.472656 344.46875 302.703125 " fill-opacity="1" fill-rule="nonzero"/><path fill="#221712" d="M 235.609375 317.664062 C 235.609375 317.664062 234.96875 317.609375 233.757812 317.460938 C 233.804688 317.027344 234.003906 316.605469 234.355469 316.289062 C 234.710938 315.960938 235.160156 315.800781 235.609375 315.800781 C 235.734375 315.800781 235.859375 315.8125 235.984375 315.835938 C 236.242188 315.890625 236.484375 315.996094 236.707031 316.160156 C 236.804688 316.230469 236.898438 316.3125 236.984375 316.40625 L 237.578125 317.0625 C 236.945312 317.28125 236.289062 317.484375 235.609375 317.664062 " fill-opacity="1" fill-rule="nonzero"/><path fill="#221712" d="M 289.863281 347.644531 C 289.960938 347.570312 290.058594 347.5 290.160156 347.429688 C 294.753906 343.582031 299.375 339.769531 304.015625 335.976562 L 304.121094 335.875 C 302.289062 337.683594 300.5 339.535156 298.757812 341.445312 C 295.796875 343.484375 292.804688 345.535156 289.863281 347.644531 " fill-opacity="1" fill-rule="nonzero"/><path fill="#030909" d="M 226.363281 128.226562 C 222.8125 125.992188 219.199219 124.128906 215.621094 122.886719 L 215.621094 120.917969 C 216.242188 121.121094 216.863281 121.34375 217.484375 121.582031 C 218.789062 122.082031 220.089844 122.65625 221.382812 123.285156 C 222.425781 123.800781 223.46875 124.347656 224.5 124.933594 C 225.121094 125.285156 225.742188 125.648438 226.363281 126.027344 L 226.363281 128.226562 " fill-opacity="1" fill-rule="nonzero"/><path fill="#221712" d="M 255.714844 291.652344 C 255.480469 291.632812 255.242188 291.566406 255.019531 291.453125 C 254.933594 291.40625 254.847656 291.363281 254.761719 291.320312 C 242.683594 285.070312 234.074219 277.65625 228.222656 269.015625 C 227.570312 268.050781 226.945312 267.066406 226.363281 266.070312 L 226.363281 262.179688 C 231.898438 273.101562 241.195312 282.242188 255.867188 289.792969 C 255.867188 289.792969 255.851562 290.484375 255.714844 291.652344 " fill-opacity="1" fill-rule="nonzero"/><path fill="#030909" d="M 226.363281 266.070312 C 226.050781 265.539062 225.746094 265.003906 225.457031 264.464844 C 225.125 263.863281 224.804688 263.25 224.5 262.632812 C 219.414062 252.390625 217.519531 240.734375 217.519531 227.636719 C 217.523438 215.898438 219.03125 202.980469 221.179688 188.742188 C 219.914062 187.6875 218.679688 186.566406 217.484375 185.40625 C 216.851562 184.796875 216.230469 184.175781 215.621094 183.550781 L 215.621094 180.847656 C 217.964844 183.363281 220.523438 185.84375 223.179688 187.96875 C 220.957031 202.570312 219.386719 215.742188 219.382812 227.585938 C 219.378906 240.695312 221.296875 252.179688 226.363281 262.179688 L 226.363281 266.070312 " fill-opacity="1" fill-rule="nonzero"/><path fill="#231f20" d="M 138.625 147.238281 C 138.625 147.238281 138.625 147.238281 138.628906 147.238281 C 138.625 147.238281 138.625 147.238281 138.625 147.238281 M 143.078125 146.929688 C 143.078125 146.929688 142.773438 146.910156 142.265625 146.910156 C 142.773438 146.910156 143.078125 146.929688 143.078125 146.929688 C 156.535156 145.296875 169.601562 139.980469 179.835938 134.6875 L 178.246094 133.414062 L 179.835938 134.6875 L 178.246094 133.414062 L 179.835938 134.6875 C 192 128.398438 200.152344 122.140625 200.152344 122.140625 C 200.152344 122.140625 192 128.398438 179.835938 134.6875 C 169.601562 139.980469 156.535156 145.296875 143.078125 146.929688 M 142.113281 146.910156 C 142.164062 146.910156 142.21875 146.910156 142.265625 146.910156 C 142.21875 146.910156 142.164062 146.910156 142.113281 146.910156 M 200.242188 122.109375 C 200.246094 122.109375 200.25 122.109375 200.25 122.109375 C 200.25 122.109375 200.246094 122.109375 200.242188 122.109375 " fill-opacity="1" fill-rule="nonzero"/><path fill="#101417" d="M 215.621094 183.550781 C 214.988281 182.894531 214.367188 182.238281 213.761719 181.578125 C 211.664062 179.292969 209.757812 177.003906 208.125 174.929688 C 205.960938 172.195312 204.273438 169.839844 203.269531 168.390625 C 200.082031 170.332031 196.390625 171.890625 192.5625 173.171875 C 188.089844 174.667969 183.429688 175.777344 179.199219 176.59375 C 178.695312 176.6875 178.203125 176.785156 177.714844 176.871094 C 176.765625 177.046875 175.847656 177.203125 174.957031 177.34375 L 176.699219 175.160156 C 185.421875 173.613281 196.613281 170.796875 203.789062 165.835938 C 203.789062 165.835938 208.777344 173.488281 215.621094 180.847656 L 215.621094 183.550781 M 144.007812 174.71875 C 141.554688 173.667969 139.46875 172.464844 137.703125 171.183594 C 134.839844 169.101562 132.839844 166.828125 131.449219 164.699219 L 144.007812 174.71875 M 179.835938 134.6875 L 178.246094 133.414062 C 178.859375 133.097656 179.460938 132.785156 180.054688 132.472656 C 180.300781 132.347656 180.539062 132.21875 180.777344 132.089844 C 191.132812 126.5625 198.183594 121.296875 198.953125 120.714844 L 199.023438 120.660156 C 199.183594 120.535156 199.367188 120.4375 199.5625 120.375 C 201.765625 119.636719 204.039062 119.304688 206.335938 119.304688 C 206.339844 119.304688 206.339844 119.304688 206.34375 119.304688 C 208.800781 119.304688 211.28125 119.683594 213.761719 120.355469 C 214.382812 120.523438 215.003906 120.710938 215.621094 120.917969 L 215.621094 122.886719 C 212.476562 121.789062 209.363281 121.167969 206.34375 121.167969 C 206.34375 121.167969 206.34375 121.167969 206.339844 121.167969 C 204.253906 121.167969 202.214844 121.460938 200.25 122.109375 C 200.25 122.109375 200.246094 122.109375 200.242188 122.109375 C 200.214844 122.121094 200.183594 122.128906 200.152344 122.140625 C 200.152344 122.140625 192 128.398438 179.835938 134.6875 " fill-opacity="1" fill-rule="nonzero"/><path fill="#1f0d00" d="M 179.835938 134.6875 L 178.246094 133.414062 L 179.835938 134.6875 " fill-opacity="1" fill-rule="nonzero"/><path fill="#1f0d00" d="M 163.71875 178.714844 C 163.351562 178.699219 162.984375 178.679688 162.625 178.660156 C 161.953125 178.621094 161.292969 178.574219 160.648438 178.523438 L 160.089844 176.589844 C 161.28125 176.699219 162.507812 176.792969 163.796875 176.851562 C 163.796875 176.851562 169.378906 176.453125 176.699219 175.160156 L 174.957031 177.34375 C 174.011719 177.5 173.105469 177.640625 172.25 177.761719 C 167.316406 178.46875 163.964844 178.710938 163.929688 178.714844 L 163.71875 178.714844 " fill-opacity="1" fill-rule="nonzero"/><path fill="#1f1103" d="M 160.648438 178.523438 C 159.96875 178.464844 159.304688 178.402344 158.65625 178.332031 C 155.164062 177.949219 152.070312 177.347656 149.320312 176.582031 C 147.378906 176.035156 145.613281 175.410156 144.007812 174.71875 L 131.449219 164.699219 C 130.511719 163.253906 129.851562 161.875 129.386719 160.667969 C 129.269531 160.355469 129.164062 160.050781 129.066406 159.761719 C 128.40625 157.738281 128.332031 156.371094 128.324219 156.238281 L 128.324219 156.152344 C 128.316406 153.671875 129.011719 151.585938 130.160156 150 C 131.300781 148.40625 132.828125 147.335938 134.367188 146.617188 C 135.101562 146.285156 135.839844 146.019531 136.5625 145.8125 C 137.191406 145.628906 137.804688 145.492188 138.394531 145.382812 L 138.535156 147.253906 C 134.820312 147.960938 130.183594 150.066406 130.183594 156.152344 C 130.183594 156.152344 131.050781 173.917969 160.089844 176.589844 L 160.648438 178.523438 " fill-opacity="1" fill-rule="nonzero"/><path fill="#1f1103" d="M 138.535156 147.253906 L 138.394531 145.382812 C 139.050781 145.265625 139.679688 145.1875 140.246094 145.136719 C 141.046875 145.0625 141.738281 145.046875 142.253906 145.042969 C 142.589844 145.042969 142.851562 145.054688 143.015625 145.0625 C 154.992188 143.582031 166.773438 139.082031 176.410156 134.332031 C 177.03125 134.027344 177.640625 133.722656 178.246094 133.414062 L 179.835938 134.6875 C 169.601562 139.980469 156.535156 145.296875 143.078125 146.929688 C 143.078125 146.929688 142.773438 146.910156 142.265625 146.910156 C 142.21875 146.910156 142.164062 146.910156 142.113281 146.910156 C 141.296875 146.914062 140.03125 146.980469 138.628906 147.238281 C 138.625 147.238281 138.625 147.238281 138.625 147.238281 C 138.59375 147.246094 138.566406 147.25 138.535156 147.253906 " fill-opacity="1" fill-rule="nonzero"/><path fill="#221813" d="M 274.644531 360.472656 L 235.609375 317.664062 C 236.289062 317.484375 236.945312 317.28125 237.578125 317.0625 L 274.6875 357.757812 C 279.078125 353.367188 283.996094 349.546875 289.019531 345.953125 C 293.578125 342.132812 298.164062 338.355469 302.765625 334.589844 C 306.972656 330.433594 311.433594 326.507812 316.230469 322.75 C 321.777344 318.410156 327.449219 314.28125 333.101562 310.160156 C 333.300781 310 333.503906 309.839844 333.707031 309.675781 C 339.878906 304.105469 346.171875 298.65625 352.738281 293.515625 L 313.890625 250.667969 L 313.847656 250.617188 C 295.777344 229.214844 288.90625 224.820312 288.5625 224.621094 C 288.121094 224.371094 287.808594 223.957031 287.679688 223.464844 L 287.652344 223.355469 C 287.632812 223.28125 287.601562 223.164062 287.5625 223.015625 C 287.480469 222.714844 287.355469 222.261719 287.191406 221.679688 C 286.867188 220.515625 286.367188 218.820312 285.703125 216.695312 C 284.371094 212.457031 282.371094 206.53125 279.6875 199.816406 C 274.324219 186.378906 266.214844 169.789062 255.417969 157.238281 C 251.667969 152.871094 246.25 146.925781 240.011719 141.214844 C 233.777344 135.5 226.707031 130.035156 219.75 126.636719 C 215.121094 124.367188 210.554688 123.03125 206.359375 123.03125 C 206.351562 123.03125 206.34375 123.03125 206.34375 123.03125 C 204.503906 123.03125 202.730469 123.28125 201.023438 123.816406 C 199.660156 124.835938 193.085938 129.652344 183.546875 134.832031 C 172.828125 140.644531 158.390625 146.9375 143.300781 148.78125 C 143.230469 148.789062 143.144531 148.792969 143.070312 148.792969 C 143.027344 148.792969 142.980469 148.792969 142.945312 148.789062 L 142.917969 148.789062 L 142.785156 148.78125 C 142.664062 148.777344 142.488281 148.769531 142.253906 148.769531 C 142.25 148.769531 142.246094 148.769531 142.246094 148.769531 C 141.527344 148.769531 140.328125 148.820312 139.019531 149.058594 C 137.703125 149.296875 136.289062 149.730469 135.128906 150.425781 C 134.351562 150.890625 133.691406 151.460938 133.183594 152.171875 C 132.515625 153.113281 132.0625 154.304688 132.046875 156.085938 L 132.046875 156.109375 C 132.050781 156.164062 132.058594 156.253906 132.078125 156.378906 C 132.109375 156.628906 132.175781 157.015625 132.292969 157.5 C 132.527344 158.472656 132.980469 159.863281 133.832031 161.429688 C 135.550781 164.5625 138.832031 168.4375 145.484375 171.300781 C 149.90625 173.195312 155.835938 174.625 163.773438 174.984375 C 163.785156 174.984375 163.804688 174.980469 163.828125 174.980469 C 163.9375 174.972656 164.097656 174.960938 164.3125 174.941406 C 164.738281 174.90625 165.367188 174.847656 166.164062 174.765625 C 167.757812 174.597656 170.023438 174.332031 172.695312 173.925781 C 178.035156 173.125 184.992188 171.773438 191.386719 169.636719 C 195.644531 168.214844 199.652344 166.433594 202.734375 164.300781 C 203.046875 164.082031 203.414062 163.972656 203.785156 163.972656 C 203.90625 163.972656 204.027344 163.980469 204.148438 164.007812 C 204.644531 164.105469 205.074219 164.394531 205.347656 164.820312 L 205.371094 164.851562 L 205.445312 164.960938 C 205.507812 165.058594 205.609375 165.207031 205.734375 165.402344 C 205.996094 165.785156 206.382812 166.34375 206.875 167.046875 C 207.863281 168.449219 209.292969 170.40625 211.042969 172.621094 C 214.535156 177.046875 219.320312 182.496094 224.339844 186.515625 C 224.855469 186.933594 225.117188 187.589844 225.015625 188.25 C 222.796875 202.835938 221.242188 215.945312 221.242188 227.636719 C 221.246094 241.160156 223.3125 252.746094 228.722656 262.683594 C 234.136719 272.617188 242.914062 281.027344 256.71875 288.136719 C 257.636719 288.605469 257.996094 289.730469 257.527344 290.644531 C 257.195312 291.289062 256.542969 291.660156 255.867188 291.660156 C 255.816406 291.660156 255.765625 291.65625 255.714844 291.652344 C 255.851562 290.484375 255.867188 289.792969 255.867188 289.792969 C 241.195312 282.242188 231.898438 273.101562 226.363281 262.179688 C 221.296875 252.179688 219.378906 240.695312 219.382812 227.585938 C 219.386719 215.742188 220.957031 202.570312 223.179688 187.96875 C 220.523438 185.84375 217.964844 183.363281 215.621094 180.847656 C 208.777344 173.488281 203.789062 165.835938 203.789062 165.835938 C 196.613281 170.796875 185.421875 173.613281 176.699219 175.160156 C 169.378906 176.453125 163.796875 176.851562 163.796875 176.851562 C 162.507812 176.792969 161.28125 176.699219 160.089844 176.589844 C 131.050781 173.917969 130.183594 156.152344 130.183594 156.152344 C 130.183594 150.066406 134.820312 147.960938 138.535156 147.253906 C 138.566406 147.25 138.59375 147.246094 138.625 147.238281 C 138.625 147.238281 138.625 147.238281 138.628906 147.238281 C 140.03125 146.980469 141.296875 146.914062 142.113281 146.910156 C 142.164062 146.910156 142.21875 146.910156 142.265625 146.910156 C 142.773438 146.910156 143.078125 146.929688 143.078125 146.929688 C 156.535156 145.296875 169.601562 139.980469 179.835938 134.6875 C 192 128.398438 200.152344 122.140625 200.152344 122.140625 C 200.183594 122.128906 200.214844 122.121094 200.242188 122.109375 C 200.246094 122.109375 200.25 122.109375 200.25 122.109375 C 202.214844 121.460938 204.253906 121.167969 206.339844 121.167969 C 206.34375 121.167969 206.34375 121.167969 206.34375 121.167969 C 209.363281 121.167969 212.476562 121.789062 215.621094 122.886719 C 219.199219 124.128906 222.8125 125.992188 226.363281 128.226562 C 238.707031 136 250.277344 148.40625 256.828125 156.019531 C 278.855469 181.648438 289.480469 223 289.480469 223 C 289.480469 223 296.183594 226.820312 315.265625 249.417969 L 355.46875 293.753906 C 352.007812 296.417969 348.621094 299.179688 345.285156 302.003906 C 345.011719 302.234375 344.742188 302.472656 344.46875 302.703125 C 343.09375 303.871094 341.726562 305.054688 340.367188 306.246094 C 340.101562 306.480469 339.835938 306.710938 339.570312 306.949219 C 338.003906 308.324219 336.449219 309.707031 334.90625 311.101562 L 334.894531 311.113281 C 334.671875 311.289062 334.449219 311.464844 334.230469 311.640625 C 331.953125 313.300781 329.679688 314.960938 327.414062 316.636719 C 327.371094 316.664062 327.332031 316.691406 327.289062 316.722656 C 327.269531 316.742188 327.242188 316.757812 327.222656 316.777344 C 327.15625 316.824219 327.089844 316.871094 327.023438 316.917969 C 327.023438 316.921875 327.023438 316.921875 327.023438 316.921875 C 326.945312 316.980469 326.867188 317.035156 326.792969 317.09375 C 326.496094 317.3125 326.195312 317.53125 325.898438 317.75 C 324.71875 318.625 323.542969 319.507812 322.371094 320.390625 C 322.121094 320.582031 321.871094 320.765625 321.621094 320.957031 C 320.199219 322.035156 318.78125 323.121094 317.378906 324.222656 C 316.289062 325.074219 315.222656 325.933594 314.167969 326.804688 C 313.945312 326.992188 313.722656 327.175781 313.5 327.363281 C 312.507812 328.1875 311.53125 329.023438 310.566406 329.871094 L 310.441406 329.980469 C 308.265625 331.894531 306.160156 333.855469 304.121094 335.875 L 304.015625 335.976562 C 299.375 339.769531 294.753906 343.582031 290.160156 347.429688 C 290.058594 347.5 289.960938 347.570312 289.863281 347.644531 C 289.484375 347.914062 289.109375 348.1875 288.734375 348.460938 C 288.042969 348.964844 287.351562 349.472656 286.667969 349.984375 C 286.464844 350.136719 286.257812 350.292969 286.054688 350.449219 C 285.195312 351.09375 284.355469 351.757812 283.515625 352.429688 C 283.257812 352.632812 283 352.839844 282.746094 353.046875 C 281.953125 353.695312 281.160156 354.351562 280.382812 355.019531 L 280.128906 355.234375 C 279.296875 355.957031 278.492188 356.703125 277.6875 357.449219 C 277.464844 357.664062 277.246094 357.875 277.023438 358.089844 C 276.25 358.835938 275.484375 359.589844 274.742188 360.371094 L 274.644531 360.472656 " fill-opacity="1" fill-rule="nonzero"/><path fill="#f0c2a8" d="M 79.183594 259.289062 C 77.703125 258.097656 75.765625 256.386719 73.855469 254.257812 C 71.945312 252.125 70.0625 249.574219 68.675781 246.726562 C 67.289062 243.882812 66.398438 240.753906 66.398438 237.402344 C 66.398438 235.402344 66.710938 233.316406 67.449219 231.132812 C 67.609375 230.703125 71.789062 219.738281 86.027344 206.867188 C 86.152344 206.75 86.261719 206.621094 86.351562 206.476562 C 86.398438 206.402344 86.875 205.730469 87.75 205.109375 C 88.640625 204.480469 89.890625 203.890625 91.691406 203.886719 C 93.183594 203.886719 95.097656 204.300781 97.53125 205.621094 C 97.910156 206.023438 98.945312 207.222656 99.914062 209.109375 C 100.996094 211.214844 102.003906 214.160156 102.003906 217.898438 C 102 221.695312 100.972656 226.34375 97.757812 231.851562 C 94.550781 237.355469 89.136719 243.695312 80.410156 250.730469 C 80.007812 251.054688 79.757812 251.527344 79.722656 252.046875 L 79.183594 259.289062 " fill-opacity="1" fill-rule="nonzero"/><path fill="#231f20" d="M 80.792969 264.652344 C 80.4375 264.652344 80.089844 264.554688 79.789062 264.359375 C 79.765625 264.34375 79.453125 264.144531 78.929688 263.769531 C 77.976562 263.09375 76.308594 261.835938 74.390625 260.082031 C 71.425781 257.359375 67.847656 253.445312 65.410156 248.519531 C 63.785156 245.234375 62.675781 241.488281 62.675781 237.402344 C 62.671875 235 63.058594 232.484375 63.929688 229.910156 L 63.941406 229.878906 C 64.015625 229.675781 67.4375 220.28125 78.929688 208.523438 C 79.527344 207.910156 80.148438 207.292969 80.792969 206.664062 L 80.792969 209.285156 C 82.027344 208.042969 83.355469 206.769531 84.777344 205.480469 C 83.355469 206.769531 82.027344 208.042969 80.792969 209.285156 C 69.09375 221.078125 65.695312 230.511719 65.695312 230.511719 C 59.40625 249.109375 80.792969 262.789062 80.792969 262.789062 L 80.792969 264.652344 " fill-opacity="1" fill-rule="nonzero"/><path fill="#030909" d="M 80.792969 209.285156 L 80.792969 206.664062 C 81.390625 206.082031 82.007812 205.496094 82.652344 204.902344 C 82.890625 204.683594 83.128906 204.464844 83.371094 204.246094 C 83.65625 203.847656 84.285156 203.066406 85.324219 202.269531 C 86.347656 201.480469 87.8125 200.691406 89.671875 200.34375 C 90.253906 200.234375 90.875 200.167969 91.53125 200.160156 L 91.53125 202.027344 C 86.886719 202.109375 84.777344 205.480469 84.777344 205.480469 C 83.355469 206.769531 82.027344 208.042969 80.792969 209.285156 " fill-opacity="1" fill-rule="nonzero"/><path fill="#030909" d="M 80.792969 264.652344 L 80.792969 262.789062 L 81.582031 252.183594 C 85.511719 249.011719 88.800781 245.964844 91.53125 243.050781 L 91.53125 245.742188 C 90.933594 246.347656 90.316406 246.957031 89.671875 247.574219 C 87.78125 249.382812 85.6875 251.234375 83.375 253.125 L 82.652344 262.859375 L 82.644531 262.925781 C 82.597656 263.578125 82.207031 264.164062 81.625 264.453125 C 81.363281 264.585938 81.074219 264.652344 80.792969 264.652344 M 80.792969 262.789062 L 81.792969 261.21875 L 80.792969 262.789062 " fill-opacity="1" fill-rule="nonzero"/><path fill="#231f20" d="M 103.863281 217.890625 C 103.863281 209.058594 98.667969 204.117188 98.667969 204.117188 C 98.648438 204.109375 98.632812 204.097656 98.613281 204.089844 C 98.632812 204.097656 98.648438 204.109375 98.667969 204.117188 C 98.667969 204.117188 103.863281 209.058594 103.863281 217.890625 M 98.589844 204.078125 C 98.582031 204.070312 98.566406 204.0625 98.550781 204.054688 C 98.566406 204.0625 98.582031 204.070312 98.589844 204.078125 M 98.53125 204.039062 C 98.519531 204.035156 98.507812 204.03125 98.496094 204.023438 C 98.507812 204.03125 98.519531 204.035156 98.53125 204.039062 M 98.457031 204 C 95.796875 202.550781 93.558594 202.027344 91.710938 202.027344 C 93.558594 202.027344 95.796875 202.550781 98.457031 204 " fill-opacity="1" fill-rule="nonzero"/><path fill="#101417" d="M 91.53125 245.742188 L 91.53125 243.050781 C 101.097656 232.859375 103.863281 224.335938 103.863281 217.890625 C 103.863281 209.058594 98.667969 204.117188 98.667969 204.117188 C 98.648438 204.109375 98.632812 204.097656 98.613281 204.089844 C 98.605469 204.085938 98.597656 204.082031 98.589844 204.078125 C 98.582031 204.070312 98.566406 204.0625 98.550781 204.054688 C 98.542969 204.046875 98.535156 204.042969 98.53125 204.039062 C 98.519531 204.035156 98.507812 204.03125 98.496094 204.023438 C 98.484375 204.015625 98.472656 204.007812 98.457031 204 C 95.796875 202.550781 93.558594 202.027344 91.710938 202.027344 C 91.707031 202.027344 91.703125 202.027344 91.699219 202.027344 C 91.640625 202.027344 91.585938 202.027344 91.53125 202.027344 L 91.53125 200.160156 C 91.578125 200.160156 91.625 200.160156 91.671875 200.160156 C 91.679688 200.160156 91.683594 200.160156 91.691406 200.160156 C 91.695312 200.160156 91.695312 200.160156 91.699219 200.160156 C 92.242188 200.160156 92.804688 200.195312 93.394531 200.28125 C 95.246094 200.535156 97.316406 201.222656 99.574219 202.488281 C 99.710938 202.566406 99.835938 202.65625 99.949219 202.765625 C 100.046875 202.863281 101.472656 204.230469 102.890625 206.789062 C 104.3125 209.339844 105.730469 213.105469 105.726562 217.898438 C 105.730469 222.386719 104.476562 227.738281 100.972656 233.734375 C 99.117188 236.902344 96.644531 240.257812 93.394531 243.789062 C 92.796875 244.433594 92.179688 245.085938 91.53125 245.742188 " fill-opacity="1" fill-rule="nonzero"/><path fill="#221813" d="M 80.792969 262.789062 C 80.792969 262.789062 59.40625 249.109375 65.695312 230.511719 C 65.695312 230.511719 69.09375 221.078125 80.792969 209.285156 C 82.027344 208.042969 83.355469 206.769531 84.777344 205.480469 C 84.777344 205.480469 86.886719 202.109375 91.53125 202.027344 C 91.585938 202.027344 91.640625 202.027344 91.699219 202.027344 C 91.703125 202.027344 91.707031 202.027344 91.710938 202.027344 C 93.558594 202.027344 95.796875 202.550781 98.457031 204 C 98.472656 204.007812 98.484375 204.015625 98.496094 204.023438 C 98.507812 204.03125 98.519531 204.035156 98.53125 204.039062 C 98.535156 204.042969 98.542969 204.046875 98.550781 204.054688 C 98.566406 204.0625 98.582031 204.070312 98.589844 204.078125 C 98.597656 204.082031 98.605469 204.085938 98.613281 204.089844 C 98.632812 204.097656 98.648438 204.109375 98.667969 204.117188 C 98.667969 204.117188 103.863281 209.058594 103.863281 217.890625 C 103.863281 224.335938 101.097656 232.859375 91.53125 243.050781 C 88.800781 245.964844 85.511719 249.011719 81.582031 252.183594 L 80.792969 262.789062 M 67.449219 231.132812 C 66.710938 233.316406 66.398438 235.402344 66.398438 237.402344 C 66.398438 240.753906 67.289062 243.882812 68.675781 246.726562 C 70.0625 249.574219 71.945312 252.125 73.855469 254.257812 C 75.765625 256.386719 77.703125 258.097656 79.183594 259.289062 L 79.722656 252.046875 C 79.757812 251.527344 80.007812 251.054688 80.410156 250.730469 C 89.136719 243.695312 94.550781 237.355469 97.757812 231.851562 C 100.972656 226.34375 102 221.695312 102.003906 217.898438 C 102.003906 214.160156 100.996094 211.214844 99.914062 209.109375 C 98.945312 207.222656 97.910156 206.023438 97.53125 205.621094 C 95.097656 204.300781 93.183594 203.886719 91.691406 203.886719 C 89.890625 203.890625 88.640625 204.480469 87.75 205.109375 C 86.875 205.730469 86.398438 206.402344 86.351562 206.476562 C 86.261719 206.621094 86.152344 206.75 86.027344 206.867188 C 71.789062 219.738281 67.609375 230.703125 67.449219 231.132812 " fill-opacity="1" fill-rule="nonzero"/><path fill="#f0c2a8" d="M 78.929688 199.761719 C 76.742188 199.273438 73.171875 198.292969 69.710938 196.589844 C 67 195.261719 64.375 193.492188 62.484375 191.269531 C 61.539062 190.15625 60.773438 188.933594 60.238281 187.582031 C 59.703125 186.21875 59.398438 184.726562 59.398438 183.027344 C 59.394531 179.4375 60.792969 174.871094 64.648438 169.15625 C 65.152344 168.566406 68.828125 164.355469 73.773438 160.320312 C 76.292969 158.261719 79.140625 156.253906 82.03125 154.785156 C 84.914062 153.316406 87.816406 152.40625 90.429688 152.40625 C 90.4375 152.40625 90.445312 152.40625 90.453125 152.40625 C 91.992188 152.410156 93.429688 152.703125 94.804688 153.375 C 96.160156 154.039062 97.46875 155.078125 98.722656 156.660156 C 98.84375 156.855469 99.355469 157.691406 99.855469 159.046875 C 100.425781 160.578125 100.988281 162.757812 100.988281 165.417969 C 100.980469 168.832031 100.089844 173.039062 97.015625 177.832031 C 93.941406 182.617188 88.648438 187.996094 79.804688 193.539062 C 79.261719 193.878906 78.929688 194.476562 78.929688 195.117188 L 78.929688 199.761719 " fill-opacity="1" fill-rule="nonzero"/><path fill="#231f20" d="M 80.789062 203.886719 C 80.699219 203.886719 80.613281 203.878906 80.527344 203.871094 C 80.492188 203.863281 79.910156 203.777344 78.929688 203.578125 C 77.824219 203.351562 76.230469 202.976562 74.375 202.40625 C 70.878906 201.324219 66.46875 199.554688 62.742188 196.632812 C 60.261719 194.6875 58.074219 192.191406 56.808594 189.027344 C 56.085938 187.226562 55.675781 185.214844 55.675781 183.027344 C 55.679688 178.429688 57.457031 173.132812 61.625 166.976562 L 61.742188 166.820312 C 61.773438 166.785156 63.886719 164.28125 67.210938 161.140625 C 70.125 158.390625 73.953125 155.152344 78.191406 152.648438 C 78.4375 152.503906 78.683594 152.363281 78.929688 152.222656 C 79.292969 152.015625 79.664062 151.816406 80.035156 151.621094 C 80.253906 151.507812 80.476562 151.394531 80.695312 151.285156 C 80.726562 151.292969 80.757812 151.300781 80.792969 151.308594 L 80.792969 151.238281 L 80.792969 153.332031 C 80.847656 153.300781 80.902344 153.277344 80.953125 153.246094 C 80.902344 153.277344 80.847656 153.300781 80.792969 153.332031 C 71.394531 158.265625 63.167969 168.027344 63.167969 168.027344 C 43.75 196.695312 80.792969 202.023438 80.792969 202.023438 L 80.792969 203.886719 C 80.792969 203.886719 80.789062 203.886719 80.789062 203.886719 M 80.960938 153.238281 C 80.992188 153.226562 81.019531 153.214844 81.046875 153.199219 C 81.019531 153.214844 80.992188 153.226562 80.960938 153.238281 M 81.066406 153.1875 C 81.066406 153.1875 81.070312 153.183594 81.074219 153.183594 C 81.070312 153.183594 81.066406 153.1875 81.066406 153.1875 M 91.5 150.589844 C 91.152344 150.5625 90.800781 150.550781 90.453125 150.550781 C 90.800781 150.550781 91.152344 150.5625 91.5 150.589844 M 90.445312 150.550781 C 90.445312 150.550781 90.449219 150.550781 90.453125 150.550781 C 90.449219 150.550781 90.445312 150.550781 90.445312 150.550781 " fill-opacity="1" fill-rule="nonzero"/><path fill="#221712" d="M 80.792969 151.308594 C 80.757812 151.300781 80.726562 151.292969 80.695312 151.285156 C 80.726562 151.269531 80.757812 151.257812 80.792969 151.238281 L 80.792969 151.308594 " fill-opacity="1" fill-rule="nonzero"/><path fill="#030909" d="M 80.792969 203.886719 L 80.792969 195.117188 C 85.144531 192.390625 88.671875 189.6875 91.53125 187.050781 L 91.53125 189.554688 C 90.9375 190.074219 90.316406 190.59375 89.671875 191.113281 C 87.601562 192.78125 85.273438 194.460938 82.652344 196.144531 L 82.652344 202.023438 C 82.652344 202.5625 82.417969 203.078125 82.007812 203.433594 C 81.667969 203.726562 81.234375 203.886719 80.792969 203.886719 M 80.792969 202.023438 L 81.058594 200.179688 L 80.792969 202.023438 " fill-opacity="1" fill-rule="nonzero"/><path fill="#030909" d="M 80.792969 153.332031 L 80.792969 151.238281 C 81.40625 150.941406 82.023438 150.65625 82.652344 150.398438 C 84.933594 149.453125 87.289062 148.820312 89.671875 148.699219 C 89.929688 148.6875 90.191406 148.679688 90.453125 148.679688 C 90.457031 148.679688 90.460938 148.679688 90.46875 148.679688 C 90.820312 148.679688 91.175781 148.695312 91.53125 148.71875 L 91.53125 150.59375 C 91.523438 150.589844 91.511719 150.589844 91.5 150.589844 C 91.152344 150.5625 90.800781 150.550781 90.453125 150.550781 C 90.449219 150.550781 90.445312 150.550781 90.445312 150.550781 C 87.371094 150.550781 84.164062 151.597656 81.074219 153.183594 C 81.070312 153.183594 81.066406 153.1875 81.066406 153.1875 C 81.0625 153.191406 81.054688 153.195312 81.046875 153.199219 C 81.019531 153.214844 80.992188 153.226562 80.960938 153.238281 C 80.960938 153.242188 80.957031 153.246094 80.953125 153.246094 C 80.902344 153.277344 80.847656 153.300781 80.792969 153.332031 " fill-opacity="1" fill-rule="nonzero"/><path fill="#101417" d="M 91.53125 189.554688 L 91.53125 187.050781 C 100.523438 178.753906 102.839844 171.101562 102.84375 165.421875 C 102.847656 159.386719 100.234375 155.574219 100.234375 155.574219 C 97.691406 152.324219 94.699219 150.855469 91.53125 150.59375 L 91.53125 148.71875 C 92.152344 148.761719 92.777344 148.851562 93.394531 148.980469 C 94.425781 149.199219 95.445312 149.542969 96.4375 150.027344 C 98.355469 150.964844 100.140625 152.425781 101.699219 154.425781 L 101.769531 154.519531 C 101.832031 154.613281 102.558594 155.691406 103.277344 157.566406 C 103.996094 159.441406 104.707031 162.132812 104.707031 165.417969 C 104.710938 169.5 103.59375 174.492188 100.148438 179.847656 C 98.476562 182.449219 96.269531 185.128906 93.394531 187.863281 C 92.800781 188.425781 92.179688 188.988281 91.53125 189.554688 " fill-opacity="1" fill-rule="nonzero"/><path fill="#221813" d="M 80.792969 202.023438 C 80.792969 202.023438 43.75 196.695312 63.167969 168.027344 C 63.167969 168.027344 71.394531 158.265625 80.792969 153.332031 C 80.847656 153.300781 80.902344 153.277344 80.953125 153.246094 C 80.957031 153.246094 80.960938 153.242188 80.960938 153.238281 C 80.992188 153.226562 81.019531 153.214844 81.046875 153.199219 C 81.054688 153.195312 81.0625 153.191406 81.066406 153.1875 C 81.066406 153.1875 81.070312 153.183594 81.074219 153.183594 C 84.164062 151.597656 87.371094 150.550781 90.445312 150.550781 C 90.445312 150.550781 90.449219 150.550781 90.453125 150.550781 C 90.800781 150.550781 91.152344 150.5625 91.5 150.589844 C 91.511719 150.589844 91.523438 150.589844 91.53125 150.59375 C 94.699219 150.855469 97.691406 152.324219 100.234375 155.574219 C 100.234375 155.574219 102.847656 159.386719 102.84375 165.421875 C 102.839844 171.101562 100.523438 178.753906 91.53125 187.050781 C 88.671875 189.6875 85.144531 192.390625 80.792969 195.117188 L 80.792969 202.023438 M 64.648438 169.15625 C 60.792969 174.871094 59.394531 179.4375 59.398438 183.027344 C 59.398438 184.726562 59.703125 186.21875 60.238281 187.582031 C 60.773438 188.933594 61.539062 190.15625 62.484375 191.269531 C 64.375 193.492188 67 195.261719 69.710938 196.589844 C 73.171875 198.292969 76.742188 199.273438 78.929688 199.761719 L 78.929688 195.117188 C 78.929688 194.476562 79.261719 193.878906 79.804688 193.539062 C 88.648438 187.996094 93.941406 182.617188 97.015625 177.832031 C 100.089844 173.039062 100.980469 168.832031 100.988281 165.417969 C 100.988281 162.757812 100.425781 160.578125 99.855469 159.046875 C 99.355469 157.691406 98.84375 156.855469 98.722656 156.660156 C 97.46875 155.078125 96.160156 154.039062 94.804688 153.375 C 93.429688 152.703125 91.992188 152.410156 90.453125 152.40625 C 90.445312 152.40625 90.4375 152.40625 90.429688 152.40625 C 87.816406 152.40625 84.914062 153.316406 82.03125 154.785156 C 79.140625 156.253906 76.292969 158.261719 73.773438 160.320312 C 68.828125 164.355469 65.152344 168.566406 64.648438 169.15625 " fill-opacity="1" fill-rule="nonzero"/></svg>