<svg xmlns="http://www.w3.org/2000/svg" xmlns:xlink="http://www.w3.org/1999/xlink" width="512" zoomAndPan="magnify" viewBox="0 0 384 383.999986" height="512" preserveAspectRatio="xMidYMid meet" version="1.0"><defs><clipPath id="1bcb712e0e"><path d="M 168 13.097656 L 276 13.097656 L 276 231 L 168 231 Z M 168 13.097656 " clip-rule="nonzero"/></clipPath><clipPath id="43866b1a83"><path d="M 105.007812 293 L 204 293 L 204 370.847656 L 105.007812 370.847656 Z M 105.007812 293 " clip-rule="nonzero"/></clipPath></defs><path fill="#575a5b" d="M 272.8125 56.824219 C 270.320312 56.824219 268.292969 55.738281 268.292969 54.394531 L 268.292969 37.515625 C 268.292969 36.171875 270.320312 35.089844 272.8125 35.089844 C 275.304688 35.089844 277.332031 36.171875 277.332031 37.515625 L 277.332031 54.394531 C 277.332031 55.738281 275.304688 56.824219 272.8125 56.824219 " fill-opacity="1" fill-rule="nonzero"/><path fill="#040606" d="M 272.8125 56.824219 L 272.8125 55.367188 C 271.777344 55.371094 270.855469 55.125 270.308594 54.828125 C 270.035156 54.683594 269.863281 54.527344 269.796875 54.441406 L 269.75 54.363281 L 269.671875 54.394531 L 269.75 54.394531 L 269.75 54.363281 L 269.671875 54.394531 L 269.75 54.394531 L 269.75 37.515625 L 269.675781 37.515625 L 269.75 37.546875 L 269.75 37.515625 L 269.675781 37.515625 L 269.75 37.546875 C 269.75 37.539062 269.785156 37.464844 269.914062 37.351562 C 270.101562 37.179688 270.484375 36.957031 270.996094 36.804688 C 271.503906 36.644531 272.132812 36.546875 272.8125 36.546875 C 273.847656 36.542969 274.769531 36.785156 275.316406 37.085938 C 275.589844 37.226562 275.765625 37.382812 275.832031 37.472656 L 275.878906 37.546875 L 275.910156 37.53125 L 275.875 37.539062 L 275.878906 37.546875 L 275.910156 37.53125 L 275.875 37.539062 L 275.988281 37.515625 L 275.875 37.515625 L 275.875 37.539062 L 275.988281 37.515625 L 275.875 37.515625 L 275.875 54.394531 L 275.957031 54.394531 L 275.878906 54.363281 L 275.875 54.394531 L 275.957031 54.394531 L 275.878906 54.363281 C 275.875 54.371094 275.839844 54.449219 275.710938 54.5625 C 275.523438 54.730469 275.140625 54.953125 274.628906 55.109375 C 274.121094 55.265625 273.492188 55.367188 272.8125 55.367188 L 272.8125 58.28125 C 274.273438 58.277344 275.609375 57.976562 276.699219 57.394531 C 277.242188 57.097656 277.730469 56.730469 278.121094 56.242188 C 278.507812 55.753906 278.789062 55.105469 278.789062 54.394531 L 278.789062 37.515625 C 278.789062 36.8125 278.507812 36.160156 278.121094 35.671875 C 277.535156 34.9375 276.738281 34.464844 275.835938 34.132812 C 274.933594 33.804688 273.910156 33.632812 272.8125 33.632812 C 271.351562 33.636719 270.019531 33.933594 268.925781 34.515625 C 268.382812 34.8125 267.894531 35.179688 267.503906 35.671875 C 267.117188 36.160156 266.835938 36.8125 266.835938 37.515625 L 266.835938 54.394531 C 266.835938 55.105469 267.117188 55.753906 267.503906 56.238281 C 268.09375 56.972656 268.886719 57.445312 269.789062 57.777344 C 270.691406 58.105469 271.71875 58.277344 272.8125 58.28125 L 272.8125 56.824219 " fill-opacity="1" fill-rule="nonzero"/><path fill="#575a5b" d="M 272.8125 81.316406 C 270.320312 81.316406 268.292969 80.230469 268.292969 78.886719 L 268.292969 62.007812 C 268.292969 60.667969 270.320312 59.582031 272.8125 59.582031 C 275.304688 59.582031 277.332031 60.667969 277.332031 62.007812 L 277.332031 78.886719 C 277.332031 80.230469 275.304688 81.316406 272.8125 81.316406 " fill-opacity="1" fill-rule="nonzero"/><path fill="#040606" d="M 272.8125 81.316406 L 272.8125 79.859375 C 271.777344 79.863281 270.855469 79.617188 270.308594 79.320312 C 270.035156 79.175781 269.863281 79.019531 269.796875 78.933594 L 269.75 78.855469 L 269.671875 78.886719 L 269.75 78.886719 L 269.75 78.855469 L 269.671875 78.886719 L 269.75 78.886719 L 269.75 62.007812 L 269.675781 62.007812 L 269.75 62.035156 L 269.75 62.007812 L 269.675781 62.007812 L 269.75 62.035156 C 269.75 62.03125 269.785156 61.953125 269.914062 61.839844 C 270.101562 61.667969 270.484375 61.449219 270.996094 61.292969 C 271.503906 61.136719 272.132812 61.035156 272.8125 61.039062 C 273.847656 61.03125 274.769531 61.273438 275.316406 61.574219 C 275.589844 61.722656 275.765625 61.875 275.832031 61.964844 L 275.878906 62.035156 L 275.914062 62.023438 L 275.875 62.03125 L 275.878906 62.035156 L 275.914062 62.023438 L 275.875 62.03125 L 275.992188 62.007812 L 275.875 62.007812 L 275.875 62.03125 L 275.992188 62.007812 L 275.875 62.007812 L 275.875 78.886719 L 275.957031 78.886719 L 275.878906 78.855469 L 275.875 78.886719 L 275.957031 78.886719 L 275.878906 78.855469 C 275.875 78.863281 275.839844 78.941406 275.710938 79.054688 C 275.523438 79.222656 275.140625 79.445312 274.628906 79.601562 C 274.121094 79.757812 273.492188 79.859375 272.8125 79.859375 L 272.8125 82.773438 C 274.273438 82.769531 275.609375 82.46875 276.699219 81.886719 C 277.242188 81.59375 277.730469 81.222656 278.121094 80.734375 C 278.507812 80.246094 278.789062 79.597656 278.789062 78.886719 L 278.789062 62.007812 C 278.789062 61.300781 278.507812 60.652344 278.121094 60.160156 C 277.535156 59.425781 276.738281 58.957031 275.835938 58.625 C 274.933594 58.296875 273.910156 58.125 272.8125 58.125 C 271.351562 58.128906 270.015625 58.425781 268.925781 59.007812 C 268.382812 59.304688 267.894531 59.671875 267.503906 60.160156 C 267.117188 60.652344 266.835938 61.300781 266.835938 62.007812 L 266.835938 78.886719 C 266.835938 79.597656 267.117188 80.246094 267.503906 80.730469 C 268.09375 81.46875 268.886719 81.9375 269.789062 82.269531 C 270.691406 82.597656 271.71875 82.773438 272.8125 82.773438 L 272.8125 81.316406 " fill-opacity="1" fill-rule="nonzero"/><path fill="#29242c" d="M 273.953125 223.351562 C 273.953125 226.757812 271.1875 229.519531 267.785156 229.519531 L 175.707031 229.519531 C 172.304688 229.519531 169.542969 226.757812 169.542969 223.351562 L 169.542969 20.757812 C 169.542969 17.351562 172.304688 14.589844 175.707031 14.589844 L 267.785156 14.589844 C 271.1875 14.589844 273.953125 17.351562 273.953125 20.757812 L 273.953125 223.351562 " fill-opacity="1" fill-rule="nonzero"/><g clip-path="url(#1bcb712e0e)"><path fill="#040606" d="M 273.953125 223.351562 L 272.492188 223.351562 C 272.492188 224.660156 271.96875 225.828125 271.117188 226.679688 C 270.257812 227.539062 269.089844 228.0625 267.785156 228.0625 L 175.707031 228.0625 C 174.40625 228.0625 173.238281 227.539062 172.378906 226.679688 C 171.527344 225.828125 171.003906 224.660156 171.003906 223.351562 L 171.003906 20.757812 C 171.003906 19.453125 171.527344 18.285156 172.378906 17.425781 C 173.238281 16.570312 174.40625 16.046875 175.707031 16.046875 L 267.785156 16.046875 C 269.089844 16.046875 270.257812 16.570312 271.117188 17.425781 C 271.96875 18.285156 272.492188 19.453125 272.492188 20.757812 L 272.492188 223.351562 L 275.410156 223.351562 L 275.410156 20.757812 C 275.410156 16.546875 271.992188 13.132812 267.785156 13.132812 L 175.707031 13.132812 C 171.5 13.132812 168.085938 16.546875 168.085938 20.757812 L 168.085938 223.351562 C 168.085938 227.5625 171.5 230.976562 175.707031 230.976562 L 267.785156 230.976562 C 271.992188 230.976562 275.410156 227.566406 275.410156 223.351562 L 273.953125 223.351562 " fill-opacity="1" fill-rule="nonzero"/></g><path fill="#65bed9" d="M 270.222656 200.230469 L 173.273438 200.230469 L 173.273438 36.238281 L 270.222656 36.238281 L 270.222656 200.230469 " fill-opacity="1" fill-rule="nonzero"/><path fill="#040606" d="M 270.222656 200.230469 L 270.222656 198.773438 L 174.730469 198.773438 L 174.730469 37.691406 L 268.765625 37.691406 L 268.765625 200.230469 L 270.222656 200.230469 L 270.222656 198.773438 L 270.222656 200.230469 L 271.683594 200.230469 L 271.683594 36.238281 C 271.683594 35.851562 271.527344 35.476562 271.253906 35.207031 C 270.984375 34.933594 270.609375 34.78125 270.222656 34.78125 L 173.273438 34.78125 C 172.886719 34.78125 172.511719 34.933594 172.238281 35.207031 C 171.96875 35.476562 171.8125 35.851562 171.8125 36.238281 L 171.8125 200.230469 C 171.8125 200.617188 171.964844 200.984375 172.238281 201.257812 C 172.515625 201.535156 172.882812 201.6875 173.273438 201.6875 L 270.222656 201.6875 C 270.613281 201.6875 270.980469 201.535156 271.253906 201.257812 C 271.53125 200.984375 271.683594 200.617188 271.683594 200.230469 L 270.222656 200.230469 " fill-opacity="1" fill-rule="nonzero"/><path fill="#575a5b" d="M 234.230469 23.671875 C 234.230469 25.210938 232.980469 26.460938 231.441406 26.460938 L 212.058594 26.460938 C 210.515625 26.460938 209.265625 25.210938 209.265625 23.671875 C 209.265625 22.128906 210.515625 20.882812 212.058594 20.882812 L 231.441406 20.882812 C 232.980469 20.882812 234.230469 22.128906 234.230469 23.671875 " fill-opacity="1" fill-rule="nonzero"/><path fill="#040606" d="M 234.230469 23.671875 L 232.773438 23.671875 C 232.773438 24.40625 232.175781 25.003906 231.441406 25.003906 L 212.058594 25.003906 C 211.320312 25.003906 210.722656 24.40625 210.722656 23.671875 C 210.722656 22.9375 211.320312 22.34375 212.058594 22.339844 L 231.441406 22.339844 C 232.175781 22.34375 232.773438 22.9375 232.773438 23.671875 L 235.6875 23.671875 C 235.6875 21.328125 233.785156 19.429688 231.441406 19.425781 L 212.058594 19.425781 C 209.710938 19.429688 207.808594 21.328125 207.808594 23.671875 C 207.808594 26.019531 209.710938 27.917969 212.058594 27.917969 L 231.441406 27.917969 C 233.785156 27.917969 235.6875 26.019531 235.6875 23.671875 L 234.230469 23.671875 " fill-opacity="1" fill-rule="nonzero"/><path fill="#575a5b" d="M 232.632812 214.410156 C 232.632812 220.421875 227.757812 225.296875 221.746094 225.296875 C 215.738281 225.296875 210.859375 220.421875 210.859375 214.410156 C 210.859375 208.402344 215.738281 203.527344 221.746094 203.527344 C 227.757812 203.527344 232.632812 208.402344 232.632812 214.410156 " fill-opacity="1" fill-rule="nonzero"/><path fill="#040606" d="M 232.632812 214.410156 L 231.175781 214.410156 C 231.175781 217.019531 230.121094 219.363281 228.414062 221.078125 C 226.703125 222.785156 224.359375 223.835938 221.746094 223.839844 C 219.140625 223.835938 216.792969 222.785156 215.082031 221.078125 C 213.375 219.363281 212.320312 217.019531 212.320312 214.410156 C 212.320312 211.804688 213.375 209.457031 215.082031 207.746094 C 216.792969 206.039062 219.140625 204.988281 221.746094 204.984375 C 224.359375 204.988281 226.703125 206.039062 228.414062 207.746094 C 230.121094 209.457031 231.175781 211.804688 231.175781 214.410156 L 234.089844 214.410156 C 234.089844 207.59375 228.566406 202.074219 221.746094 202.070312 C 214.929688 202.074219 209.402344 207.59375 209.402344 214.410156 C 209.402344 221.226562 214.929688 226.75 221.746094 226.75 C 228.566406 226.75 234.089844 221.226562 234.089844 214.410156 L 232.632812 214.410156 " fill-opacity="1" fill-rule="nonzero"/><path fill="#f6891d" d="M 257.660156 145.773438 L 186.101562 145.773438 L 186.101562 99.367188 L 257.660156 99.367188 L 257.660156 145.773438 " fill-opacity="1" fill-rule="nonzero"/><path fill="#040606" d="M 257.660156 145.773438 L 257.660156 144.316406 L 187.558594 144.316406 L 187.558594 100.824219 L 256.203125 100.824219 L 256.203125 145.773438 L 257.660156 145.773438 L 257.660156 144.316406 L 257.660156 145.773438 L 259.121094 145.773438 L 259.121094 99.367188 C 259.121094 98.984375 258.964844 98.609375 258.695312 98.335938 C 258.421875 98.066406 258.046875 97.910156 257.660156 97.910156 L 186.101562 97.910156 C 185.71875 97.910156 185.339844 98.066406 185.070312 98.335938 C 184.796875 98.609375 184.644531 98.984375 184.644531 99.367188 L 184.644531 145.773438 C 184.644531 146.164062 184.792969 146.53125 185.070312 146.804688 C 185.34375 147.082031 185.714844 147.230469 186.101562 147.230469 L 257.660156 147.230469 C 258.050781 147.230469 258.417969 147.082031 258.695312 146.804688 C 258.96875 146.53125 259.121094 146.164062 259.121094 145.773438 L 257.660156 145.773438 " fill-opacity="1" fill-rule="nonzero"/><path fill="#fab418" d="M 257.660156 99.367188 L 186.101562 99.367188 L 221.882812 69.261719 Z M 257.660156 99.367188 " fill-opacity="1" fill-rule="nonzero"/><path fill="#040606" d="M 257.660156 99.367188 L 257.660156 97.910156 L 190.097656 97.910156 L 221.882812 71.164062 L 256.722656 100.484375 L 257.660156 99.367188 L 257.660156 97.910156 L 257.660156 99.367188 L 258.597656 98.253906 L 222.820312 68.144531 C 222.277344 67.691406 221.488281 67.691406 220.945312 68.144531 L 185.164062 98.253906 C 184.695312 98.648438 184.519531 99.292969 184.734375 99.871094 C 184.941406 100.441406 185.488281 100.824219 186.101562 100.824219 L 257.660156 100.824219 C 258.273438 100.824219 258.820312 100.441406 259.03125 99.871094 C 259.242188 99.292969 259.070312 98.648438 258.597656 98.253906 L 257.660156 99.367188 " fill-opacity="1" fill-rule="nonzero"/><path fill="#ffffff" d="M 251.304688 137.703125 L 192.457031 137.703125 L 192.457031 80.402344 L 251.304688 80.402344 L 251.304688 137.703125 " fill-opacity="1" fill-rule="nonzero"/><path fill="#040606" d="M 251.304688 137.703125 L 251.304688 136.246094 L 193.914062 136.246094 L 193.914062 81.855469 L 249.847656 81.855469 L 249.847656 137.703125 L 251.304688 137.703125 L 251.304688 136.246094 L 251.304688 137.703125 L 252.761719 137.703125 L 252.761719 80.402344 C 252.761719 80.011719 252.609375 79.636719 252.335938 79.367188 C 252.0625 79.09375 251.691406 78.945312 251.304688 78.945312 L 192.457031 78.945312 C 192.074219 78.945312 191.699219 79.09375 191.425781 79.367188 C 191.15625 79.636719 191 80.011719 191 80.402344 L 191 137.703125 C 191 138.089844 191.152344 138.457031 191.425781 138.730469 C 191.703125 139.007812 192.066406 139.160156 192.457031 139.160156 L 251.304688 139.160156 C 251.695312 139.160156 252.058594 139.007812 252.335938 138.730469 C 252.613281 138.457031 252.761719 138.089844 252.761719 137.703125 L 251.304688 137.703125 " fill-opacity="1" fill-rule="nonzero"/><path fill="#dc721b" d="M 186.101562 145.773438 L 186.101562 99.367188 L 221.882812 122.570312 Z M 186.101562 145.773438 " fill-opacity="1" fill-rule="nonzero"/><path fill="#040606" d="M 186.101562 145.773438 L 187.558594 145.773438 L 187.558594 102.050781 L 219.203125 122.570312 L 185.308594 144.550781 L 186.101562 145.773438 L 187.558594 145.773438 L 186.101562 145.773438 L 186.894531 147 L 222.675781 123.792969 C 223.089844 123.527344 223.339844 123.0625 223.339844 122.570312 C 223.339844 122.078125 223.089844 121.613281 222.675781 121.347656 L 186.894531 98.148438 C 186.445312 97.855469 185.875 97.832031 185.40625 98.085938 C 184.933594 98.34375 184.644531 98.832031 184.644531 99.367188 L 184.644531 145.773438 C 184.644531 146.308594 184.933594 146.800781 185.40625 147.054688 C 185.875 147.308594 186.445312 147.289062 186.894531 147 L 186.101562 145.773438 " fill-opacity="1" fill-rule="nonzero"/><path fill="#dc721b" d="M 257.660156 145.773438 L 257.660156 99.367188 L 221.882812 122.570312 Z M 257.660156 145.773438 " fill-opacity="1" fill-rule="nonzero"/><path fill="#040606" d="M 257.660156 145.773438 L 259.121094 145.773438 L 259.121094 99.367188 C 259.121094 98.832031 258.828125 98.34375 258.355469 98.085938 C 257.890625 97.832031 257.316406 97.855469 256.867188 98.148438 L 221.089844 121.347656 C 220.675781 121.613281 220.425781 122.078125 220.425781 122.570312 C 220.425781 123.0625 220.675781 123.527344 221.089844 123.792969 L 256.867188 147 C 257.316406 147.289062 257.890625 147.308594 258.355469 147.054688 C 258.828125 146.800781 259.121094 146.308594 259.121094 145.773438 L 257.660156 145.773438 L 258.453125 144.550781 L 224.5625 122.570312 L 256.203125 102.050781 L 256.203125 145.773438 L 257.660156 145.773438 L 258.453125 144.550781 L 257.660156 145.773438 " fill-opacity="1" fill-rule="nonzero"/><path fill="#fab418" d="M 257.660156 145.773438 L 186.101562 145.773438 L 221.882812 115.664062 Z M 257.660156 145.773438 " fill-opacity="1" fill-rule="nonzero"/><path fill="#040606" d="M 257.660156 145.773438 L 257.660156 144.316406 L 190.097656 144.316406 L 221.882812 117.570312 L 256.722656 146.890625 L 257.660156 145.773438 L 257.660156 144.316406 L 257.660156 145.773438 L 258.597656 144.660156 L 222.820312 114.550781 C 222.277344 114.09375 221.488281 114.09375 220.945312 114.550781 L 185.164062 144.660156 C 184.695312 145.050781 184.519531 145.703125 184.734375 146.273438 C 184.941406 146.851562 185.488281 147.230469 186.101562 147.230469 L 257.660156 147.230469 C 258.273438 147.230469 258.820312 146.851562 259.03125 146.273438 C 259.242188 145.703125 259.070312 145.050781 258.597656 144.660156 L 257.660156 145.773438 " fill-opacity="1" fill-rule="nonzero"/><path fill="#eeb796" d="M 122.148438 313.199219 C 122.148438 313.199219 129.214844 264.152344 127.554688 255.898438 C 125.894531 247.644531 113.003906 184.867188 117.15625 165.164062 C 121.300781 145.464844 169.222656 100.597656 169.222656 100.597656 C 169.222656 100.597656 169.019531 183.3125 170.574219 191.605469 C 172.132812 199.902344 179.394531 205.605469 183.023438 202.496094 C 186.65625 199.386719 195.757812 177.214844 202.210938 162.570312 C 208.957031 147.277344 230.542969 149.609375 226.429688 167.871094 C 222.535156 185.144531 214.050781 233.082031 208.957031 245.53125 C 199.621094 268.34375 188.210938 272.492188 188.210938 272.492188 L 184.058594 304.902344 L 122.148438 313.199219 " fill-opacity="1" fill-rule="nonzero"/><path fill="#040606" d="M 122.148438 313.199219 L 123.589844 313.40625 C 123.589844 313.402344 125.007812 303.574219 126.421875 291.964844 C 127.132812 286.160156 127.839844 279.914062 128.371094 274.214844 C 128.902344 268.515625 129.261719 263.386719 129.261719 259.753906 C 129.261719 258.035156 129.1875 256.667969 128.984375 255.613281 C 128.265625 252.050781 125.464844 238.375 122.847656 222.390625 C 120.222656 206.417969 117.792969 188.113281 117.796875 175.476562 C 117.792969 171.453125 118.046875 168.007812 118.582031 165.460938 C 119.050781 163.21875 120.195312 160.464844 121.863281 157.433594 C 124.773438 152.117188 129.269531 145.933594 134.355469 139.691406 C 141.988281 130.324219 150.960938 120.804688 158.023438 113.640625 C 161.550781 110.054688 164.601562 107.054688 166.769531 104.957031 C 167.855469 103.90625 168.71875 103.082031 169.308594 102.523438 C 169.902344 101.960938 170.214844 101.660156 170.214844 101.660156 L 169.222656 100.597656 L 167.765625 100.59375 C 167.765625 100.59375 167.757812 104.117188 167.757812 109.777344 C 167.757812 120.671875 167.789062 139.484375 167.972656 156.40625 C 168.070312 164.867188 168.199219 172.855469 168.382812 179.148438 C 168.476562 182.292969 168.585938 185.019531 168.707031 187.175781 C 168.769531 188.25 168.835938 189.1875 168.902344 189.96875 C 168.976562 190.753906 169.050781 191.378906 169.140625 191.875 C 169.828125 195.519531 171.511719 198.679688 173.574219 200.976562 C 174.613281 202.128906 175.742188 203.066406 176.929688 203.734375 C 178.113281 204.398438 179.367188 204.808594 180.636719 204.8125 C 181.820312 204.816406 183.023438 204.421875 183.972656 203.601562 C 184.625 203.035156 185.191406 202.273438 185.847656 201.285156 C 186.972656 199.558594 188.261719 197.140625 189.6875 194.253906 C 193.941406 185.605469 199.316406 172.75 203.542969 163.160156 C 206.316406 156.878906 211.707031 153.929688 216.398438 153.929688 C 218.890625 153.929688 221.144531 154.753906 222.773438 156.3125 C 224.394531 157.871094 225.476562 160.1875 225.488281 163.519531 C 225.488281 164.730469 225.335938 166.074219 225.007812 167.554688 C 223.046875 176.238281 219.953125 192.527344 216.714844 208.214844 C 215.09375 216.054688 213.4375 223.742188 211.871094 230.230469 C 210.308594 236.714844 208.820312 242.023438 207.609375 244.980469 C 203.003906 256.21875 197.929688 262.78125 194.066406 266.519531 C 192.136719 268.386719 190.503906 269.558594 189.375 270.246094 C 188.8125 270.59375 188.375 270.820312 188.089844 270.957031 C 187.945312 271.023438 187.84375 271.070312 187.777344 271.097656 L 187.714844 271.125 L 187.710938 271.125 C 187.199219 271.308594 186.832031 271.769531 186.765625 272.308594 L 182.757812 303.605469 L 121.953125 311.753906 L 122.148438 313.199219 L 123.589844 313.40625 L 122.148438 313.199219 L 122.34375 314.640625 L 184.25 306.34375 C 184.910156 306.257812 185.421875 305.738281 185.503906 305.085938 L 189.65625 272.679688 L 188.210938 272.492188 L 188.707031 273.863281 C 188.878906 273.804688 191.921875 272.652344 196.09375 268.613281 C 200.269531 264.574219 205.570312 257.648438 210.304688 246.082031 C 211.640625 242.808594 213.121094 237.464844 214.703125 230.914062 C 217.070312 221.101562 219.628906 208.65625 221.957031 197.039062 C 224.289062 185.425781 226.398438 174.628906 227.847656 168.191406 C 228.226562 166.527344 228.402344 164.96875 228.402344 163.519531 C 228.410156 159.542969 227.03125 156.335938 224.785156 154.203125 C 222.546875 152.066406 219.527344 151.011719 216.398438 151.015625 C 210.507812 151.011719 204.085938 154.703125 200.878906 161.984375 C 197.644531 169.316406 193.753906 178.519531 190.234375 186.25 C 188.472656 190.117188 186.796875 193.621094 185.359375 196.316406 C 184.644531 197.664062 183.980469 198.816406 183.40625 199.691406 C 182.839844 200.5625 182.332031 201.179688 182.074219 201.386719 C 181.652344 201.742188 181.222656 201.890625 180.636719 201.898438 C 180.015625 201.898438 179.21875 201.683594 178.363281 201.199219 C 177.070312 200.472656 175.675781 199.171875 174.519531 197.464844 C 173.363281 195.753906 172.441406 193.652344 172.007812 191.335938 C 171.945312 191.011719 171.875 190.441406 171.808594 189.707031 C 171.554688 186.941406 171.355469 181.792969 171.199219 175.367188 C 170.734375 156.0625 170.671875 125.082031 170.671875 109.777344 C 170.671875 106.949219 170.671875 104.652344 170.675781 103.066406 C 170.675781 101.480469 170.679688 100.601562 170.679688 100.601562 C 170.679688 100.019531 170.335938 99.492188 169.804688 99.261719 C 169.273438 99.03125 168.648438 99.136719 168.222656 99.535156 C 168.207031 99.550781 156.210938 110.785156 143.667969 124.511719 C 137.398438 131.375 130.988281 138.859375 125.863281 145.90625 C 123.296875 149.429688 121.054688 152.84375 119.304688 156.035156 C 117.558594 159.226562 116.300781 162.179688 115.730469 164.863281 C 115.125 167.734375 114.878906 171.332031 114.878906 175.476562 C 114.882812 188.460938 117.339844 206.808594 119.96875 222.863281 C 122.601562 238.90625 125.410156 252.625 126.121094 256.1875 C 126.261719 256.863281 126.351562 258.136719 126.351562 259.753906 C 126.351562 263.207031 126 268.296875 125.46875 273.945312 C 124.675781 282.425781 123.484375 292.199219 122.492188 299.835938 C 121.996094 303.65625 121.546875 306.945312 121.226562 309.28125 C 121.0625 310.449219 120.933594 311.375 120.84375 312.011719 C 120.753906 312.644531 120.707031 312.988281 120.707031 312.992188 C 120.636719 313.441406 120.789062 313.898438 121.113281 314.222656 C 121.433594 314.546875 121.886719 314.703125 122.34375 314.640625 L 122.148438 313.199219 " fill-opacity="1" fill-rule="nonzero"/><path fill="#efcdbb" d="M 220.945312 177.261719 C 222.851562 173.882812 224.566406 169.15625 224.980469 165.714844 C 226.746094 151.125 209.695312 151.011719 205.640625 163.496094 C 204.609375 166.6875 203.324219 168.648438 204.011719 172.207031 C 204.699219 175.769531 219.039062 180.644531 220.945312 177.261719 " fill-opacity="1" fill-rule="nonzero"/><path fill="#040606" d="M 220.945312 177.261719 L 222.21875 177.980469 C 223.21875 176.199219 224.148438 174.105469 224.894531 171.996094 C 225.640625 169.882812 226.199219 167.765625 226.425781 165.886719 C 226.519531 165.121094 226.566406 164.386719 226.566406 163.675781 C 226.570312 160.269531 225.488281 157.53125 223.675781 155.695312 C 221.867188 153.855469 219.410156 152.972656 216.898438 152.976562 C 214.355469 152.980469 211.734375 153.859375 209.472656 155.558594 C 207.210938 157.257812 205.3125 159.785156 204.257812 163.046875 C 203.867188 164.261719 203.414062 165.328125 203.035156 166.480469 C 202.65625 167.621094 202.359375 168.859375 202.359375 170.28125 C 202.359375 170.972656 202.429688 171.703125 202.578125 172.484375 C 202.710938 173.160156 203.042969 173.699219 203.429688 174.179688 C 204.121094 175.011719 205.054688 175.703125 206.15625 176.359375 C 207.800781 177.335938 209.828125 178.1875 211.890625 178.824219 C 213.949219 179.449219 216.027344 179.855469 217.835938 179.859375 C 218.699219 179.855469 219.507812 179.765625 220.261719 179.507812 C 220.640625 179.378906 221.007812 179.203125 221.347656 178.953125 C 221.683594 178.703125 221.992188 178.375 222.214844 177.980469 L 220.945312 177.261719 L 219.679688 176.550781 L 219.613281 176.605469 C 219.542969 176.667969 219.347656 176.761719 219.039062 176.832031 C 218.734375 176.902344 218.320312 176.945312 217.835938 176.945312 C 216.800781 176.945312 215.460938 176.75 214.0625 176.402344 C 211.964844 175.882812 209.726562 175.019531 208.046875 174.085938 C 207.210938 173.625 206.511719 173.136719 206.054688 172.71875 C 205.828125 172.507812 205.660156 172.316406 205.566406 172.171875 C 205.46875 172.03125 205.441406 171.941406 205.441406 171.9375 C 205.324219 171.320312 205.273438 170.78125 205.273438 170.28125 C 205.277344 169.261719 205.476562 168.386719 205.800781 167.390625 C 206.128906 166.398438 206.589844 165.300781 207.03125 163.945312 C 207.914062 161.234375 209.441406 159.226562 211.222656 157.890625 C 213 156.550781 215.039062 155.890625 216.898438 155.890625 C 218.742188 155.894531 220.390625 156.515625 221.597656 157.742188 C 222.796875 158.96875 223.644531 160.855469 223.652344 163.675781 C 223.652344 164.257812 223.613281 164.882812 223.535156 165.542969 C 223.347656 167.105469 222.839844 169.066406 222.148438 171.023438 C 221.453125 172.988281 220.578125 174.949219 219.675781 176.550781 L 220.945312 177.261719 " fill-opacity="1" fill-rule="nonzero"/><path fill="#1f4c7f" d="M 202.210938 369.453125 L 106.785156 369.453125 L 109.699219 295.394531 L 200.269531 295.394531 L 202.210938 369.453125 " fill-opacity="1" fill-rule="nonzero"/><g clip-path="url(#43866b1a83)"><path fill="#040606" d="M 202.210938 369.453125 L 202.210938 367.996094 L 108.300781 367.996094 L 111.101562 296.851562 L 198.847656 296.851562 L 200.753906 369.492188 L 202.210938 369.453125 L 202.210938 367.996094 L 202.210938 369.453125 L 203.667969 369.414062 L 201.726562 295.359375 C 201.703125 294.570312 201.058594 293.9375 200.269531 293.9375 L 109.699219 293.9375 C 108.914062 293.9375 108.273438 294.558594 108.242188 295.339844 L 105.328125 369.398438 C 105.3125 369.789062 105.460938 370.179688 105.734375 370.464844 C 106.007812 370.75 106.386719 370.90625 106.785156 370.90625 L 202.210938 370.90625 C 202.605469 370.90625 202.980469 370.753906 203.253906 370.46875 C 203.53125 370.1875 203.679688 369.808594 203.667969 369.414062 L 202.210938 369.453125 " fill-opacity="1" fill-rule="nonzero"/></g><path fill="#fddd10" d="M 138.226562 317.085938 C 138.226562 321.519531 134.628906 325.117188 130.1875 325.117188 C 125.75 325.117188 122.148438 321.519531 122.148438 317.085938 C 122.148438 312.644531 125.75 309.046875 130.1875 309.046875 C 134.628906 309.046875 138.226562 312.644531 138.226562 317.085938 " fill-opacity="1" fill-rule="nonzero"/><path fill="#040606" d="M 138.226562 317.085938 L 136.769531 317.085938 C 136.769531 318.90625 136.03125 320.542969 134.839844 321.738281 C 133.644531 322.929688 132.007812 323.660156 130.1875 323.660156 C 128.363281 323.660156 126.730469 322.929688 125.535156 321.738281 C 124.339844 320.542969 123.605469 318.90625 123.605469 317.085938 C 123.605469 315.261719 124.339844 313.628906 125.535156 312.433594 C 126.730469 311.238281 128.363281 310.503906 130.1875 310.503906 C 132.007812 310.503906 133.644531 311.238281 134.839844 312.433594 C 136.03125 313.628906 136.769531 315.261719 136.769531 317.085938 L 139.683594 317.085938 C 139.683594 311.839844 135.433594 307.589844 130.1875 307.589844 C 124.941406 307.589844 120.691406 311.835938 120.691406 317.085938 C 120.691406 322.328125 124.941406 326.574219 130.1875 326.574219 C 135.433594 326.574219 139.683594 322.328125 139.683594 317.085938 L 138.226562 317.085938 " fill-opacity="1" fill-rule="nonzero"/></svg>