<svg width="501" height="498" viewBox="0 0 501 498" fill="none" xmlns="http://www.w3.org/2000/svg">
<g filter="url(#filter0_d_11_9)">
<circle cx="245" cy="245" r="245" fill="#38195B"/>
<path d="M211.173 192.859C207.87 194.766 204.62 196.718 201.424 198.707C202.546 192.108 203.872 185.847 205.37 179.956C211.268 181.609 217.407 183.605 223.739 185.95C219.539 188.147 215.346 190.449 211.173 192.859ZM309.443 234.822C314.712 239.083 319.67 243.426 324.28 247.816C319.731 252.293 314.809 256.729 309.564 261.086C309.692 257.264 309.76 253.412 309.76 249.537C309.76 244.589 309.651 239.681 309.443 234.822ZM356.583 257.652C353.995 254.297 351.189 250.94 348.192 247.597C350.243 245.213 352.199 242.824 354.042 240.436C373.342 215.41 378.87 192.648 369.476 176.377C360.082 160.105 337.607 153.511 306.281 157.713C303.019 158.151 299.689 158.704 296.308 159.361C295.154 155.996 293.934 152.736 292.643 149.598C280.62 120.37 263.671 104.202 244.882 104.202C226.094 104.202 209.145 120.37 197.122 149.598C195.831 152.736 194.611 155.996 193.457 159.361C190.076 158.705 186.746 158.151 183.484 157.713C152.161 153.511 129.684 160.105 120.289 176.377C110.895 192.648 116.423 215.41 135.723 240.436C137.565 242.824 139.521 245.213 141.573 247.597C138.576 250.94 135.77 254.296 133.182 257.652C113.881 282.678 108.354 305.441 117.748 321.712C125.296 334.786 141.288 341.611 163.523 341.611C168.963 341.611 174.783 341.202 180.942 340.375C184.867 339.849 188.889 339.156 192.984 338.314C194.275 342.176 195.653 345.906 197.122 349.477C209.145 378.704 226.094 394.872 244.882 394.872C263.671 394.872 280.62 378.704 292.642 349.476C294.111 345.905 295.49 342.176 296.78 338.314C300.876 339.156 304.897 339.849 308.823 340.375C314.983 341.201 320.8 341.61 326.242 341.61C348.474 341.61 364.469 334.784 372.016 321.711C381.411 305.44 375.884 282.678 356.583 257.652ZM323.796 173.763C331.561 173.763 338.178 174.749 343.382 176.653C348.587 178.556 352.368 181.374 354.481 185.033C357.246 189.822 357.363 196.293 354.954 203.947C352.546 211.599 347.619 220.413 340.332 229.862C338.974 231.622 337.546 233.383 336.06 235.144C327.569 227.076 318.021 219.183 307.638 211.659C306.201 199.135 304.047 187.163 301.233 176.025C309.492 174.509 317.076 173.763 323.796 173.763ZM267.393 290.236C259.771 294.636 252.248 298.585 244.887 302.097C237.522 298.584 229.997 294.639 222.371 290.236C213.955 285.377 205.899 280.234 198.298 274.893C197.662 266.78 197.318 258.316 197.318 249.537C197.318 239.7 197.749 230.257 198.541 221.263C205.316 216.613 212.433 212.123 219.829 207.852C228.333 202.943 236.711 198.603 244.882 194.796C253.053 198.603 261.431 202.943 269.934 207.852C277.331 212.123 284.447 216.613 291.223 221.263C292.015 230.257 292.445 239.7 292.445 249.537C292.445 258.316 292.102 266.78 291.466 274.893C283.865 280.234 275.81 285.377 267.393 290.236ZM276.05 305.23C280.397 302.72 284.653 300.133 288.814 297.484C287.694 304.544 286.343 311.238 284.796 317.522C278.631 315.726 272.214 313.562 265.598 311.022C269.09 309.163 272.577 307.235 276.05 305.23ZM224.165 311.021C217.549 313.562 211.133 315.723 204.968 317.519C203.421 311.237 202.07 304.543 200.949 297.484C205.11 300.133 209.367 302.72 213.714 305.23C217.186 307.235 220.673 309.163 224.165 311.021ZM180.321 234.822C180.113 239.681 180.005 244.59 180.005 249.537C180.005 253.412 180.073 257.264 180.201 261.086C174.955 256.729 170.034 252.293 165.484 247.816C170.094 243.426 175.053 239.083 180.321 234.822ZM278.592 192.859C274.418 190.449 270.225 188.146 266.025 185.949C272.357 183.605 278.496 181.607 284.394 179.955C285.893 185.847 287.219 192.108 288.341 198.707C285.144 196.718 281.895 194.766 278.592 192.859ZM244.882 121.516C250.97 121.516 257.276 125.389 263.239 132.599C269.175 139.777 274.752 150.241 279.41 163.401C268.211 166.556 256.608 170.73 244.882 175.825C233.157 170.73 221.553 166.557 210.354 163.401C215.012 150.241 220.589 139.777 226.526 132.599C232.488 125.389 238.794 121.516 244.882 121.516ZM135.283 185.034C137.396 181.374 141.177 178.556 146.381 176.653C151.584 174.749 158.202 173.764 165.968 173.764C172.688 173.764 180.272 174.51 188.532 176.026C185.717 187.164 183.564 199.136 182.127 211.659C171.744 219.184 162.196 227.077 153.705 235.144C152.219 233.384 150.791 231.622 149.433 229.862C142.146 220.413 137.219 211.6 134.811 203.948C132.402 196.294 132.519 189.822 135.283 185.034ZM163.427 324.325C155.662 324.324 149.045 323.339 143.841 321.435C138.636 319.531 134.855 316.714 132.742 313.055C129.977 308.266 129.861 301.795 132.269 294.141C134.678 286.489 139.604 277.675 146.892 268.226C148.937 265.573 151.134 262.917 153.469 260.265C161.865 268.508 171.385 276.593 181.787 284.315C183.16 297.435 185.309 309.989 188.179 321.648C179.065 323.447 170.737 324.325 163.427 324.325ZM244.882 377.558C238.676 377.558 232.244 373.532 226.18 366.051C220.142 358.601 214.489 347.747 209.815 334.116C221.204 330.797 232.992 326.437 244.882 321.144C256.773 326.437 268.561 330.797 279.95 334.116C275.275 347.747 269.623 358.601 263.584 366.051C257.521 373.532 251.088 377.558 244.882 377.558ZM357.022 313.055C353.909 318.447 347.172 322.011 337.612 323.513C328.091 325.008 315.799 324.454 301.585 321.648C304.456 309.989 306.604 297.435 307.977 284.315C318.379 276.593 327.899 268.508 336.295 260.265C338.63 262.917 340.827 265.573 342.872 268.226C350.16 277.675 355.087 286.489 357.495 294.141C359.904 301.795 359.787 308.266 357.022 313.055Z" fill="#CCF381" stroke="#CCF381" stroke-width="0.3"/>
<path d="M244.882 275.824C259.399 275.824 271.168 264.055 271.168 249.537C271.168 235.02 259.399 223.251 244.882 223.251C230.364 223.251 218.595 235.02 218.595 249.537C218.595 264.055 230.364 275.824 244.882 275.824Z" fill="#CCF381"/>
</g>
<defs>
<filter id="filter0_d_11_9" x="0" y="0" width="501" height="498" filterUnits="userSpaceOnUse" color-interpolation-filters="sRGB">
<feFlood flood-opacity="0" result="BackgroundImageFix"/>
<feColorMatrix in="SourceAlpha" type="matrix" values="0 0 0 0 0 0 0 0 0 0 0 0 0 0 0 0 0 0 127 0" result="hardAlpha"/>
<feOffset dx="7" dy="4"/>
<feGaussianBlur stdDeviation="2"/>
<feComposite in2="hardAlpha" operator="out"/>
<feColorMatrix type="matrix" values="0 0 0 0 0 0 0 0 0 0 0 0 0 0 0 0 0 0 0.25 0"/>
<feBlend mode="normal" in2="BackgroundImageFix" result="effect1_dropShadow_11_9"/>
<feBlend mode="normal" in="SourceGraphic" in2="effect1_dropShadow_11_9" result="shape"/>
</filter>
</defs>
</svg>
