<svg width="501" height="498" viewBox="0 0 501 498" fill="none" xmlns="http://www.w3.org/2000/svg">
<g filter="url(#filter0_d_11_49)">
<circle cx="245" cy="245" r="245" fill="#CCF381"/>
<path d="M356.464 257.744C353.853 254.358 351.02 250.972 347.992 247.599C350.073 245.183 352.057 242.763 353.923 240.344C373.215 215.33 378.692 192.639 369.346 176.451C360 160.263 337.612 153.661 306.301 157.861C303.001 158.304 299.631 158.866 296.208 159.533C295.043 156.127 293.81 152.828 292.504 149.654C280.487 120.44 263.574 104.351 244.882 104.351C226.19 104.351 209.278 120.44 197.261 149.654C195.955 152.828 194.722 156.127 193.557 159.533C190.134 158.866 186.764 158.304 183.464 157.861C152.156 153.662 129.766 160.263 120.419 176.451C111.073 192.639 116.55 215.33 135.842 240.344C137.708 242.763 139.691 245.183 141.773 247.599C138.744 250.972 135.912 254.358 133.301 257.744C114.009 282.757 108.532 305.449 117.878 321.636C125.387 334.643 141.312 341.46 163.523 341.46C168.955 341.46 174.769 341.052 180.922 340.226C184.885 339.694 188.947 338.993 193.085 338.14C194.386 342.044 195.777 345.813 197.261 349.42C209.278 378.633 226.19 394.722 244.882 394.722C263.574 394.722 280.487 378.633 292.504 349.419C293.987 345.812 295.378 342.044 296.68 338.139C300.818 338.993 304.879 339.694 308.843 340.226C314.998 341.052 320.807 341.46 326.241 341.46C348.45 341.46 364.378 334.642 371.886 321.636C381.233 305.448 375.756 282.757 356.464 257.744V257.744ZM323.796 173.613C339.348 173.613 350.34 177.561 354.611 184.958C360.2 194.637 355.038 211.038 340.45 229.953C339.06 231.755 337.597 233.559 336.072 235.362C327.543 227.247 317.942 219.308 307.497 211.741C306.054 199.141 303.885 187.101 301.048 175.906C309.376 174.369 317.022 173.613 323.796 173.613V173.613ZM267.468 290.365C259.82 294.781 252.272 298.741 244.887 302.263C237.498 298.74 229.948 294.783 222.296 290.365C213.855 285.492 205.776 280.333 198.154 274.975C197.514 266.836 197.168 258.345 197.168 249.537C197.168 239.67 197.601 230.198 198.397 221.179C205.194 216.512 212.333 212.007 219.754 207.722C228.284 202.798 236.687 198.446 244.882 194.631C253.077 198.446 261.48 202.798 270.009 207.722C277.431 212.007 284.57 216.512 291.366 221.179C292.163 230.198 292.595 239.67 292.595 249.537C292.595 258.345 292.249 266.836 291.61 274.975C283.989 280.333 275.91 285.492 267.468 290.365V290.365ZM289.015 297.178C287.875 304.42 286.492 311.28 284.904 317.709C278.594 315.876 272.019 313.657 265.238 311.043C268.825 309.138 272.408 307.159 275.975 305.1C280.418 302.534 284.766 299.889 289.015 297.178ZM224.526 311.042C217.743 313.657 211.17 315.873 204.859 317.707C203.272 311.279 201.889 304.42 200.749 297.178C204.998 299.889 209.346 302.534 213.789 305.1C217.356 307.159 220.938 309.138 224.526 311.042ZM180.362 261.415C174.974 256.951 169.926 252.404 165.269 247.814C169.989 243.313 175.075 238.861 180.485 234.496C180.268 239.461 180.155 244.479 180.155 249.537C180.155 253.523 180.227 257.484 180.362 261.415ZM201.22 199.01C202.364 192.231 203.723 185.805 205.263 179.769C211.308 181.459 217.607 183.51 224.107 185.926C219.809 188.169 215.518 190.523 211.248 192.988C207.849 194.95 204.507 196.961 201.22 199.01V199.01ZM265.657 185.926C272.157 183.509 278.456 181.458 284.502 179.769C286.042 185.805 287.4 192.231 288.544 199.01C285.258 196.961 281.916 194.95 278.517 192.988C274.246 190.522 269.955 188.169 265.657 185.926ZM309.279 234.496C314.69 238.861 319.776 243.313 324.496 247.814C319.838 252.404 314.79 256.951 309.402 261.415C309.538 257.484 309.61 253.523 309.61 249.537C309.61 244.478 309.496 239.461 309.279 234.496V234.496ZM244.882 121.365C257.188 121.365 270.261 137.02 279.605 163.501C268.347 166.665 256.676 170.86 244.882 175.988C233.088 170.86 221.418 166.666 210.16 163.501C219.504 137.02 232.576 121.365 244.882 121.365ZM135.153 184.958C139.425 177.56 150.412 173.613 165.968 173.613C172.742 173.613 180.389 174.37 188.717 175.907C185.88 187.102 183.711 199.142 182.268 211.741C171.823 219.308 162.222 227.248 153.693 235.362C152.168 233.56 150.705 231.756 149.315 229.954C134.726 211.038 129.565 194.638 135.153 184.958ZM163.427 324.474C147.875 324.473 136.883 320.527 132.612 313.13C127.024 303.45 132.185 287.049 146.773 268.134C148.851 265.438 151.085 262.74 153.461 260.046C161.894 268.336 171.465 276.469 181.93 284.234C183.307 297.429 185.47 310.05 188.362 321.765C179.181 323.586 170.79 324.475 163.427 324.474V324.474ZM244.882 377.708C232.337 377.708 218.998 361.437 209.622 334.016C221.07 330.688 232.924 326.306 244.882 320.979C256.84 326.306 268.694 330.688 280.142 334.016C270.767 361.437 257.427 377.708 244.882 377.708ZM357.152 313.13C350.859 324.03 329.982 327.433 301.402 321.765C304.294 310.05 306.457 297.429 307.834 284.234C318.299 276.469 327.871 268.336 336.303 260.046C338.679 262.74 340.913 265.439 342.991 268.134C357.58 287.049 362.741 303.45 357.152 313.13Z" fill="#38195B"/>
<path d="M244.882 275.824C259.4 275.824 271.169 264.055 271.169 249.537C271.169 235.02 259.4 223.251 244.882 223.251C230.365 223.251 218.596 235.02 218.596 249.537C218.596 264.055 230.365 275.824 244.882 275.824Z" fill="#38195B"/>
</g>
<defs>
<filter id="filter0_d_11_49" x="0" y="0" width="501" height="498" filterUnits="userSpaceOnUse" color-interpolation-filters="sRGB">
<feFlood flood-opacity="0" result="BackgroundImageFix"/>
<feColorMatrix in="SourceAlpha" type="matrix" values="0 0 0 0 0 0 0 0 0 0 0 0 0 0 0 0 0 0 127 0" result="hardAlpha"/>
<feOffset dx="7" dy="4"/>
<feGaussianBlur stdDeviation="2"/>
<feComposite in2="hardAlpha" operator="out"/>
<feColorMatrix type="matrix" values="0 0 0 0 0 0 0 0 0 0 0 0 0 0 0 0 0 0 0.25 0"/>
<feBlend mode="normal" in2="BackgroundImageFix" result="effect1_dropShadow_11_49"/>
<feBlend mode="normal" in="SourceGraphic" in2="effect1_dropShadow_11_49" result="shape"/>
</filter>
</defs>
</svg>
