<svg width="501" height="498" viewBox="0 0 501 498" fill="none" xmlns="http://www.w3.org/2000/svg">
<g filter="url(#filter0_d_11_6)">
<circle cx="245" cy="245" r="245" fill="#38195B"/>
<path d="M389.527 272.669C383.958 274.783 384.183 274.82 381.237 269.435C377.475 262.575 375.474 255.361 375.301 247.516C375.158 240.783 376.994 234.525 379.303 228.387C381.147 223.505 378.749 221.783 374.536 221.339C371.47 221.023 368.308 221.053 365.235 221.369C357.244 222.189 356.458 222.881 354.336 230.666C353.078 235.285 352.073 239.941 349.982 244.326C344.825 255.12 338.964 265.516 332.952 275.836C331.873 277.694 330.981 279.694 329.46 281.282C325.105 274.737 323.464 267.509 323.097 259.926C322.729 252.442 325.015 245.484 327.526 238.601C328.373 236.285 327.669 234.848 325.675 233.847C324.79 233.404 323.801 232.99 322.834 232.914C317.707 232.508 312.596 232.568 307.596 233.975C305.347 234.599 303.878 235.863 303.376 238.398C302.402 243.355 300.881 248.169 298.826 252.802C293.13 265.635 287.471 278.49 281.782 291.33C276.835 302.486 271.963 313.671 266.102 324.382C265.69 325.142 265.345 326.458 264.311 326.195C263.262 325.932 263.629 324.638 263.584 323.75C263.247 317.432 264.963 311.406 266.424 305.374C268.74 295.828 271.273 286.328 273.732 276.813C274.437 274.082 273.252 272.246 270.996 270.938C267.751 269.065 264.52 268.975 261.006 271.599C261.485 267.718 261.695 264.31 261.53 260.903C261.156 253.306 257.647 248.364 251.539 247.22C247.08 246.385 242.86 247.687 238.872 249.582C229.578 253.998 222.106 260.655 215.824 268.733C215.089 269.674 214.348 270.539 213.283 271.118C201.493 277.564 189.711 284.011 177.951 290.517C176.662 291.239 175.83 291.036 174.9 290.035C168.979 283.664 162.106 278.406 155.3 273.074C145.789 265.612 135.948 258.541 127.74 249.545C122.944 244.28 118.941 238.51 116.94 231.545C113.672 220.157 116.115 209.551 121.557 199.471C127.996 187.549 137.545 178.342 148.075 170.143C164.797 157.13 183.137 146.794 202.468 138.287C224.114 128.772 246.57 122.641 270.486 123.567C279.961 123.935 289.157 125.582 297.597 130.238C303.57 133.533 307.528 138.295 308.645 145.282C309.957 153.466 308 161.026 304.38 168.195C296.293 184.209 283.439 195.552 268.245 204.436C255.593 211.83 241.945 216.524 227.501 218.983C219.519 220.344 211.506 221.164 203.479 219.938C194.267 218.532 185.753 215.441 179.45 207.993C178.722 207.136 177.8 206.541 176.564 207.143C175.297 207.76 175.395 208.888 175.514 209.972C175.604 210.716 175.807 211.468 176.069 212.176C177.755 216.742 180.911 220.187 184.606 223.196C194.215 231.041 205.6 233.343 217.555 233.577C229.255 233.81 240.775 232.32 252.175 229.583C277.891 223.415 299.433 210.755 315.158 189.061C324.557 176.093 330.509 161.802 329.984 145.449C329.646 135.076 326.168 125.914 318.636 118.468C309.678 109.629 298.564 105.184 286.638 102.514C273.356 99.5499 259.94 99.1287 246.389 100.754C234.599 102.167 223.079 104.59 211.866 108.463C194.709 114.398 178.138 121.687 162.278 130.548C146.028 139.619 130.715 150.008 117.284 163.02C105.397 174.536 95.1806 187.241 89.4241 203.015C86.9659 209.769 85.197 216.713 86.8461 224.017C88.96 233.419 93.5767 241.558 99.648 248.899C108.83 260.017 120.095 268.772 131.713 277.137C141.044 283.861 150.811 289.984 159.775 297.213C162.316 299.258 162.301 299.258 159.31 300.831C155.818 302.658 152.287 304.419 148.855 306.367C135.012 314.22 121.633 322.735 110.712 334.568C105.338 340.398 101.687 346.942 99.9866 354.208C108.876 367.537 119.452 379.632 131.407 390.185C151.801 388.591 167.414 377.939 178.949 360.323C184.518 351.816 187.126 342.188 188.108 332.032C188.97 323.081 188.063 314.416 185.44 305.871C184.983 304.366 183.281 302.869 183.949 301.546C184.57 300.327 186.445 299.71 187.823 298.913C193.385 295.671 198.961 292.474 204.688 289.172C204.935 290.406 204.455 291.128 204.246 291.91C200.963 303.998 198.676 316.184 201.173 328.746C202.724 336.568 205.31 343.932 210.227 350.409C215.286 357.074 226.582 356.313 231.168 350.228C235.523 344.451 238.409 337.937 241.414 331.453C243.063 327.903 244.577 324.292 246.151 320.704C245.859 325.022 245.874 329.234 246.032 333.431C246.189 337.568 246.849 341.653 248.992 345.309C251.57 349.701 256.42 350.98 260.925 348.633C265.677 346.158 268.915 342.081 271.433 337.658C282.233 318.636 292.254 299.206 300.551 278.919C302.32 274.609 304.134 270.306 306.136 265.515C306.443 267.087 306.646 268.05 306.833 269.013C308.676 278.679 311.96 287.825 316.712 296.423C317.731 298.266 317.618 299.537 316.329 301.304C311.952 307.284 307.155 312.911 302.426 318.597C298.453 323.382 294.203 327.955 290.845 333.22C287.833 337.959 289.563 342.811 294.578 343.887C296.122 344.218 297.749 344.316 299.33 344.293C308.092 344.188 316.179 341.562 323.713 337.26C333.853 331.46 339.865 322.96 339.588 310.857C339.46 305.351 337.976 300.063 335.765 295.016C335.278 293.895 335.255 293.083 335.982 292.029C343.006 281.935 349.211 271.352 354.915 260.46C355.927 258.542 356.639 256.413 358.273 254.54C358.49 255.3 358.663 255.774 358.76 256.263C360.574 265.289 363.017 274.112 367.605 282.169C368.864 284.373 368.234 285.493 366.496 286.967C360.507 292.075 355.455 298.032 351.49 304.855C348.402 310.165 346.288 315.837 346.311 322.058C346.333 328.978 351.61 333.055 358.333 331.43C365.342 329.745 371.84 326.879 377.671 322.599C390.375 313.264 394.1 303.418 390.12 289.675C388.562 284.267 388.591 284.358 393.995 282.718C405.815 279.137 417.807 278.987 429.86 280.958C431.224 281.183 432.573 281.439 433.907 281.732C434.611 277.437 435.166 273.089 435.556 268.689C420.138 264.907 404.742 266.87 389.527 272.669ZM139.771 369.44C136.346 370.658 132.786 371.177 129.143 370.892C124.608 370.53 121.73 367.319 121.437 362.489C121.107 356.923 122.749 351.898 125.177 347.009C129.592 338.133 137.004 332.108 144.568 326.196C151.92 320.442 159.821 315.529 167.81 310.753C170.231 309.309 170.269 309.324 170.823 312.22C171.543 315.936 172.187 319.659 171.947 323.037C172.578 343.293 157.917 362.993 139.771 369.44ZM249.786 267.298C248.512 275.836 245.731 283.967 242.771 292C238.738 302.967 234.811 313.987 229.736 324.533C228.574 326.962 227.353 329.377 225.472 331.355C223.696 333.228 222.121 333.01 220.893 330.723C218.494 326.255 218.794 321.283 218.404 317.672C218.517 299.559 224.573 284.756 234.549 271.45C237.337 267.741 240.897 264.725 245.612 263.514C248.812 262.695 250.288 263.989 249.786 267.298ZM319.642 320.923C316.224 326.85 311.3 331.16 305.258 334.229C304.613 334.552 303.782 335.124 303.197 334.364C302.643 333.649 303.535 333.176 303.939 332.724C309.943 326.142 315.872 319.508 321.216 312.37C321.298 312.257 321.501 312.242 321.957 312.046C321.905 315.349 321.186 318.253 319.642 320.923ZM361.098 320.667C360.206 321.088 359.172 321.878 358.302 321.201C357.343 320.457 357.725 319.14 358.018 318.132C359.382 313.537 361.218 309.136 363.751 305.036C365.88 301.584 368.519 298.567 371.419 295.754C372.588 294.626 373.112 294.761 373.51 296.386C373.922 298.048 373.959 299.711 373.989 301.403C373.915 310.663 369.23 316.824 361.098 320.667Z" fill="#CCF381"/>
</g>
<defs>
<filter id="filter0_d_11_6" x="0" y="0" width="501" height="498" filterUnits="userSpaceOnUse" color-interpolation-filters="sRGB">
<feFlood flood-opacity="0" result="BackgroundImageFix"/>
<feColorMatrix in="SourceAlpha" type="matrix" values="0 0 0 0 0 0 0 0 0 0 0 0 0 0 0 0 0 0 127 0" result="hardAlpha"/>
<feOffset dx="7" dy="4"/>
<feGaussianBlur stdDeviation="2"/>
<feComposite in2="hardAlpha" operator="out"/>
<feColorMatrix type="matrix" values="0 0 0 0 0 0 0 0 0 0 0 0 0 0 0 0 0 0 0.25 0"/>
<feBlend mode="normal" in2="BackgroundImageFix" result="effect1_dropShadow_11_6"/>
<feBlend mode="normal" in="SourceGraphic" in2="effect1_dropShadow_11_6" result="shape"/>
</filter>
</defs>
</svg>
