<svg width="1439" height="850" viewBox="0 0 1439 850" fill="none" xmlns="http://www.w3.org/2000/svg">
<path d="M1224 83C1224 162.529 1288.47 227 1368 227C1393.82 227 1418.05 220.206 1439 208.309V0H1250.31C1233.74 23.4587 1224 52.0922 1224 83Z" fill="url(#paint0_linear_1_125)" fill-opacity="0.3"/>
<path d="M1378.92 649C1293.36 649 1224 718.844 1224 805C1224 820.279 1226.43 836.545 1230.5 850.5H1361H1434H1439V659.5C1421.74 652.813 1398.52 649 1378.92 649Z" fill="url(#paint1_linear_1_125)" fill-opacity="0.5"/>
<path d="M0 600C35.8985 600 65 570.899 65 535C65 499.101 35.8985 470 0 470V523.5V581V600Z" fill="url(#paint2_linear_1_125)" fill-opacity="0.3"/>
<g clip-path="url(#clip0_1_125)">
<path d="M265 437C278.807 437 290 425.807 290 412C290 398.193 278.807 387 265 387C251.193 387 240 398.193 240 412C240 425.807 251.193 437 265 437Z" fill="url(#paint3_linear_1_125)"/>
</g>
<g clip-path="url(#clip1_1_125)">
<path d="M307.5 452C311.642 452 315 448.642 315 444.5C315 440.358 311.642 437 307.5 437C303.358 437 300 440.358 300 444.5C300 448.642 303.358 452 307.5 452Z" fill="url(#paint4_linear_1_125)"/>
</g>
<g clip-path="url(#clip2_1_125)">
<path d="M1019.5 805C1029.16 805 1037 797.165 1037 787.5C1037 777.835 1029.16 770 1019.5 770C1009.84 770 1002 777.835 1002 787.5C1002 797.165 1009.84 805 1019.5 805Z" fill="url(#paint5_linear_1_125)"/>
</g>
<circle cx="472" cy="770" r="27" fill="url(#paint6_linear_1_125)"/>
<defs>
<linearGradient id="paint0_linear_1_125" x1="1468.86" y1="179.831" x2="1259.66" y2="-29.3622" gradientUnits="userSpaceOnUse">
<stop stop-color="#C0C8D5"/>
<stop offset="1" stop-color="#BDC6D2" stop-opacity="0"/>
</linearGradient>
<linearGradient id="paint1_linear_1_125" x1="1487.42" y1="909.9" x2="1260.8" y2="684.85" gradientUnits="userSpaceOnUse">
<stop stop-color="#C0C8D5"/>
<stop offset="1" stop-color="#BDC6D2" stop-opacity="0"/>
</linearGradient>
<linearGradient id="paint2_linear_1_125" x1="45.5259" y1="578.708" x2="-48.9015" y2="484.281" gradientUnits="userSpaceOnUse">
<stop stop-color="#C0C8D5"/>
<stop offset="1" stop-color="#BDC6D2" stop-opacity="0"/>
</linearGradient>
<linearGradient id="paint3_linear_1_125" x1="282.51" y1="428.811" x2="246.192" y2="392.493" gradientUnits="userSpaceOnUse">
<stop stop-color="#C0C8D5"/>
<stop offset="1" stop-color="#BDC6D2" stop-opacity="0"/>
</linearGradient>
<linearGradient id="paint4_linear_1_125" x1="312.753" y1="449.543" x2="301.858" y2="438.648" gradientUnits="userSpaceOnUse">
<stop stop-color="#C0C8D5"/>
<stop offset="1" stop-color="#BDC6D2" stop-opacity="0"/>
</linearGradient>
<linearGradient id="paint5_linear_1_125" x1="1031.76" y1="799.268" x2="1006.33" y2="773.845" gradientUnits="userSpaceOnUse">
<stop stop-color="#C0C8D5"/>
<stop offset="1" stop-color="#BDC6D2" stop-opacity="0"/>
</linearGradient>
<linearGradient id="paint6_linear_1_125" x1="490.911" y1="788.156" x2="451.687" y2="748.932" gradientUnits="userSpaceOnUse">
<stop stop-color="#C4E6C3"/>
<stop offset="1" stop-color="#BDC6D2" stop-opacity="0"/>
</linearGradient>
<clipPath id="clip0_1_125">
<rect width="50" height="50" fill="white" transform="translate(240 387)"/>
</clipPath>
<clipPath id="clip1_1_125">
<rect width="15" height="15" fill="white" transform="translate(300 437)"/>
</clipPath>
<clipPath id="clip2_1_125">
<rect width="35" height="35" fill="white" transform="translate(1002 770)"/>
</clipPath>
</defs>
</svg>
